<?xml version="1.0" encoding="UTF-8"?>
<!--Generator: Apple Native CoreSVG 175-->
<!DOCTYPE svg
PUBLIC "-//W3C//DTD SVG 1.1//EN"
       "http://www.w3.org/Graphics/SVG/1.1/DTD/svg11.dtd">
<svg version="1.1" xmlns="http://www.w3.org/2000/svg" xmlns:xlink="http://www.w3.org/1999/xlink" width="3300" height="2200">
 <!--glyph: "", point size: 100.0, font version: "17.0d12e1", template writer version: "65.1"-->
 <g id="Notes">
  <rect height="2200" id="artboard" style="fill:white;opacity:1" width="3300" x="0" y="0"/>
  <line style="fill:none;stroke:black;opacity:1;stroke-width:0.5;" x1="263" x2="3036" y1="292" y2="292"/>
  <text style="stroke:none;fill:black;font-family:sans-serif;font-size:13;font-weight:bold;" transform="matrix(1 0 0 1 263 322)">Weight/Scale Variations</text>
  <text style="stroke:none;fill:black;font-family:sans-serif;font-size:13;text-anchor:middle;" transform="matrix(1 0 0 1 559.711 322)">Ultralight</text>
  <text style="stroke:none;fill:black;font-family:sans-serif;font-size:13;text-anchor:middle;" transform="matrix(1 0 0 1 856.422 322)">Thin</text>
  <text style="stroke:none;fill:black;font-family:sans-serif;font-size:13;text-anchor:middle;" transform="matrix(1 0 0 1 1153.13 322)">Light</text>
  <text style="stroke:none;fill:black;font-family:sans-serif;font-size:13;text-anchor:middle;" transform="matrix(1 0 0 1 1449.84 322)">Regular</text>
  <text style="stroke:none;fill:black;font-family:sans-serif;font-size:13;text-anchor:middle;" transform="matrix(1 0 0 1 1746.56 322)">Medium</text>
  <text style="stroke:none;fill:black;font-family:sans-serif;font-size:13;text-anchor:middle;" transform="matrix(1 0 0 1 2043.27 322)">Semibold</text>
  <text style="stroke:none;fill:black;font-family:sans-serif;font-size:13;text-anchor:middle;" transform="matrix(1 0 0 1 2339.98 322)">Bold</text>
  <text style="stroke:none;fill:black;font-family:sans-serif;font-size:13;text-anchor:middle;" transform="matrix(1 0 0 1 2636.69 322)">Heavy</text>
  <text style="stroke:none;fill:black;font-family:sans-serif;font-size:13;text-anchor:middle;" transform="matrix(1 0 0 1 2933.4 322)">Black</text>
  <line style="fill:none;stroke:black;opacity:1;stroke-width:0.5;" x1="263" x2="3036" y1="1903" y2="1903"/>
  <g transform="matrix(1 0 0 1 263 1933)">
   <path d="M9.24805 0.830078Q10.8691 0.830078 12.2949 0.214844Q13.7207-0.400391 14.8096-1.49414Q15.8984-2.58789 16.5186-4.01367Q17.1387-5.43945 17.1387-7.05078Q17.1387-8.66211 16.5186-10.0879Q15.8984-11.5137 14.8047-12.6074Q13.7109-13.7012 12.2852-14.3164Q10.8594-14.9316 9.23828-14.9316Q7.62695-14.9316 6.20117-14.3164Q4.77539-13.7012 3.69141-12.6074Q2.60742-11.5137 1.9873-10.0879Q1.36719-8.66211 1.36719-7.05078Q1.36719-5.43945 1.9873-4.01367Q2.60742-2.58789 3.69629-1.49414Q4.78516-0.400391 6.21094 0.214844Q7.63672 0.830078 9.24805 0.830078ZM9.24805-0.654297Q7.91992-0.654297 6.7627-1.14746Q5.60547-1.64062 4.73145-2.51953Q3.85742-3.39844 3.36426-4.56055Q2.87109-5.72266 2.87109-7.05078Q2.87109-8.37891 3.35938-9.54102Q3.84766-10.7031 4.72168-11.582Q5.5957-12.4609 6.75293-12.9541Q7.91016-13.4473 9.23828-13.4473Q10.5762-13.4473 11.7334-12.9541Q12.8906-12.4609 13.7695-11.582Q14.6484-10.7031 15.1465-9.54102Q15.6445-8.37891 15.6445-7.05078Q15.6445-5.72266 15.1514-4.56055Q14.6582-3.39844 13.7842-2.51953Q12.9102-1.64062 11.748-1.14746Q10.5859-0.654297 9.24805-0.654297ZM5.6543-7.05078Q5.6543-6.72852 5.85938-6.52832Q6.06445-6.32812 6.40625-6.32812L8.51562-6.32812L8.51562-4.20898Q8.51562-3.88672 8.71094-3.67676Q8.90625-3.4668 9.23828-3.4668Q9.56055-3.4668 9.77051-3.67676Q9.98047-3.88672 9.98047-4.20898L9.98047-6.32812L12.0898-6.32812Q12.4219-6.32812 12.627-6.52832Q12.832-6.72852 12.832-7.05078Q12.832-7.38281 12.627-7.58789Q12.4219-7.79297 12.0898-7.79297L9.98047-7.79297L9.98047-9.90234Q9.98047-10.2344 9.77051-10.4443Q9.56055-10.6543 9.23828-10.6543Q8.90625-10.6543 8.71094-10.4443Q8.51562-10.2344 8.51562-9.90234L8.51562-7.79297L6.40625-7.79297Q6.06445-7.79297 5.85938-7.58789Q5.6543-7.38281 5.6543-7.05078Z"/>
  </g>
  <g transform="matrix(1 0 0 1 281.867 1933)">
   <path d="M11.709 2.91016Q13.75 2.91016 15.5518 2.12891Q17.3535 1.34766 18.7305-0.0292969Q20.1074-1.40625 20.8887-3.20801Q21.6699-5.00977 21.6699-7.05078Q21.6699-9.0918 20.8887-10.8936Q20.1074-12.6953 18.7305-14.0723Q17.3535-15.4492 15.5469-16.2305Q13.7402-17.0117 11.6992-17.0117Q9.6582-17.0117 7.85645-16.2305Q6.05469-15.4492 4.68262-14.0723Q3.31055-12.6953 2.5293-10.8936Q1.74805-9.0918 1.74805-7.05078Q1.74805-5.00977 2.5293-3.20801Q3.31055-1.40625 4.6875-0.0292969Q6.06445 1.34766 7.86621 2.12891Q9.66797 2.91016 11.709 2.91016ZM11.709 1.25Q9.98047 1.25 8.47656 0.605469Q6.97266-0.0390625 5.83496-1.17676Q4.69727-2.31445 4.05762-3.81836Q3.41797-5.32227 3.41797-7.05078Q3.41797-8.7793 4.05762-10.2832Q4.69727-11.7871 5.83008-12.9297Q6.96289-14.0723 8.4668-14.7119Q9.9707-15.3516 11.6992-15.3516Q13.4277-15.3516 14.9316-14.7119Q16.4355-14.0723 17.5781-12.9297Q18.7207-11.7871 19.3652-10.2832Q20.0098-8.7793 20.0098-7.05078Q20.0098-5.32227 19.3701-3.81836Q18.7305-2.31445 17.5928-1.17676Q16.4551-0.0390625 14.9463 0.605469Q13.4375 1.25 11.709 1.25ZM7.17773-7.05078Q7.17773-6.69922 7.41211-6.47461Q7.64648-6.25 8.01758-6.25L10.8887-6.25L10.8887-3.36914Q10.8887-2.99805 11.1133-2.76855Q11.3379-2.53906 11.6895-2.53906Q12.0605-2.53906 12.29-2.76855Q12.5195-2.99805 12.5195-3.36914L12.5195-6.25L15.4004-6.25Q15.7715-6.25 16.001-6.47461Q16.2305-6.69922 16.2305-7.05078Q16.2305-7.42188 16.001-7.65137Q15.7715-7.88086 15.4004-7.88086L12.5195-7.88086L12.5195-10.752Q12.5195-11.1328 12.29-11.3623Q12.0605-11.5918 11.6895-11.5918Q11.3379-11.5918 11.1133-11.3574Q10.8887-11.123 10.8887-10.752L10.8887-7.88086L8.01758-7.88086Q7.63672-7.88086 7.40723-7.65137Q7.17773-7.42188 7.17773-7.05078Z"/>
  </g>
  <g transform="matrix(1 0 0 1 305.646 1933)">
   <path d="M14.9707 5.66406Q17.0605 5.66406 18.96 5.01465Q20.8594 4.36523 22.4512 3.19336Q24.043 2.02148 25.2197 0.429688Q26.3965-1.16211 27.0459-3.06641Q27.6953-4.9707 27.6953-7.05078Q27.6953-9.14062 27.0459-11.04Q26.3965-12.9395 25.2197-14.5312Q24.043-16.123 22.4512-17.2998Q20.8594-18.4766 18.9551-19.126Q17.0508-19.7754 14.9609-19.7754Q12.8711-19.7754 10.9717-19.126Q9.07227-18.4766 7.48535-17.2998Q5.89844-16.123 4.72168-14.5312Q3.54492-12.9395 2.90039-11.04Q2.25586-9.14062 2.25586-7.05078Q2.25586-4.9707 2.90527-3.06641Q3.55469-1.16211 4.72656 0.429688Q5.89844 2.02148 7.49023 3.19336Q9.08203 4.36523 10.9814 5.01465Q12.8809 5.66406 14.9707 5.66406ZM14.9707 3.84766Q13.1641 3.84766 11.5283 3.2959Q9.89258 2.74414 8.53516 1.74805Q7.17773 0.751953 6.17676-0.610352Q5.17578-1.97266 4.62891-3.6084Q4.08203-5.24414 4.08203-7.05078Q4.08203-8.86719 4.62891-10.5029Q5.17578-12.1387 6.17188-13.501Q7.16797-14.8633 8.52539-15.8594Q9.88281-16.8555 11.5186-17.4023Q13.1543-17.9492 14.9609-17.9492Q16.7773-17.9492 18.4131-17.4023Q20.0488-16.8555 21.4111-15.8594Q22.7734-14.8633 23.7695-13.501Q24.7656-12.1387 25.3174-10.5029Q25.8691-8.86719 25.8691-7.05078Q25.8789-5.24414 25.332-3.6084Q24.7852-1.97266 23.7842-0.610352Q22.7832 0.751953 21.4209 1.74805Q20.0586 2.74414 18.4229 3.2959Q16.7871 3.84766 14.9707 3.84766ZM9.19922-7.05078Q9.19922-6.66992 9.45801-6.4209Q9.7168-6.17188 10.1172-6.17188L14.0625-6.17188L14.0625-2.2168Q14.0625-1.81641 14.3115-1.55762Q14.5605-1.29883 14.9512-1.29883Q15.3516-1.29883 15.6104-1.55273Q15.8691-1.80664 15.8691-2.2168L15.8691-6.17188L19.8242-6.17188Q20.2246-6.17188 20.4785-6.4209Q20.7324-6.66992 20.7324-7.05078Q20.7324-7.46094 20.4785-7.71484Q20.2246-7.96875 19.8242-7.96875L15.8691-7.96875L15.8691-11.9141Q15.8691-12.3242 15.6104-12.583Q15.3516-12.8418 14.9512-12.8418Q14.5605-12.8418 14.3115-12.583Q14.0625-12.3242 14.0625-11.9141L14.0625-7.96875L10.1172-7.96875Q9.70703-7.96875 9.45312-7.71484Q9.19922-7.46094 9.19922-7.05078Z"/>
  </g>
  <text style="stroke:none;fill:black;font-family:sans-serif;font-size:13;font-weight:bold;" transform="matrix(1 0 0 1 263 1953)">Design Variations</text>
  <text style="stroke:none;fill:black;font-family:sans-serif;font-size:13;" transform="matrix(1 0 0 1 263 1971)">Symbols are supported in up to nine weights and three scales.</text>
  <text style="stroke:none;fill:black;font-family:sans-serif;font-size:13;" transform="matrix(1 0 0 1 263 1989)">For optimal layout with text and other symbols, vertically align</text>
  <text style="stroke:none;fill:black;font-family:sans-serif;font-size:13;" transform="matrix(1 0 0 1 263 2007)">symbols with the adjacent text.</text>
  <line style="fill:none;stroke:#00AEEF;stroke-width:0.5;opacity:1.0;" x1="776" x2="776" y1="1919" y2="1933"/>
  <g transform="matrix(1 0 0 1 776 1933)">
   <path d="M3.31055 0.15625Q3.70117 0.15625 3.91602-0.00976562Q4.13086-0.175781 4.26758-0.585938L5.52734-4.0332L11.2891-4.0332L12.5488-0.585938Q12.6855-0.175781 12.9004-0.00976562Q13.1152 0.15625 13.4961 0.15625Q13.8867 0.15625 14.1162-0.0585938Q14.3457-0.273438 14.3457-0.644531Q14.3457-0.869141 14.2383-1.17188L9.6582-13.3691Q9.48242-13.8184 9.17969-14.043Q8.87695-14.2676 8.4082-14.2676Q7.5-14.2676 7.17773-13.3789L2.59766-1.16211Q2.49023-0.859375 2.49023-0.634766Q2.49023-0.263672 2.70996-0.0537109Q2.92969 0.15625 3.31055 0.15625ZM6.00586-5.51758L8.37891-12.0898L8.42773-12.0898L10.8008-5.51758Z"/>
  </g>
  <line style="fill:none;stroke:#00AEEF;stroke-width:0.5;opacity:1.0;" x1="793.197" x2="793.197" y1="1919" y2="1933"/>
  <text style="stroke:none;fill:black;font-family:sans-serif;font-size:13;font-weight:bold;" transform="matrix(1 0 0 1 776 1953)">Margins</text>
  <text style="stroke:none;fill:black;font-family:sans-serif;font-size:13;" transform="matrix(1 0 0 1 776 1971)">Leading and trailing margins on the left and right side of each symbol</text>
  <text style="stroke:none;fill:black;font-family:sans-serif;font-size:13;" transform="matrix(1 0 0 1 776 1989)">can be adjusted by modifying the x-location of the margin guidelines.</text>
  <text style="stroke:none;fill:black;font-family:sans-serif;font-size:13;" transform="matrix(1 0 0 1 776 2007)">Modifications are automatically applied proportionally to all</text>
  <text style="stroke:none;fill:black;font-family:sans-serif;font-size:13;" transform="matrix(1 0 0 1 776 2025)">scales and weights.</text>
  <g transform="matrix(1 0 0 1 1289 1933)">
   <path d="M2.8418 1.86523L4.54102 3.57422Q5.18555 4.22852 5.90332 4.17969Q6.62109 4.13086 7.31445 3.35938L18.0078-8.42773L17.041-9.4043L6.42578 2.27539Q6.16211 2.57812 5.89355 2.61719Q5.625 2.65625 5.27344 2.30469L4.10156 1.14258Q3.75 0.791016 3.79395 0.522461Q3.83789 0.253906 4.14062-0.0195312L15.6152-10.8203L14.6387-11.7871L3.04688-0.898438Q2.30469-0.214844 2.25098 0.498047Q2.19727 1.21094 2.8418 1.86523ZM9.25781-16.3281Q8.94531-16.0254 8.90625-15.6348Q8.86719-15.2441 9.04297-14.9512Q9.21875-14.6777 9.55566-14.541Q9.89258-14.4043 10.3809-14.5215Q11.4746-14.7754 12.5977-14.7314Q13.7207-14.6875 14.7949-13.9844L14.209-12.5293Q13.9551-11.9043 14.0674-11.4404Q14.1797-10.9766 14.5801-10.5664L16.875-8.25195Q17.2363-7.88086 17.5781-7.82227Q17.9199-7.76367 18.3398-7.8418L19.4043-8.03711L20.0684-7.36328L20.0293-6.80664Q20-6.43555 20.1221-6.12305Q20.2441-5.81055 20.6055-5.44922L21.3672-4.70703Q21.7285-4.3457 22.1533-4.33105Q22.5781-4.31641 22.9297-4.66797L25.8398-7.58789Q26.1914-7.93945 26.1816-8.35449Q26.1719-8.76953 25.8105-9.13086L25.0391-9.89258Q24.6875-10.2539 24.3799-10.3857Q24.0723-10.5176 23.7109-10.4883L23.1348-10.4395L22.4902-11.0742L22.7344-12.1973Q22.832-12.6172 22.6953-12.9834Q22.5586-13.3496 22.1191-13.7891L19.9219-15.9766Q18.6719-17.2168 17.2607-17.8369Q15.8496-18.457 14.4189-18.4814Q12.9883-18.5059 11.665-17.959Q10.3418-17.4121 9.25781-16.3281ZM10.752-15.957Q11.6602-16.6211 12.7002-16.9043Q13.7402-17.1875 14.8047-17.085Q15.8691-16.9824 16.8701-16.5137Q17.8711-16.0449 18.7012-15.2051L21.1328-12.793Q21.3086-12.6172 21.3525-12.4512Q21.3965-12.2852 21.3379-12.0312L21.0156-10.5469L22.5195-9.0625L23.5059-9.12109Q23.6914-9.13086 23.7891-9.09668Q23.8867-9.0625 24.0332-8.91602L24.6094-8.33984L22.168-5.89844L21.5918-6.47461Q21.4453-6.62109 21.4062-6.71875Q21.3672-6.81641 21.377-7.01172L21.4453-7.98828L19.9512-9.47266L18.4277-9.21875Q18.1836-9.16992 18.042-9.2041Q17.9004-9.23828 17.7148-9.41406L15.7129-11.416Q15.5176-11.5918 15.4932-11.7529Q15.4688-11.9141 15.5859-12.1875L16.4648-14.2773Q15.293-15.3711 13.8281-15.791Q12.3633-16.2109 10.8398-15.7617Q10.7227-15.7324 10.6885-15.8057Q10.6543-15.8789 10.752-15.957Z"/>
  </g>
  <text style="stroke:none;fill:black;font-family:sans-serif;font-size:13;font-weight:bold;" transform="matrix(1 0 0 1 1289 1953)">Exporting</text>
  <text style="stroke:none;fill:black;font-family:sans-serif;font-size:13;" transform="matrix(1 0 0 1 1289 1971)">Symbols should be outlined when exporting to ensure the</text>
  <text style="stroke:none;fill:black;font-family:sans-serif;font-size:13;" transform="matrix(1 0 0 1 1289 1989)">design is preserved when submitting to Xcode.</text>
  <text id="template-version" style="stroke:none;fill:black;font-family:sans-serif;font-size:13;text-anchor:end;" transform="matrix(1 0 0 1 3036 1933)">Template v.2.0</text>
  <text style="stroke:none;fill:black;font-family:sans-serif;font-size:13;text-anchor:end;" transform="matrix(1 0 0 1 3036 1951)">Requires Xcode 13 or greater</text>
  <text id="descriptive-name" style="stroke:none;fill:black;font-family:sans-serif;font-size:13;text-anchor:end;" transform="matrix(1 0 0 1 3036 1969)">Generated from custom.drink</text>
  <text style="stroke:none;fill:black;font-family:sans-serif;font-size:13;text-anchor:end;" transform="matrix(1 0 0 1 3036 1987)">Typeset at 100 points</text>
  <text style="stroke:none;fill:black;font-family:sans-serif;font-size:13;" transform="matrix(1 0 0 1 263 726)">Small</text>
  <text style="stroke:none;fill:black;font-family:sans-serif;font-size:13;" transform="matrix(1 0 0 1 263 1156)">Medium</text>
  <text style="stroke:none;fill:black;font-family:sans-serif;font-size:13;" transform="matrix(1 0 0 1 263 1586)">Large</text>
 </g>
 <g id="Guides">
  <g id="H-reference" style="fill:#27AAE1;stroke:none;" transform="matrix(1 0 0 1 339 696)">
   <path d="M0.993347 0L3.6377 0L29.3282-67.1326L30.0301-67.1326L30.0301-70.459L28.1227-70.459ZM11.6882-24.4797L46.9818-24.4797L46.2311-26.7288L12.4382-26.7288ZM55.1193 0L57.7637 0L30.6381-70.459L29.4327-70.459L29.4327-67.1326Z"/>
  </g>
  <line id="Baseline-S" style="fill:none;stroke:#27AAE1;opacity:1;stroke-width:0.5;" x1="263" x2="3036" y1="696" y2="696"/>
  <line id="Capline-S" style="fill:none;stroke:#27AAE1;opacity:1;stroke-width:0.5;" x1="263" x2="3036" y1="625.541" y2="625.541"/>
  <g id="H-reference" style="fill:#27AAE1;stroke:none;" transform="matrix(1 0 0 1 339 1126)">
   <path d="M0.993347 0L3.6377 0L29.3282-67.1326L30.0301-67.1326L30.0301-70.459L28.1227-70.459ZM11.6882-24.4797L46.9818-24.4797L46.2311-26.7288L12.4382-26.7288ZM55.1193 0L57.7637 0L30.6381-70.459L29.4327-70.459L29.4327-67.1326Z"/>
  </g>
  <line id="Baseline-M" style="fill:none;stroke:#27AAE1;opacity:1;stroke-width:0.5;" x1="263" x2="3036" y1="1126" y2="1126"/>
  <line id="Capline-M" style="fill:none;stroke:#27AAE1;opacity:1;stroke-width:0.5;" x1="263" x2="3036" y1="1055.54" y2="1055.54"/>
  <g id="H-reference" style="fill:#27AAE1;stroke:none;" transform="matrix(1 0 0 1 339 1556)">
   <path d="M0.993347 0L3.6377 0L29.3282-67.1326L30.0301-67.1326L30.0301-70.459L28.1227-70.459ZM11.6882-24.4797L46.9818-24.4797L46.2311-26.7288L12.4382-26.7288ZM55.1193 0L57.7637 0L30.6381-70.459L29.4327-70.459L29.4327-67.1326Z"/>
  </g>
  <line id="Baseline-L" style="fill:none;stroke:#27AAE1;opacity:1;stroke-width:0.5;" x1="263" x2="3036" y1="1556" y2="1556"/>
  <line id="Capline-L" style="fill:none;stroke:#27AAE1;opacity:1;stroke-width:0.5;" x1="263" x2="3036" y1="1485.54" y2="1485.54"/>
  <line id="left-margin" style="fill:none;stroke:#00AEEF;stroke-width:0.5;opacity:1.0;" x1="1376.11" x2="1376.11" y1="1030.73" y2="1150.14"/>
  <line id="right-margin" style="fill:none;stroke:#00AEEF;stroke-width:0.5;opacity:1.0;" x1="1523.58" x2="1523.58" y1="1030.73" y2="1150.14"/>
 </g>
 <g id="Symbols">
  <g id="Black-L" transform="matrix(1 0 0 1 2848.1 1556)">
   <path d="M71.67 29.7333L99.07 29.7333C104.77 29.7333 109.07 28.2333 112.07 25.3333C115.07 22.4333 116.87 17.8333 117.47 11.7333L123.67-53.1667C124.07-56.9667 123.27-60.0667 121.27-62.3667C119.27-64.6667 116.57-65.8667 112.87-65.8667L57.77-65.8667C54.17-65.8667 51.47-64.6667 49.47-62.3667C47.47-60.0667 46.67-56.9667 47.07-53.1667L53.27 11.7333C53.87 17.9333 55.67 22.4333 58.57 25.3333C61.67 28.2333 65.97 29.7333 71.67 29.7333ZM72.77 12.4333C71.47 12.4333 70.67 11.6333 70.47 10.1333L64.87-48.6667L105.97-48.6667L100.37 10.1333C100.17 11.6333 99.47 12.4333 98.07 12.4333L72.77 12.4333ZM79.47-60.4667L94.17-60.4667L94.77-68.6667C94.97-70.8667 95.67-72.3667 97.07-73.3667L118.17-88.4667C120.17-89.8667 121.27-91.5667 121.37-93.4667C121.47-95.3667 120.97-97.1667 119.87-98.6667C118.77-100.267 117.27-101.267 115.37-101.667C113.47-102.067 111.47-101.567 109.47-100.167L89.17-85.5667C86.37-83.5667 84.27-81.2667 82.97-78.7667C81.57-76.2667 80.77-73.2667 80.47-69.6667L79.47-60.4667Z"/>
  </g>
  <g id="Heavy-L" transform="matrix(1 0 0 1 2552.32 1556)">
   <path d="M70.6375 28.8345L98.4375 28.8345C103.737 28.8345 107.837 27.4345 110.538 24.7345C113.337 22.0345 114.938 17.7345 115.538 12.0345L121.837-53.7655C122.137-57.0655 121.438-59.7655 119.737-61.7655C118.038-63.7655 115.637-64.7655 112.438-64.7655L56.4375-64.7655C53.3375-64.7655 50.9375-63.7655 49.1375-61.7655C47.4375-59.7655 46.7375-57.0655 47.0375-53.7655L53.3375 12.0345C53.8375 17.7345 55.5375 22.0345 58.3375 24.7345C61.2375 27.4345 65.3375 28.8345 70.6375 28.8345ZM71.5375 13.4345C69.8375 13.4345 68.9375 12.5345 68.7375 10.7345L63.0375-49.4655L106.137-49.4655L100.337 10.7345C100.137 12.5345 99.2375 13.4345 97.5375 13.4345L71.5375 13.4345ZM79.0375-59.8655L92.2375-59.8655L92.7375-67.4655C92.9375-69.8655 93.7375-71.5655 95.3375-72.6655L116.438-87.7655C118.237-89.0655 119.137-90.5655 119.337-92.2655C119.438-93.9655 119.038-95.5655 118.038-96.9655C117.038-98.3655 115.637-99.2655 113.938-99.6655C112.237-100.066 110.438-99.5655 108.538-98.2655L88.2375-83.6655C85.5375-81.6655 83.5375-79.5655 82.2375-77.1655C80.9375-74.7655 80.1375-71.8655 79.8375-68.4655L79.0375-59.8655Z"/>
  </g>
  <g id="Bold-L" transform="matrix(1 0 0 1 2256.85 1556)">
   <path d="M69.0455 27.0964L97.2455 27.0964C102.145 27.0964 105.745 25.7964 108.345 23.2964C110.845 20.7964 112.345 16.8964 112.945 11.6964L119.345-55.0036C119.645-57.7036 119.045-59.9036 117.645-61.6036C116.245-63.3036 114.245-64.1036 111.645-64.1036L54.7455-64.1036C52.1455-64.1036 50.1455-63.3036 48.7455-61.6036C47.3455-59.9036 46.7455-57.7036 47.0455-55.0036L53.4455 11.7964C53.9455 16.9964 55.4455 20.8964 57.9455 23.3964C60.5455 25.8964 64.2455 27.0964 69.0455 27.0964ZM69.7455 14.0964C67.6455 14.0964 66.4455 12.9964 66.2455 10.7964L60.3455-51.0036L105.945-51.0036L100.145 10.7964C99.8455 12.9964 98.7455 14.0964 96.6455 14.0964L69.7455 14.0964ZM78.3455-59.8036L89.5455-59.8036L90.0455-66.8036C90.2455-69.4036 91.2455-71.3036 93.0455-72.6036L114.145-87.7036C115.645-88.8036 116.445-90.1036 116.545-91.5036C116.645-93.0036 116.245-94.3036 115.445-95.5036C114.545-96.7036 113.445-97.5036 111.945-97.8036C110.445-98.1036 108.945-97.7036 107.345-96.6036L87.0455-82.0036C84.4455-80.1036 82.5455-78.0036 81.3455-75.8036C80.1455-73.6036 79.3455-70.8036 79.0455-67.5036L78.3455-59.8036Z"/>
  </g>
  <g id="Semibold-L" transform="matrix(1 0 0 1 1961.05 1556)">
   <path d="M68.055 25.8974L96.555 25.8974C101.055 25.8974 104.555 24.6974 106.855 22.3974C109.255 20.0974 110.655 16.3974 111.055 11.5974L117.555-55.8026C117.755-58.1026 117.355-60.0026 116.055-61.4026C114.855-62.8026 113.155-63.5026 110.855-63.5026L53.555-63.5026C51.355-63.5026 49.655-62.8026 48.455-61.4026C47.255-60.0026 46.755-58.1026 47.055-55.8026L53.555 11.5974C54.055 16.4974 55.455 20.0974 57.755 22.3974C60.055 24.6974 63.455 25.8974 68.055 25.8974ZM68.555 14.4974C66.155 14.4974 64.855 13.1974 64.555 10.6974L58.555-52.3026L105.855-52.3026L99.855 10.6974C99.555 13.1974 98.255 14.4974 95.955 14.4974L68.555 14.4974ZM77.855-59.9026L87.755-59.9026L88.255-66.5026C88.455-69.2026 89.555-71.3026 91.555-72.7026L112.655-87.8026C113.955-88.8026 114.755-89.9026 114.755-91.2026C114.855-92.5026 114.455-93.7026 113.755-94.7026C112.955-95.8026 111.955-96.4026 110.655-96.7026C109.355-97.0026 107.955-96.6026 106.555-95.6026L86.255-81.0026C83.755-79.2026 81.855-77.2026 80.655-75.0026C79.455-72.8026 78.755-70.2026 78.455-67.0026L77.855-59.9026Z"/>
  </g>
  <g id="Medium-L" transform="matrix(1 0 0 1 1664.91 1556)">
   <path d="M67.4135 24.8985L96.1135 24.8985C100.413 24.8985 103.713 23.7985 105.913 21.5985C108.113 19.3985 109.513 15.9985 109.913 11.3985L116.413-56.5015C116.613-58.5015 116.213-60.1015 115.113-61.3015C114.013-62.5015 112.513-63.1015 110.613-63.1015L52.8135-63.1015C50.9135-63.1015 49.4135-62.5015 48.3135-61.3015C47.3135-60.1015 46.8135-58.5015 47.0135-56.5015L53.5135 11.3985C53.9135 15.9985 55.3135 19.3985 57.5135 21.5985C59.9135 23.7985 63.1135 24.8985 67.4135 24.8985ZM67.9135 14.8985C65.3135 14.8985 63.8135 13.4985 63.6135 10.7985L57.6135-53.1015L106.213-53.1015L100.213 10.7985C99.9135 13.4985 98.5135 14.8985 95.9135 14.8985L67.9135 14.8985ZM77.7135-59.8015L86.6135-59.8015L87.0135-66.0015C87.2135-68.9015 88.4135-71.0015 90.5135-72.5015L111.613-87.6015C112.813-88.5015 113.413-89.5015 113.513-90.7015C113.613-91.9015 113.313-92.9015 112.613-93.9015C111.913-94.9015 111.013-95.5015 109.813-95.7015C108.613-96.0015 107.413-95.6015 106.113-94.7015L85.9135-80.2015C83.4135-78.4015 81.6135-76.5015 80.5135-74.4015C79.4135-72.3015 78.6135-69.7015 78.4135-66.7015L77.7135-59.8015Z"/>
  </g>
  <g id="Regular-L" transform="matrix(1 0 0 1 1369.09 1556)">
   <path d="M66.321 23.76L95.221 23.76C99.221 23.76 102.221 22.76 104.321 20.66C106.421 18.56 107.621 15.46 108.021 11.16L114.621-57.34C114.821-58.94 114.421-60.24 113.621-61.24C112.721-62.24 111.521-62.74 110.021-62.74L51.621-62.74C50.021-62.74 48.821-62.24 48.021-61.24C47.221-60.24 46.821-58.94 47.021-57.34L53.621 11.16C54.021 15.36 55.221 18.56 57.321 20.66C59.321 22.76 62.321 23.76 66.321 23.76ZM66.621 15.36C63.721 15.36 62.121 13.86 61.821 10.86L55.721-54.14L106.021-54.14L99.921 10.86C99.621 13.86 98.021 15.36 95.121 15.36L66.621 15.36ZM77.221-59.84L84.821-59.84L85.221-65.64C85.421-68.64 86.721-70.94 88.921-72.64L110.021-87.74C111.021-88.44 111.621-89.34 111.621-90.34C111.721-91.34 111.421-92.24 110.821-93.04C110.221-93.84 109.421-94.34 108.421-94.64C107.421-94.84 106.321-94.54 105.221-93.74L85.021-79.14C82.621-77.44 80.921-75.54 79.821-73.54C78.721-71.54 78.021-69.04 77.821-66.14L77.221-59.84Z"/>
  </g>
  <g id="Light-L" transform="matrix(1 0 0 1 1073.34 1556)">
   <path d="M65.4888 22.4608L94.0887 22.4608C97.7888 22.4608 100.589 21.4608 102.589 19.5608C104.589 17.6608 105.689 14.7608 106.089 10.8608L112.689-57.5392C112.889-58.9392 112.589-60.0392 111.889-60.8392C111.189-61.6392 110.089-62.0392 108.789-62.0392L50.9888-62.0392C49.6887-62.0392 48.5887-61.6392 47.8887-60.8392C47.1887-60.0392 46.8887-58.9392 46.9888-57.5392L53.5887 10.8608C53.9888 14.7608 55.0887 17.6608 57.0887 19.5608C58.9888 21.5608 61.7888 22.4608 65.4888 22.4608ZM65.6887 15.9608C62.1887 15.9608 60.1887 14.1608 59.8887 10.5608L53.6887-55.5392L105.989-55.5392L99.7888 10.5608C99.3887 14.1608 97.4888 15.9608 93.9888 15.9608L65.6887 15.9608ZM77.0887-59.7392L83.1887-59.7392L83.5887-65.4392C83.7888-68.5392 85.1887-70.9392 87.5887-72.7392L108.689-87.9392C109.489-88.5392 109.889-89.2392 109.989-90.0392C110.089-90.8392 109.789-91.5392 109.389-92.2392C108.889-92.9392 108.289-93.3392 107.489-93.5392C106.689-93.7392 105.789-93.4392 104.789-92.7392L84.4888-78.0392C82.1887-76.3392 80.4888-74.5392 79.4888-72.7392C78.4888-70.8392 77.8887-68.5392 77.5887-65.7392L77.0887-59.7392Z"/>
  </g>
  <g id="Thin-L" transform="matrix(1 0 0 1 777.897 1556)">
   <path d="M64.3946 20.925L92.6946 20.925C95.9946 20.925 98.4946 20.125 100.395 18.425C102.195 16.725 103.295 14.225 103.595 10.825L110.195-57.375C110.295-58.475 110.095-59.375 109.595-59.975C109.095-60.575 108.195-60.875 107.095-60.875L50.0946-60.875C48.9946-60.875 48.1946-60.575 47.6946-59.975C47.0946-59.375 46.8946-58.475 46.9946-57.375L53.5946 10.825C53.8946 14.225 54.9946 16.725 56.7946 18.425C58.5946 20.025 61.0946 20.925 64.3946 20.925ZM64.4946 17.025C60.1946 17.025 57.7946 14.825 57.3946 10.525L51.0946-56.975L106.195-56.975L99.8946 10.525C99.4946 14.925 97.0946 17.025 92.8946 17.025L64.4946 17.025ZM76.8946-59.475L80.9946-59.475L81.3946-65.075C81.5946-68.275 83.0946-70.875 85.7946-72.875L106.895-88.075C107.395-88.475 107.695-88.975 107.695-89.475C107.695-89.975 107.595-90.475 107.295-90.975C106.995-91.475 106.495-91.775 105.995-91.875C105.395-91.975 104.795-91.775 104.095-91.275L83.7946-76.575C81.4946-74.975 79.8946-73.275 78.9946-71.575C78.0946-69.875 77.4946-67.775 77.2946-65.175L76.8946-59.475Z"/>
  </g>
  <g id="Ultralight-L" transform="matrix(1 0 0 1 481.836 1556)">
   <path d="M63.895 20.2255L91.995 20.2255C95.095 20.2255 97.495 19.4255 99.295 17.8255C100.995 16.2255 101.995 13.9255 102.295 10.8255L108.895-57.3745C108.995-58.3745 108.795-59.0745 108.395-59.5745C107.895-60.0745 107.195-60.3745 106.295-60.3745L49.695-60.3745C48.795-60.3745 48.095-60.0745 47.595-59.5745C47.095-59.0745 46.895-58.2745 46.995-57.3745L53.595 10.8255C53.895 13.9255 54.895 16.3255 56.595 17.8255C58.395 19.4255 60.795 20.2255 63.895 20.2255ZM63.795 17.6255C58.995 17.6255 56.395 15.2255 55.995 10.5255L49.595-57.6745L106.095-57.6745L99.695 10.5255C99.295 15.2255 96.695 17.6255 91.995 17.6255L63.795 17.6255ZM76.695-59.1745L79.795-59.1745L80.195-64.6745C80.395-67.8745 81.995-70.5745 84.895-72.6745L105.995-87.8745C106.395-88.1745 106.595-88.4745 106.595-88.8745C106.595-89.2745 106.495-89.6745 106.295-90.0745C106.095-90.4745 105.695-90.6745 105.295-90.7745C104.895-90.8745 104.395-90.6745 103.795-90.2745L83.495-75.6745C81.295-74.0745 79.695-72.4745 78.795-70.8745C77.895-69.2745 77.395-67.2745 77.195-64.8745L76.695-59.1745Z"/>
  </g>
  <g id="Black-M" transform="matrix(1 0 0 1 2856.03 1126)">
   <path d="M66.9375 16.5356L87.8375 16.5356C92.5375 16.5356 96.1375 15.3356 98.6375 12.9356C101.137 10.5356 102.537 6.73561 103.037 1.73561L107.838-47.8644C108.137-51.2644 107.438-53.9644 105.738-55.9644C104.037-57.9644 101.637-59.0644 98.4375-59.0644L56.4375-59.0644C53.3375-59.0644 50.8375-58.0644 49.1375-55.9644C47.4375-53.9644 46.7375-51.2644 47.0375-47.8644L51.7375 1.73561C52.2375 6.83561 53.7375 10.5356 56.1375 12.9356C58.6375 15.3356 62.2375 16.5356 66.9375 16.5356ZM67.8375 1.83561C67.0375 1.83561 66.5375 1.33561 66.3375 0.335614L62.0375-44.1644L92.4375-44.1644L88.3375 0.335614C88.2375 1.33561 87.7375 1.83561 86.8375 1.83561L67.8375 1.83561ZM72.4375-54.2644L84.9375-54.2644L85.4375-61.0644C85.5375-62.5644 86.0375-63.6644 86.9375-64.3644L103.238-76.0644C104.938-77.2644 105.838-78.6644 105.938-80.3644C106.037-81.9644 105.637-83.4644 104.637-84.7644C103.637-86.0644 102.338-86.9644 100.738-87.3644C99.1375-87.7644 97.4375-87.2644 95.7375-86.0644L80.1375-74.6644C77.9375-73.0644 76.2375-71.2644 75.1375-69.2644C74.0375-67.2644 73.3375-64.8644 73.1375-61.9644L72.4375-54.2644Z"/>
  </g>
  <g id="Heavy-M" transform="matrix(1 0 0 1 2560.21 1126)">
   <path d="M65.845 15.2368L87.145 15.2368C91.545 15.2368 94.845 14.1368 97.145 11.8368C99.445 9.63682 100.745 6.13682 101.245 1.43682L106.045-48.9632C106.345-51.8632 105.745-54.1632 104.245-55.9632C102.745-57.7632 100.645-58.5632 97.945-58.5632L55.145-58.5632C52.445-58.5632 50.345-57.6632 48.845-55.9632C47.345-54.1632 46.745-51.8632 47.045-48.9632L51.845 1.43682C52.245 6.13682 53.645 9.63682 55.945 11.8368C58.245 14.1368 61.545 15.2368 65.845 15.2368ZM66.645 2.13682C65.545 2.13682 64.945 1.53682 64.745 0.236823L60.345-45.5632L92.545-45.5632L88.245 0.336823C88.045 1.53682 87.445 2.23682 86.345 2.23682L66.645 2.23682ZM71.945-54.3632L83.145-54.3632L83.545-60.6632C83.645-62.3632 84.245-63.5632 85.345-64.3632L101.645-76.0632C103.145-77.1632 103.945-78.3632 104.045-79.8632C104.145-81.3632 103.745-82.6632 102.945-83.8632C102.045-85.0632 100.945-85.7632 99.545-86.1632C98.145-86.5632 96.645-86.0632 95.045-84.9632L79.345-73.5632C77.245-71.9632 75.645-70.2632 74.545-68.3632C73.445-66.4632 72.845-64.1632 72.645-61.3632L71.945-54.3632Z"/>
  </g>
  <g id="Bold-M" transform="matrix(1 0 0 1 2264.48 1126)">
   <path d="M64.7129 13.8985L86.4129 13.8985C90.4129 13.8985 93.4129 12.8985 95.5129 10.7985C97.6129 8.69849 98.8129 5.59849 99.2129 1.29849L104.113-50.1015C104.313-52.5015 103.813-54.4015 102.613-55.8015C101.413-57.2015 99.6129-58.0015 97.4129-58.0015L53.7129-58.0015C51.5129-58.0015 49.7129-57.3015 48.5129-55.8015C47.3129-54.4015 46.8129-52.5015 47.0129-50.1015L51.9129 1.29849C52.3129 5.59849 53.5129 8.79849 55.6129 10.7985C57.7129 12.7985 60.7129 13.8985 64.7129 13.8985ZM65.3129 2.69849C63.9129 2.69849 63.1129 1.99849 63.0129 0.498493L58.5129-46.6015L92.6129-46.6015L88.1129 0.398493C87.9129 1.89849 87.2129 2.59849 85.8129 2.59849L65.3129 2.59849ZM71.5129-54.3015L81.1129-54.3015L81.5129-60.0015C81.6129-61.9015 82.4129-63.3015 83.6129-64.2015L99.9129-75.9015C101.213-76.8015 101.913-77.9015 102.013-79.2015C102.113-80.5015 101.813-81.6015 101.013-82.6015C100.313-83.6015 99.3129-84.3015 98.0129-84.6015C96.8129-84.9015 95.4129-84.5015 94.1129-83.6015L78.4129-72.2015C76.4129-70.7015 74.8129-69.1015 73.8129-67.2015C72.8129-65.4015 72.2129-63.2015 72.0129-60.6015L71.5129-54.3015Z"/>
  </g>
  <g id="Semibold-M" transform="matrix(1 0 0 1 1968.42 1126)">
   <path d="M63.9135 12.8996L85.9135 12.8996C89.6135 12.8996 92.4135 11.8996 94.3135 9.9996C96.2135 8.0996 97.4135 5.0996 97.8135 1.0996L102.813-50.9004C103.013-52.9004 102.613-54.5004 101.513-55.7004C100.513-56.9004 99.0135-57.5004 97.0135-57.5004L52.7135-57.5004C50.8135-57.5004 49.3135-56.9004 48.3135-55.7004C47.3135-54.5004 46.8135-52.9004 47.0135-50.9004L52.0135 1.0996C52.4135 5.0996 53.5135 8.0996 55.4135 9.9996C57.3135 11.8996 60.1135 12.8996 63.9135 12.8996ZM64.4135 2.9996C62.8135 2.9996 61.9135 2.1996 61.8135 0.499605L57.2135-47.6004L92.6135-47.6004L88.0135 0.399605C87.8135 2.0996 86.9135 2.8996 85.4135 2.8996L64.4135 2.8996ZM71.1135-54.4004L79.7135-54.4004L80.1135-59.7004C80.3135-61.7004 81.0135-63.3004 82.4135-64.3004L98.7135-76.0004C99.9135-76.8004 100.513-77.8004 100.613-78.9004C100.713-80.0004 100.413-81.0004 99.7135-82.0004C99.0135-82.9004 98.1135-83.5004 97.0135-83.8004C95.9135-84.1004 94.7135-83.7004 93.5135-82.9004L77.8135-71.4004C75.8135-69.9004 74.3135-68.4004 73.4135-66.6004C72.4135-64.9004 71.9135-62.7004 71.6135-60.2004L71.1135-54.4004Z"/>
  </g>
  <g id="Medium-M" transform="matrix(1 0 0 1 1672.21 1126)">
   <path d="M63.2205 12.16L85.5205 12.16C89.0205 12.16 91.7205 11.26 93.5205 9.46C95.3205 7.66 96.4205 4.86 96.8205 1.06L101.82-51.44C102.02-53.14 101.62-54.54 100.72-55.64C99.8205-56.64 98.5205-57.24 96.8205-57.24L51.9205-57.24C50.2205-57.24 49.0205-56.74 48.1205-55.64C47.2205-54.54 46.8205-53.24 47.0205-51.44L52.0205 1.06C52.3205 4.86 53.4205 7.66 55.2205 9.46C57.1205 11.26 59.7205 12.16 63.2205 12.16ZM63.6205 3.26C61.9205 3.26 60.9205 2.36 60.7205 0.56L56.1205-48.24L92.6205-48.24L88.0205 0.56C87.8205 2.36 86.8205 3.26 85.2205 3.26L63.6205 3.26ZM70.8205-54.34L78.6205-54.34L78.9205-59.34C79.1205-61.44 79.9205-63.14 81.4205-64.14L97.7205-75.84C98.8205-76.64 99.3205-77.54 99.4205-78.54C99.5205-79.54 99.2205-80.44 98.6205-81.34C98.0205-82.14 97.2205-82.74 96.2205-82.94C95.2205-83.14 94.1205-82.84 93.0205-82.04L77.3205-70.74C75.4205-69.34 73.9205-67.74 73.0205-66.04C72.1205-64.34 71.5205-62.24 71.3205-59.84L70.8205-54.34Z"/>
  </g>
  <g id="Regular-M" transform="matrix(1 0 0 1 1376.11 1126)">
   <path d="M62.4887 11.1608L85.0888 11.1608C88.2888 11.1608 90.7888 10.3608 92.4887 8.66083C94.1888 6.96083 95.1888 4.36083 95.4887 0.860825L100.589-52.2392C100.789-53.6392 100.489-54.7392 99.6888-55.5392C98.9887-56.3392 97.8888-56.7392 96.5888-56.7392L50.9887-56.7392C49.6888-56.7392 48.5888-56.3392 47.8888-55.4392C47.1888-54.5392 46.8888-53.5392 46.9887-52.1392L52.1888 0.860825C52.4887 4.36083 53.4887 6.96083 55.1888 8.66083C56.7888 10.3608 59.2888 11.1608 62.4887 11.1608ZM62.7888 3.56083C60.8888 3.56083 59.7888 2.56083 59.5888 0.560825L54.8888-49.1392L92.6888-49.1392L87.9887 0.560825C87.7888 2.56083 86.6888 3.56083 84.7888 3.56083L62.7888 3.56083ZM70.5888-54.3392L77.3888-54.3392L77.6888-58.9392C77.8888-61.2392 78.7888-62.9392 80.3888-64.1392L96.6888-75.8392C97.5888-76.5392 98.0888-77.2392 98.1888-78.1392C98.2888-79.0392 97.9887-79.8392 97.4887-80.5392C96.9887-81.2392 96.2888-81.7392 95.3888-81.9392C94.4887-82.1392 93.5888-81.8392 92.5888-81.1392L76.7888-69.8392C74.8888-68.4392 73.4887-66.9392 72.5888-65.3392C71.6888-63.7392 71.1888-61.7392 70.9887-59.3392L70.5888-54.3392Z"/>
  </g>
  <g id="Light-M" transform="matrix(1 0 0 1 1080.34 1126)">
   <path d="M61.7317 10.0626L84.0317 10.0626C87.0317 10.0626 89.3317 9.26265 90.8317 7.76265C92.4317 6.26265 93.3317 3.86265 93.6317 0.662646L98.7317-52.3374C98.8317-53.5374 98.6317-54.4374 98.0317-55.1374C97.4317-55.8374 96.5317-56.2374 95.3317-56.2374L50.3317-56.2374C49.2317-56.2374 48.3317-55.8374 47.7317-55.1374C47.1317-54.4374 46.8317-53.5374 47.0317-52.3374L52.1317 0.662646C52.4317 3.86265 53.3317 6.16265 54.9317 7.76265C56.4317 9.26265 58.7317 10.0626 61.7317 10.0626ZM61.9317 4.16265C59.4317 4.16265 58.1317 2.86265 57.8317 0.362646L53.0317-50.3374L92.6317-50.3374L87.9317 0.362646C87.6317 2.86265 86.3317 4.16265 83.9317 4.16265L61.9317 4.16265ZM70.3317-54.2374L75.7317-54.2374L76.0317-58.7374C76.2317-61.1374 77.2317-62.9374 79.0317-64.2374L95.3317-75.9374C96.0317-76.4374 96.4317-77.0374 96.5317-77.8374C96.5317-78.5374 96.4317-79.2374 95.9317-79.7374C95.5317-80.3374 94.9317-80.7374 94.2317-80.8374C93.5317-81.0374 92.7317-80.7374 91.9317-80.2374L76.3317-68.9374C74.5317-67.6374 73.1317-66.1374 72.3317-64.6374C71.5317-63.1374 71.0317-61.2374 70.8317-59.0374L70.3317-54.2374Z"/>
  </g>
  <g id="Thin-M" transform="matrix(1 0 0 1 784.797 1126)">
   <path d="M60.695 8.62548L82.695 8.62548C85.295 8.62548 87.395 7.92548 88.795 6.62548C90.195 5.22548 91.095 3.22548 91.295 0.525483L96.395-52.3745C96.495-53.2745 96.295-54.0745 95.895-54.5745C95.395-55.0745 94.795-55.3745 93.795-55.3745L49.595-55.3745C48.695-55.3745 47.995-55.0745 47.595-54.5745C47.095-54.0745 46.895-53.2745 46.995-52.3745L52.095 0.525483C52.395 3.22548 53.195 5.32548 54.595 6.62548C55.995 7.92548 58.095 8.62548 60.695 8.62548ZM60.795 5.02548C57.595 5.02548 55.895 3.42548 55.595 0.225483L50.695-51.7745L92.795-51.7745L87.895 0.225483C87.595 3.42548 85.895 5.02548 82.695 5.02548L60.795 5.02548ZM70.095-54.0745L73.695-54.0745L73.995-58.4745C74.195-60.8745 75.295-62.8745 77.395-64.3745L93.695-76.1745C94.195-76.4745 94.395-76.9745 94.395-77.3745C94.395-77.8745 94.295-78.2745 93.995-78.6745C93.695-79.0745 93.295-79.3745 92.795-79.4745C92.295-79.5745 91.795-79.3745 91.195-78.9745L75.595-67.5745C73.795-66.2745 72.595-64.9745 71.795-63.6745C71.095-62.3745 70.595-60.6745 70.395-58.5745L70.095-54.0745Z"/>
  </g>
  <g id="Ultralight-M" transform="matrix(1 0 0 1 488.685 1126)">
   <path d="M60.1955 7.82601L81.9955 7.82601C84.4955 7.82601 86.3955 7.22601 87.6955 5.92601C89.0955 4.72601 89.8955 2.82601 90.0955 0.326013L95.1955-52.474C95.2955-53.274 95.0955-53.874 94.7955-54.374C94.3955-54.774 93.7955-55.074 92.9955-55.074L49.1955-55.074C48.3955-55.074 47.8955-54.874 47.4955-54.374C47.0955-53.974 46.8955-53.274 46.9955-52.474L52.0955 0.326013C52.3955 2.82601 53.1955 4.72601 54.4955 5.92601C55.8955 7.22601 57.7955 7.82601 60.1955 7.82601ZM60.1955 5.42601C56.5955 5.42601 54.6955 3.62601 54.3955 0.126013L49.4955-52.474L92.7955-52.474L87.8955 0.126013C87.5955 3.72601 85.5955 5.42601 82.0955 5.42601L60.1955 5.42601ZM70.0955-53.974L72.7955-53.974L73.0955-58.274C73.2955-60.774 74.3955-62.774 76.5955-64.474L92.8955-76.274C93.1955-76.574 93.3955-76.874 93.3955-77.174C93.3955-77.574 93.2955-77.874 93.0955-78.174C92.8955-78.474 92.5955-78.674 92.1955-78.774C91.7955-78.874 91.3955-78.674 90.8955-78.374L75.3955-66.974C73.6955-65.774 72.3955-64.474 71.7955-63.174C71.0955-61.874 70.6955-60.274 70.4955-58.374L70.0955-53.974Z"/>
  </g>
  <g id="Black-S" transform="matrix(1 0 0 1 2862.42 696)">
   <path d="M62.9455 5.71098L79.1455 5.71098C82.9455 5.71098 85.8455 4.71098 87.7455 2.81098C89.7455 0.910984 90.9455-2.08902 91.3455-6.18902L95.0455-44.789C95.3455-47.589 94.7455-49.789 93.3455-51.489C91.9455-53.189 89.9455-53.989 87.3455-53.989L54.7455-53.989C52.1455-53.989 50.1455-53.189 48.7455-51.489C47.3455-49.789 46.7455-47.589 47.0455-44.789L50.7455-6.18902C51.1455-2.08902 52.3455 0.910984 54.3455 2.81098C56.2455 4.71098 59.1455 5.71098 62.9455 5.71098ZM63.7455-6.18902C63.1455-6.18902 62.7455-6.58902 62.6455-7.28902L59.3455-41.889L82.7455-41.889L79.4455-7.38902C79.3455-6.58902 78.9455-6.18902 78.3455-6.18902L63.7455-6.18902ZM67.0455-50.089L77.1455-50.089L77.5455-55.589C77.6455-56.689 78.0455-57.589 78.6455-57.989L91.5455-67.189C92.9455-68.189 93.6455-69.289 93.7455-70.589C93.8455-71.889 93.5455-73.089 92.7455-74.189C91.9455-75.289 90.9455-75.989 89.6455-76.289C88.3455-76.589 86.9455-76.289 85.5455-75.289L73.2455-66.389C71.4455-65.089 70.1455-63.689 69.2455-62.089C68.3455-60.489 67.8455-58.589 67.6455-56.289L67.0455-50.089Z"/>
  </g>
  <g id="Heavy-S" transform="matrix(1 0 0 1 2566.35 696)">
   <path d="M62.1129 4.71098L78.7129 4.71098C82.2129 4.71098 84.9129 3.81098 86.7129 2.01098C88.5129 0.210984 89.6129-2.58902 90.0129-6.38902L93.8129-45.689C94.0129-48.089 93.5129-49.989 92.3129-51.489C91.1129-52.889 89.3129-53.689 87.1129-53.689L53.7129-53.689C51.5129-53.689 49.7129-52.989 48.5129-51.489C47.3129-49.989 46.8129-48.089 47.0129-45.689L50.8129-6.38902C51.2129-2.58902 52.3129 0.210984 54.1129 2.01098C55.9129 3.81098 58.6129 4.71098 62.1129 4.71098ZM62.7129-5.98902C61.9129-5.98902 61.5129-6.38902 61.4129-7.28902L58.0129-42.789L82.7129-42.789L79.3129-7.28902C79.2129-6.38902 78.8129-5.98902 78.0129-5.98902L62.7129-5.98902ZM66.7129-50.189L75.8129-50.189L76.2129-55.189C76.3129-56.489 76.7129-57.389 77.5129-57.989L90.3129-67.189C91.5129-68.089 92.2129-69.089 92.3129-70.289C92.4129-71.489 92.1129-72.589 91.4129-73.489C90.7129-74.389 89.8129-75.089 88.6129-75.389C87.4129-75.689 86.2129-75.389 84.9129-74.389L72.6129-65.489C70.9129-64.289 69.6129-62.889 68.8129-61.389C68.0129-59.889 67.4129-57.989 67.3129-55.789L66.7129-50.189Z"/>
  </g>
  <g id="Bold-S" transform="matrix(1 0 0 1 2270.38 696)">
   <path d="M61.12 3.67087L78.12 3.67087C81.32 3.67087 83.82 2.87087 85.42 1.17087C87.12-0.52913 88.12-3.02913 88.42-6.52913L92.32-46.6291C92.52-48.6291 92.12-50.2291 91.12-51.3291C90.12-52.5291 88.62-53.1291 86.82-53.1291L52.52-53.1291C50.62-53.1291 49.22-52.5291 48.22-51.3291C47.22-50.1291 46.82-48.5291 47.02-46.6291L50.92-6.52913C51.22-3.02913 52.22-0.42913 53.92 1.17087C55.52 2.87087 57.92 3.67087 61.12 3.67087ZM61.72-5.72913C60.82-5.72913 60.32-6.22913 60.12-7.22913L56.62-43.7291L82.72-43.7291L79.22-7.22913C79.12-6.22913 78.52-5.72913 77.62-5.72913L61.72-5.72913ZM66.32-50.2291L74.32-50.2291L74.62-54.7291C74.72-56.1291 75.22-57.2291 76.22-57.9291L89.02-67.1291C90.12-67.9291 90.72-68.8291 90.72-69.8291C90.82-70.8291 90.52-71.8291 89.92-72.7291C89.32-73.6291 88.52-74.1291 87.42-74.3291C86.42-74.5291 85.32-74.3291 84.12-73.4291L71.82-64.5291C70.22-63.3291 69.02-62.0291 68.22-60.5291C67.42-59.0291 66.92-57.3291 66.72-55.2291L66.32-50.2291Z"/>
  </g>
  <g id="Semibold-S" transform="matrix(1 0 0 1 1974.08 696)">
   <path d="M60.5884 2.97214L77.8884 2.97214C80.8884 2.97214 83.1884 2.17214 84.7884 0.572136C86.3884-1.02786 87.2884-3.42786 87.5884-6.72786L91.4884-47.4279C91.6884-49.1279 91.2884-50.4279 90.3884-51.5279C89.4884-52.5279 88.2884-53.0279 86.6884-53.0279L51.7884-53.0279C50.1884-53.0279 48.9884-52.5279 48.0884-51.5279C47.1884-50.5279 46.8884-49.1279 46.9884-47.5279L50.8884-6.82786C51.1884-3.52786 52.0884-1.12786 53.6884 0.472136C55.2884 2.17214 57.5884 2.97214 60.5884 2.97214ZM61.0884-5.52786C60.0884-5.52786 59.4884-6.12786 59.3884-7.22786L55.7884-44.5279L82.7884-44.5279L79.2884-7.22786C79.1884-6.12786 78.5884-5.52786 77.5884-5.52786L61.0884-5.52786ZM66.0884-50.2279L73.3884-50.2279L73.6884-54.4279C73.7884-56.0279 74.3884-57.1279 75.3884-57.8279L88.1884-67.0279C89.1884-67.7279 89.6884-68.5279 89.7884-69.5279C89.8884-70.5279 89.5884-71.3279 89.0884-72.1279C88.4884-72.9279 87.7884-73.4279 86.7884-73.6279C85.8884-73.8279 84.8884-73.6279 83.7884-72.8279L71.4884-63.9279C69.8884-62.7279 68.6884-61.5279 67.9884-60.1279C67.1884-58.7279 66.6884-57.0279 66.5884-54.9279L66.0884-50.2279Z"/>
  </g>
  <g id="Medium-S" transform="matrix(1 0 0 1 1677.75 696)">
   <path d="M60.03 2.37351L77.53 2.37351C80.43 2.37351 82.53 1.67351 84.03 0.173506C85.53-1.32649 86.43-3.62649 86.73-6.72649L90.73-47.8265C90.93-49.3265 90.53-50.4265 89.83-51.3265C89.03-52.2265 87.93-52.6265 86.53-52.6265L51.13-52.6265C49.73-52.6265 48.63-52.1265 47.93-51.2265C47.13-50.3265 46.83-49.1265 47.03-47.7265L51.03-6.62649C51.33-3.52649 52.23-1.22649 53.63 0.273506C55.03 1.67351 57.13 2.37351 60.03 2.37351ZM60.43-5.32649C59.33-5.32649 58.63-5.92649 58.53-7.12649L54.93-44.9265L82.73-44.9265L79.13-7.12649C78.93-5.92649 78.33-5.32649 77.23-5.32649L60.43-5.32649ZM65.73-50.2265L72.43-50.2265L72.73-54.1265C72.83-55.7265 73.43-57.0265 74.53-57.7265L87.33-66.9265C88.23-67.6265 88.73-68.3265 88.83-69.2265C88.93-70.1265 88.63-70.9265 88.13-71.6265C87.63-72.3265 86.93-72.8265 86.03-73.0265C85.13-73.2265 84.23-73.0265 83.23-72.3265L70.93-63.4265C69.43-62.3265 68.23-61.0265 67.43-59.6265C66.63-58.2265 66.23-56.5265 66.03-54.5265L65.73-50.2265Z"/>
  </g>
  <g id="Regular-S" transform="matrix(1 0 0 1 1381.5 696)">
   <path d="M59.5317 1.67351L77.3317 1.67351C80.0317 1.67351 82.0317 0.973506 83.3317-0.426494C84.7317-1.82649 85.5317-3.92649 85.8317-6.82649L89.8317-48.5265C89.9317-49.7265 89.7317-50.6265 89.0317-51.3265C88.4317-52.0265 87.5317-52.4265 86.3317-52.4265L50.3317-52.4265C49.2317-52.4265 48.3317-52.0265 47.7317-51.3265C47.1317-50.6265 46.8317-49.6265 47.0317-48.5265L51.0317-6.82649C51.3317-3.92649 52.1317-1.82649 53.4317-0.426494C54.8317 0.973506 56.8317 1.67351 59.5317 1.67351ZM59.8317-5.22649C58.6317-5.22649 57.9317-5.92649 57.7317-7.22649L54.0317-45.7265L82.8317-45.7265L79.1317-7.12649C78.9317-5.82649 78.3317-5.12649 77.0317-5.12649L59.8317-5.12649ZM65.6317-50.3265L71.6317-50.3265L71.8317-53.9265C71.9317-55.7265 72.6317-57.0265 73.8317-57.8265L86.6317-67.0265C87.4317-67.6265 87.8317-68.3265 87.9317-69.1265C87.9317-69.9265 87.7317-70.6265 87.3317-71.2265C86.8317-71.8265 86.2317-72.2265 85.4317-72.4265C84.6317-72.6265 83.8317-72.4265 82.9317-71.7265L70.6317-62.8265C69.1317-61.7265 68.0317-60.5265 67.3317-59.2265C66.6317-57.9265 66.1317-56.2265 66.0317-54.3265L65.6317-50.3265Z"/>
  </g>
  <g id="Light-S" transform="matrix(1 0 0 1 1085.56 696)">
   <path d="M58.795 0.675L76.395 0.675C78.795 0.675 80.695 0.075 81.995-1.225C83.295-2.525 83.995-4.425 84.295-7.025L88.295-48.625C88.395-49.625 88.195-50.425 87.695-51.025C87.195-51.625 86.395-51.925 85.395-51.925L49.795-51.925C48.795-51.925 48.095-51.625 47.595-51.025C47.095-50.425 46.895-49.625 46.995-48.625L50.995-7.025C51.195-4.425 51.995-2.525 53.295-1.225C54.495-0.025 56.295 0.675 58.795 0.675ZM58.995-4.625C57.295-4.625 56.295-5.525 56.195-7.225L52.495-46.625L82.795-46.625L78.995-7.325C78.795-5.525 77.895-4.725 76.195-4.725L58.995-4.725ZM65.295-50.225L70.095-50.225L70.295-53.725C70.395-55.525 71.195-56.925 72.495-57.925L85.395-67.125C85.995-67.625 86.395-68.125 86.395-68.725C86.395-69.325 86.295-69.925 85.895-70.425C85.495-70.925 84.995-71.225 84.395-71.425C83.795-71.625 83.095-71.425 82.395-70.825L70.095-61.925C68.595-60.825 67.595-59.725 66.895-58.525C66.195-57.325 65.795-55.825 65.695-54.025L65.295-50.225Z"/>
  </g>
  <g id="Thin-S" transform="matrix(1 0 0 1 789.897 696)">
   <path d="M57.9955-0.5L75.2955-0.5C77.3955-0.5 79.0955-1 80.1955-2.1C81.3955-3.2 81.9955-4.9 82.1955-7.1L86.1955-48.6C86.2955-49.4 86.0955-50 85.6955-50.4C85.2955-50.8 84.6955-51.1 83.9955-51.1L49.1955-51.1C48.4955-51.1 47.8955-50.9 47.4955-50.4C47.0955-49.9 46.8955-49.3 46.9955-48.6L50.9955-7.1C51.1955-4.9 51.8955-3.2 52.9955-2.1C54.1955-1.1 55.8955-0.5 57.9955-0.5ZM58.0955-3.8C55.6955-3.8 54.3955-5 54.1955-7.4L50.3955-47.9L82.8955-47.9L79.0955-7.4C78.8955-5 77.5955-3.8 75.2955-3.8L58.0955-3.8ZM65.1955-50L68.3955-50L68.5955-53.4C68.6955-55.3 69.5955-56.8 71.1955-58L83.9955-67.2C84.3955-67.5 84.5955-67.9 84.6955-68.3C84.6955-68.7 84.5955-69.1 84.3955-69.5C84.1955-69.9 83.7955-70.1 83.3955-70.2C82.8955-70.2 82.3955-70 81.8955-69.7L69.5955-60.8C68.1955-59.8 67.1955-58.7 66.5955-57.7C65.9955-56.6 65.5955-55.3 65.4955-53.6L65.1955-50Z"/>
  </g>
  <g id="Ultralight-S" transform="matrix(1 0 0 1 493.785 696)">
   <path d="M57.396-1.2734L74.496-1.2734C76.496-1.2734 77.996-1.7734 79.096-2.7734C80.196-3.7734 80.796-5.2734 80.996-7.2734L84.996-48.6734C85.096-49.3734 84.896-49.8734 84.596-50.1734C84.296-50.5734 83.796-50.7734 83.096-50.7734L48.796-50.7734C48.196-50.7734 47.696-50.5734 47.396-50.1734C47.096-49.7734 46.896-49.2734 46.996-48.6734L50.996-7.2734C51.196-5.2734 51.796-3.7734 52.896-2.7734C53.896-1.7734 55.496-1.2734 57.396-1.2734ZM57.496-3.4734C54.796-3.4734 53.296-4.7734 53.096-7.4734L49.296-48.5734L82.896-48.5734L78.996-7.5734C78.696-4.8734 77.296-3.5734 74.596-3.5734L57.496-3.5734ZM64.996-49.9734L67.396-49.9734L67.596-53.3734C67.696-55.2734 68.596-56.8734 70.296-58.1734L83.096-67.3734C83.396-67.5734 83.596-67.8734 83.596-68.1734C83.596-68.4734 83.496-68.7734 83.396-69.0734C83.196-69.3734 82.996-69.4734 82.596-69.5734C82.296-69.6734 81.896-69.4734 81.496-69.2734L69.196-60.3734C67.796-59.3734 66.896-58.3734 66.296-57.3734C65.696-56.3734 65.396-55.0734 65.296-53.5734L64.996-49.9734Z"/>
  </g>
 </g>
</svg>
