<?xml version="1.0" encoding="UTF-8"?>
<!--Generator: Apple Native CoreSVG 175-->
<!DOCTYPE svg
PUBLIC "-//W3C//DTD SVG 1.1//EN"
       "http://www.w3.org/Graphics/SVG/1.1/DTD/svg11.dtd">
<svg version="1.1" xmlns="http://www.w3.org/2000/svg" xmlns:xlink="http://www.w3.org/1999/xlink" width="3300" height="2200">
 <!--glyph: "", point size: 100.0, font version: "17.0d12e1", template writer version: "65.1"-->
 <style>.multicolor-0:tertiaryLabelColor {fill:#BDBDBD;opacity:1.0}
.multicolor-1:labelColor {fill:#212121;opacity:1.0;-sfsymbols-clear-behind:true}

.hierarchical-0:secondary {fill:#4D4D4D}
.hierarchical-1:primary {fill:#212121;-sfsymbols-clear-behind:true}

.SFSymbolsPreview212121 {fill:#212121;opacity:1.0}
.SFSymbolsPreviewBDBDBD {fill:#BDBDBD;opacity:1.0}
</style>
 <g id="Notes">
  <rect height="2200" id="artboard" style="fill:white;opacity:1" width="3300" x="0" y="0"/>
  <line style="fill:none;stroke:black;opacity:1;stroke-width:0.5;" x1="263" x2="3036" y1="292" y2="292"/>
  <text style="stroke:none;fill:black;font-family:sans-serif;font-size:13;font-weight:bold;" transform="matrix(1 0 0 1 263 322)">Weight/Scale Variations</text>
  <text style="stroke:none;fill:black;font-family:sans-serif;font-size:13;text-anchor:middle;" transform="matrix(1 0 0 1 559.711 322)">Ultralight</text>
  <text style="stroke:none;fill:black;font-family:sans-serif;font-size:13;text-anchor:middle;" transform="matrix(1 0 0 1 856.422 322)">Thin</text>
  <text style="stroke:none;fill:black;font-family:sans-serif;font-size:13;text-anchor:middle;" transform="matrix(1 0 0 1 1153.13 322)">Light</text>
  <text style="stroke:none;fill:black;font-family:sans-serif;font-size:13;text-anchor:middle;" transform="matrix(1 0 0 1 1449.84 322)">Regular</text>
  <text style="stroke:none;fill:black;font-family:sans-serif;font-size:13;text-anchor:middle;" transform="matrix(1 0 0 1 1746.56 322)">Medium</text>
  <text style="stroke:none;fill:black;font-family:sans-serif;font-size:13;text-anchor:middle;" transform="matrix(1 0 0 1 2043.27 322)">Semibold</text>
  <text style="stroke:none;fill:black;font-family:sans-serif;font-size:13;text-anchor:middle;" transform="matrix(1 0 0 1 2339.98 322)">Bold</text>
  <text style="stroke:none;fill:black;font-family:sans-serif;font-size:13;text-anchor:middle;" transform="matrix(1 0 0 1 2636.69 322)">Heavy</text>
  <text style="stroke:none;fill:black;font-family:sans-serif;font-size:13;text-anchor:middle;" transform="matrix(1 0 0 1 2933.4 322)">Black</text>
  <line style="fill:none;stroke:black;opacity:1;stroke-width:0.5;" x1="263" x2="3036" y1="1903" y2="1903"/>
  <g transform="matrix(1 0 0 1 263 1933)">
   <path d="M9.24805 0.830078Q10.8691 0.830078 12.2949 0.214844Q13.7207-0.400391 14.8096-1.49414Q15.8984-2.58789 16.5186-4.01367Q17.1387-5.43945 17.1387-7.05078Q17.1387-8.66211 16.5186-10.0879Q15.8984-11.5137 14.8047-12.6074Q13.7109-13.7012 12.2852-14.3164Q10.8594-14.9316 9.23828-14.9316Q7.62695-14.9316 6.20117-14.3164Q4.77539-13.7012 3.69141-12.6074Q2.60742-11.5137 1.9873-10.0879Q1.36719-8.66211 1.36719-7.05078Q1.36719-5.43945 1.9873-4.01367Q2.60742-2.58789 3.69629-1.49414Q4.78516-0.400391 6.21094 0.214844Q7.63672 0.830078 9.24805 0.830078ZM9.24805-0.654297Q7.91992-0.654297 6.7627-1.14746Q5.60547-1.64062 4.73145-2.51953Q3.85742-3.39844 3.36426-4.56055Q2.87109-5.72266 2.87109-7.05078Q2.87109-8.37891 3.35938-9.54102Q3.84766-10.7031 4.72168-11.582Q5.5957-12.4609 6.75293-12.9541Q7.91016-13.4473 9.23828-13.4473Q10.5762-13.4473 11.7334-12.9541Q12.8906-12.4609 13.7695-11.582Q14.6484-10.7031 15.1465-9.54102Q15.6445-8.37891 15.6445-7.05078Q15.6445-5.72266 15.1514-4.56055Q14.6582-3.39844 13.7842-2.51953Q12.9102-1.64062 11.748-1.14746Q10.5859-0.654297 9.24805-0.654297ZM5.6543-7.05078Q5.6543-6.72852 5.85938-6.52832Q6.06445-6.32812 6.40625-6.32812L8.51562-6.32812L8.51562-4.20898Q8.51562-3.88672 8.71094-3.67676Q8.90625-3.4668 9.23828-3.4668Q9.56055-3.4668 9.77051-3.67676Q9.98047-3.88672 9.98047-4.20898L9.98047-6.32812L12.0898-6.32812Q12.4219-6.32812 12.627-6.52832Q12.832-6.72852 12.832-7.05078Q12.832-7.38281 12.627-7.58789Q12.4219-7.79297 12.0898-7.79297L9.98047-7.79297L9.98047-9.90234Q9.98047-10.2344 9.77051-10.4443Q9.56055-10.6543 9.23828-10.6543Q8.90625-10.6543 8.71094-10.4443Q8.51562-10.2344 8.51562-9.90234L8.51562-7.79297L6.40625-7.79297Q6.06445-7.79297 5.85938-7.58789Q5.6543-7.38281 5.6543-7.05078Z"/>
  </g>
  <g transform="matrix(1 0 0 1 281.867 1933)">
   <path d="M11.709 2.91016Q13.75 2.91016 15.5518 2.12891Q17.3535 1.34766 18.7305-0.0292969Q20.1074-1.40625 20.8887-3.20801Q21.6699-5.00977 21.6699-7.05078Q21.6699-9.0918 20.8887-10.8936Q20.1074-12.6953 18.7305-14.0723Q17.3535-15.4492 15.5469-16.2305Q13.7402-17.0117 11.6992-17.0117Q9.6582-17.0117 7.85645-16.2305Q6.05469-15.4492 4.68262-14.0723Q3.31055-12.6953 2.5293-10.8936Q1.74805-9.0918 1.74805-7.05078Q1.74805-5.00977 2.5293-3.20801Q3.31055-1.40625 4.6875-0.0292969Q6.06445 1.34766 7.86621 2.12891Q9.66797 2.91016 11.709 2.91016ZM11.709 1.25Q9.98047 1.25 8.47656 0.605469Q6.97266-0.0390625 5.83496-1.17676Q4.69727-2.31445 4.05762-3.81836Q3.41797-5.32227 3.41797-7.05078Q3.41797-8.7793 4.05762-10.2832Q4.69727-11.7871 5.83008-12.9297Q6.96289-14.0723 8.4668-14.7119Q9.9707-15.3516 11.6992-15.3516Q13.4277-15.3516 14.9316-14.7119Q16.4355-14.0723 17.5781-12.9297Q18.7207-11.7871 19.3652-10.2832Q20.0098-8.7793 20.0098-7.05078Q20.0098-5.32227 19.3701-3.81836Q18.7305-2.31445 17.5928-1.17676Q16.4551-0.0390625 14.9463 0.605469Q13.4375 1.25 11.709 1.25ZM7.17773-7.05078Q7.17773-6.69922 7.41211-6.47461Q7.64648-6.25 8.01758-6.25L10.8887-6.25L10.8887-3.36914Q10.8887-2.99805 11.1133-2.76855Q11.3379-2.53906 11.6895-2.53906Q12.0605-2.53906 12.29-2.76855Q12.5195-2.99805 12.5195-3.36914L12.5195-6.25L15.4004-6.25Q15.7715-6.25 16.001-6.47461Q16.2305-6.69922 16.2305-7.05078Q16.2305-7.42188 16.001-7.65137Q15.7715-7.88086 15.4004-7.88086L12.5195-7.88086L12.5195-10.752Q12.5195-11.1328 12.29-11.3623Q12.0605-11.5918 11.6895-11.5918Q11.3379-11.5918 11.1133-11.3574Q10.8887-11.123 10.8887-10.752L10.8887-7.88086L8.01758-7.88086Q7.63672-7.88086 7.40723-7.65137Q7.17773-7.42188 7.17773-7.05078Z"/>
  </g>
  <g transform="matrix(1 0 0 1 305.646 1933)">
   <path d="M14.9707 5.66406Q17.0605 5.66406 18.96 5.01465Q20.8594 4.36523 22.4512 3.19336Q24.043 2.02148 25.2197 0.429688Q26.3965-1.16211 27.0459-3.06641Q27.6953-4.9707 27.6953-7.05078Q27.6953-9.14062 27.0459-11.04Q26.3965-12.9395 25.2197-14.5312Q24.043-16.123 22.4512-17.2998Q20.8594-18.4766 18.9551-19.126Q17.0508-19.7754 14.9609-19.7754Q12.8711-19.7754 10.9717-19.126Q9.07227-18.4766 7.48535-17.2998Q5.89844-16.123 4.72168-14.5312Q3.54492-12.9395 2.90039-11.04Q2.25586-9.14062 2.25586-7.05078Q2.25586-4.9707 2.90527-3.06641Q3.55469-1.16211 4.72656 0.429688Q5.89844 2.02148 7.49023 3.19336Q9.08203 4.36523 10.9814 5.01465Q12.8809 5.66406 14.9707 5.66406ZM14.9707 3.84766Q13.1641 3.84766 11.5283 3.2959Q9.89258 2.74414 8.53516 1.74805Q7.17773 0.751953 6.17676-0.610352Q5.17578-1.97266 4.62891-3.6084Q4.08203-5.24414 4.08203-7.05078Q4.08203-8.86719 4.62891-10.5029Q5.17578-12.1387 6.17188-13.501Q7.16797-14.8633 8.52539-15.8594Q9.88281-16.8555 11.5186-17.4023Q13.1543-17.9492 14.9609-17.9492Q16.7773-17.9492 18.4131-17.4023Q20.0488-16.8555 21.4111-15.8594Q22.7734-14.8633 23.7695-13.501Q24.7656-12.1387 25.3174-10.5029Q25.8691-8.86719 25.8691-7.05078Q25.8789-5.24414 25.332-3.6084Q24.7852-1.97266 23.7842-0.610352Q22.7832 0.751953 21.4209 1.74805Q20.0586 2.74414 18.4229 3.2959Q16.7871 3.84766 14.9707 3.84766ZM9.19922-7.05078Q9.19922-6.66992 9.45801-6.4209Q9.7168-6.17188 10.1172-6.17188L14.0625-6.17188L14.0625-2.2168Q14.0625-1.81641 14.3115-1.55762Q14.5605-1.29883 14.9512-1.29883Q15.3516-1.29883 15.6104-1.55273Q15.8691-1.80664 15.8691-2.2168L15.8691-6.17188L19.8242-6.17188Q20.2246-6.17188 20.4785-6.4209Q20.7324-6.66992 20.7324-7.05078Q20.7324-7.46094 20.4785-7.71484Q20.2246-7.96875 19.8242-7.96875L15.8691-7.96875L15.8691-11.9141Q15.8691-12.3242 15.6104-12.583Q15.3516-12.8418 14.9512-12.8418Q14.5605-12.8418 14.3115-12.583Q14.0625-12.3242 14.0625-11.9141L14.0625-7.96875L10.1172-7.96875Q9.70703-7.96875 9.45312-7.71484Q9.19922-7.46094 9.19922-7.05078Z"/>
  </g>
  <text style="stroke:none;fill:black;font-family:sans-serif;font-size:13;font-weight:bold;" transform="matrix(1 0 0 1 263 1953)">Design Variations</text>
  <text style="stroke:none;fill:black;font-family:sans-serif;font-size:13;" transform="matrix(1 0 0 1 263 1971)">Symbols are supported in up to nine weights and three scales.</text>
  <text style="stroke:none;fill:black;font-family:sans-serif;font-size:13;" transform="matrix(1 0 0 1 263 1989)">For optimal layout with text and other symbols, vertically align</text>
  <text style="stroke:none;fill:black;font-family:sans-serif;font-size:13;" transform="matrix(1 0 0 1 263 2007)">symbols with the adjacent text.</text>
  <line style="fill:none;stroke:#00AEEF;stroke-width:0.5;opacity:1.0;" x1="776" x2="776" y1="1919" y2="1933"/>
  <g transform="matrix(1 0 0 1 776 1933)">
   <path d="M3.31055 0.15625Q3.70117 0.15625 3.91602-0.00976562Q4.13086-0.175781 4.26758-0.585938L5.52734-4.0332L11.2891-4.0332L12.5488-0.585938Q12.6855-0.175781 12.9004-0.00976562Q13.1152 0.15625 13.4961 0.15625Q13.8867 0.15625 14.1162-0.0585938Q14.3457-0.273438 14.3457-0.644531Q14.3457-0.869141 14.2383-1.17188L9.6582-13.3691Q9.48242-13.8184 9.17969-14.043Q8.87695-14.2676 8.4082-14.2676Q7.5-14.2676 7.17773-13.3789L2.59766-1.16211Q2.49023-0.859375 2.49023-0.634766Q2.49023-0.263672 2.70996-0.0537109Q2.92969 0.15625 3.31055 0.15625ZM6.00586-5.51758L8.37891-12.0898L8.42773-12.0898L10.8008-5.51758Z"/>
  </g>
  <line style="fill:none;stroke:#00AEEF;stroke-width:0.5;opacity:1.0;" x1="793.197" x2="793.197" y1="1919" y2="1933"/>
  <text style="stroke:none;fill:black;font-family:sans-serif;font-size:13;font-weight:bold;" transform="matrix(1 0 0 1 776 1953)">Margins</text>
  <text style="stroke:none;fill:black;font-family:sans-serif;font-size:13;" transform="matrix(1 0 0 1 776 1971)">Leading and trailing margins on the left and right side of each symbol</text>
  <text style="stroke:none;fill:black;font-family:sans-serif;font-size:13;" transform="matrix(1 0 0 1 776 1989)">can be adjusted by modifying the x-location of the margin guidelines.</text>
  <text style="stroke:none;fill:black;font-family:sans-serif;font-size:13;" transform="matrix(1 0 0 1 776 2007)">Modifications are automatically applied proportionally to all</text>
  <text style="stroke:none;fill:black;font-family:sans-serif;font-size:13;" transform="matrix(1 0 0 1 776 2025)">scales and weights.</text>
  <g transform="matrix(1 0 0 1 1289 1933)">
   <path d="M2.8418 1.86523L4.54102 3.57422Q5.18555 4.22852 5.90332 4.17969Q6.62109 4.13086 7.31445 3.35938L18.0078-8.42773L17.041-9.4043L6.42578 2.27539Q6.16211 2.57812 5.89355 2.61719Q5.625 2.65625 5.27344 2.30469L4.10156 1.14258Q3.75 0.791016 3.79395 0.522461Q3.83789 0.253906 4.14062-0.0195312L15.6152-10.8203L14.6387-11.7871L3.04688-0.898438Q2.30469-0.214844 2.25098 0.498047Q2.19727 1.21094 2.8418 1.86523ZM9.25781-16.3281Q8.94531-16.0254 8.90625-15.6348Q8.86719-15.2441 9.04297-14.9512Q9.21875-14.6777 9.55566-14.541Q9.89258-14.4043 10.3809-14.5215Q11.4746-14.7754 12.5977-14.7314Q13.7207-14.6875 14.7949-13.9844L14.209-12.5293Q13.9551-11.9043 14.0674-11.4404Q14.1797-10.9766 14.5801-10.5664L16.875-8.25195Q17.2363-7.88086 17.5781-7.82227Q17.9199-7.76367 18.3398-7.8418L19.4043-8.03711L20.0684-7.36328L20.0293-6.80664Q20-6.43555 20.1221-6.12305Q20.2441-5.81055 20.6055-5.44922L21.3672-4.70703Q21.7285-4.3457 22.1533-4.33105Q22.5781-4.31641 22.9297-4.66797L25.8398-7.58789Q26.1914-7.93945 26.1816-8.35449Q26.1719-8.76953 25.8105-9.13086L25.0391-9.89258Q24.6875-10.2539 24.3799-10.3857Q24.0723-10.5176 23.7109-10.4883L23.1348-10.4395L22.4902-11.0742L22.7344-12.1973Q22.832-12.6172 22.6953-12.9834Q22.5586-13.3496 22.1191-13.7891L19.9219-15.9766Q18.6719-17.2168 17.2607-17.8369Q15.8496-18.457 14.4189-18.4814Q12.9883-18.5059 11.665-17.959Q10.3418-17.4121 9.25781-16.3281ZM10.752-15.957Q11.6602-16.6211 12.7002-16.9043Q13.7402-17.1875 14.8047-17.085Q15.8691-16.9824 16.8701-16.5137Q17.8711-16.0449 18.7012-15.2051L21.1328-12.793Q21.3086-12.6172 21.3525-12.4512Q21.3965-12.2852 21.3379-12.0312L21.0156-10.5469L22.5195-9.0625L23.5059-9.12109Q23.6914-9.13086 23.7891-9.09668Q23.8867-9.0625 24.0332-8.91602L24.6094-8.33984L22.168-5.89844L21.5918-6.47461Q21.4453-6.62109 21.4062-6.71875Q21.3672-6.81641 21.377-7.01172L21.4453-7.98828L19.9512-9.47266L18.4277-9.21875Q18.1836-9.16992 18.042-9.2041Q17.9004-9.23828 17.7148-9.41406L15.7129-11.416Q15.5176-11.5918 15.4932-11.7529Q15.4688-11.9141 15.5859-12.1875L16.4648-14.2773Q15.293-15.3711 13.8281-15.791Q12.3633-16.2109 10.8398-15.7617Q10.7227-15.7324 10.6885-15.8057Q10.6543-15.8789 10.752-15.957Z"/>
  </g>
  <text style="stroke:none;fill:black;font-family:sans-serif;font-size:13;font-weight:bold;" transform="matrix(1 0 0 1 1289 1953)">Exporting</text>
  <text style="stroke:none;fill:black;font-family:sans-serif;font-size:13;" transform="matrix(1 0 0 1 1289 1971)">Symbols should be outlined when exporting to ensure the</text>
  <text style="stroke:none;fill:black;font-family:sans-serif;font-size:13;" transform="matrix(1 0 0 1 1289 1989)">design is preserved when submitting to Xcode.</text>
  <text id="template-version" style="stroke:none;fill:black;font-family:sans-serif;font-size:13;text-anchor:end;" transform="matrix(1 0 0 1 3036 1933)">Template v.3.0</text>
  <text style="stroke:none;fill:black;font-family:sans-serif;font-size:13;text-anchor:end;" transform="matrix(1 0 0 1 3036 1951)">Requires Xcode 13 or greater</text>
  <text id="descriptive-name" style="stroke:none;fill:black;font-family:sans-serif;font-size:13;text-anchor:end;" transform="matrix(1 0 0 1 3036 1969)">Generated from custom.drink.fill</text>
  <text style="stroke:none;fill:black;font-family:sans-serif;font-size:13;text-anchor:end;" transform="matrix(1 0 0 1 3036 1987)">Typeset at 100 points</text>
  <text style="stroke:none;fill:black;font-family:sans-serif;font-size:13;" transform="matrix(1 0 0 1 263 726)">Small</text>
  <text style="stroke:none;fill:black;font-family:sans-serif;font-size:13;" transform="matrix(1 0 0 1 263 1156)">Medium</text>
  <text style="stroke:none;fill:black;font-family:sans-serif;font-size:13;" transform="matrix(1 0 0 1 263 1586)">Large</text>
 </g>
 <g id="Guides">
  <g id="H-reference" style="fill:#27AAE1;stroke:none;" transform="matrix(1 0 0 1 339 696)">
   <path d="M0.993347 0L3.6377 0L29.3282-67.1326L30.0301-67.1326L30.0301-70.459L28.1227-70.459ZM11.6882-24.4797L46.9818-24.4797L46.2311-26.7288L12.4382-26.7288ZM55.1193 0L57.7637 0L30.6381-70.459L29.4327-70.459L29.4327-67.1326Z"/>
  </g>
  <line id="Baseline-S" style="fill:none;stroke:#27AAE1;opacity:1;stroke-width:0.5;" x1="263" x2="3036" y1="696" y2="696"/>
  <line id="Capline-S" style="fill:none;stroke:#27AAE1;opacity:1;stroke-width:0.5;" x1="263" x2="3036" y1="625.541" y2="625.541"/>
  <g id="H-reference" style="fill:#27AAE1;stroke:none;" transform="matrix(1 0 0 1 339 1126)">
   <path d="M0.993347 0L3.6377 0L29.3282-67.1326L30.0301-67.1326L30.0301-70.459L28.1227-70.459ZM11.6882-24.4797L46.9818-24.4797L46.2311-26.7288L12.4382-26.7288ZM55.1193 0L57.7637 0L30.6381-70.459L29.4327-70.459L29.4327-67.1326Z"/>
  </g>
  <line id="Baseline-M" style="fill:none;stroke:#27AAE1;opacity:1;stroke-width:0.5;" x1="263" x2="3036" y1="1126" y2="1126"/>
  <line id="Capline-M" style="fill:none;stroke:#27AAE1;opacity:1;stroke-width:0.5;" x1="263" x2="3036" y1="1055.54" y2="1055.54"/>
  <g id="H-reference" style="fill:#27AAE1;stroke:none;" transform="matrix(1 0 0 1 339 1556)">
   <path d="M0.993347 0L3.6377 0L29.3282-67.1326L30.0301-67.1326L30.0301-70.459L28.1227-70.459ZM11.6882-24.4797L46.9818-24.4797L46.2311-26.7288L12.4382-26.7288ZM55.1193 0L57.7637 0L30.6381-70.459L29.4327-70.459L29.4327-67.1326Z"/>
  </g>
  <line id="Baseline-L" style="fill:none;stroke:#27AAE1;opacity:1;stroke-width:0.5;" x1="263" x2="3036" y1="1556" y2="1556"/>
  <line id="Capline-L" style="fill:none;stroke:#27AAE1;opacity:1;stroke-width:0.5;" x1="263" x2="3036" y1="1485.54" y2="1485.54"/>
  <line id="left-margin-Regular-M" style="fill:none;stroke:#00AEEF;stroke-width:0.5;opacity:1.0;" x1="1375.98" x2="1375.98" y1="1030.73" y2="1150.14"/>
  <line id="right-margin-Regular-M" style="fill:none;stroke:#00AEEF;stroke-width:0.5;opacity:1.0;" x1="1523.71" x2="1523.71" y1="1030.73" y2="1150.14"/>
 </g>
 <g id="Symbols">
  <g id="Black-L" transform="matrix(1 0 0 1 2847.85 1556)">
   <path class="multicolor-0:tertiaryLabelColor hierarchical-0:secondary SFSymbolsPreviewBDBDBD" d="M79.49-59.6892L94.29-59.6892L94.89-67.8892C94.99-69.0892 95.19-69.9892 95.49-70.6892C95.79-71.3892 96.29-71.9892 97.09-72.5892L118.19-87.5892C119.79-88.7892 120.79-90.0892 121.19-91.5892C121.59-93.0892 121.49-94.5892 120.99-95.9892C120.49-97.3892 119.59-98.5892 118.39-99.5892C117.19-100.589 115.79-101.089 114.19-101.189C112.59-101.289 110.99-100.689 109.29-99.4892L88.99-84.8892C86.19-82.8892 84.09-80.5892 82.69-78.0892C81.29-75.5892 80.49-72.4892 80.19-68.9892L79.49-59.6892Z"/>
   <path class="multicolor-1:labelColor hierarchical-1:primary SFSymbolsPreview212121" d="M71.79 30.6108L99.19 30.6108C104.89 30.6108 109.29 29.1108 112.29 26.2108C115.29 23.3108 117.09 18.7108 117.69 12.5108L123.89-52.3892C124.29-56.1892 123.49-59.2892 121.49-61.6892C119.49-63.9892 116.69-65.1892 113.09-65.1892L57.89-65.1892C54.29-65.1892 51.49-63.9892 49.49-61.6892C47.49-59.3892 46.69-56.2892 47.09-52.3892L53.29 12.5108C53.89 18.7108 55.69 23.3108 58.69 26.2108C61.69 29.1108 65.99 30.6108 71.79 30.6108Z"/>
  </g>
  <g id="Heavy-L" transform="matrix(1 0 0 1 2552.17 1556)">
   <path class="multicolor-0:tertiaryLabelColor hierarchical-0:secondary SFSymbolsPreviewBDBDBD" d="M79.0575-59.6875L92.1575-59.6875L92.6575-67.2875C92.7575-68.5875 92.9575-69.5875 93.3575-70.3875C93.7575-71.1875 94.3575-71.8875 95.2575-72.4875L116.357-87.5875C117.757-88.5875 118.657-89.7875 118.958-91.0875C119.257-92.3875 119.257-93.6875 118.757-94.9875C118.257-96.2875 117.558-97.2875 116.458-98.1875C115.357-98.9875 114.157-99.4875 112.757-99.5875C111.357-99.6875 109.958-99.1875 108.458-98.0875L88.1575-83.4875C85.4575-81.5875 83.4575-79.3875 82.1575-76.9875C80.8575-74.5875 80.0575-71.6875 79.7575-68.2875L79.0575-59.6875Z"/>
   <path class="multicolor-1:labelColor hierarchical-1:primary SFSymbolsPreview212121" d="M70.6575 29.0125L98.4575 29.0125C103.757 29.0125 107.757 27.6125 110.558 24.9125C113.357 22.2125 114.958 17.9125 115.558 12.2125L121.857-53.5875C122.157-56.8875 121.458-59.5875 119.757-61.5875C118.058-63.5875 115.657-64.5875 112.458-64.5875L56.4575-64.5875C53.3575-64.5875 50.8575-63.5875 49.1575-61.5875C47.4575-59.5875 46.7575-56.8875 47.0575-53.5875L53.3575 12.2125C53.9575 17.9125 55.5575 22.2125 58.3575 24.9125C61.2575 27.6125 65.3575 29.0125 70.6575 29.0125Z"/>
  </g>
  <g id="Bold-L" transform="matrix(1 0 0 1 2256.75 1556)">
   <path class="multicolor-0:tertiaryLabelColor hierarchical-0:secondary SFSymbolsPreviewBDBDBD" d="M78.3655-59.6874L89.5655-59.6874L90.0655-66.6874C90.1655-68.0874 90.4655-69.2874 90.8655-70.0874C91.2655-70.9874 92.0655-71.7874 93.0655-72.4874L114.165-87.5874C115.365-88.4874 116.165-89.4874 116.465-90.5874C116.765-91.6874 116.665-92.7874 116.265-93.8874C115.865-94.9874 115.165-95.8874 114.265-96.5874C113.365-97.2874 112.265-97.6874 111.065-97.7874C109.865-97.8874 108.565-97.3874 107.365-96.4874L87.0655-81.8874C84.4655-79.9874 82.5655-77.9874 81.2655-75.6874C80.0655-73.3874 79.2655-70.6874 78.9655-67.3874L78.3655-59.6874Z"/>
   <path class="multicolor-1:labelColor hierarchical-1:primary SFSymbolsPreview212121" d="M69.0655 27.2126L97.2655 27.2126C102.065 27.2126 105.765 25.9126 108.265 23.4126C110.765 20.9126 112.265 17.0126 112.865 11.8126L119.265-54.8874C119.565-57.5874 118.965-59.7874 117.565-61.4874C116.165-63.1874 114.165-63.9874 111.565-63.9874L54.7655-63.9874C52.1655-63.9874 50.1655-63.1874 48.7655-61.4874C47.3655-59.7874 46.7655-57.6874 47.0655-54.9874L53.4655 11.7126C53.9655 16.9126 55.4655 20.8126 58.0655 23.3126C60.5655 25.9126 64.2655 27.2126 69.0655 27.2126Z"/>
  </g>
  <g id="Semibold-L" transform="matrix(1 0 0 1 1960.82 1556)">
   <path class="multicolor-0:tertiaryLabelColor hierarchical-0:secondary SFSymbolsPreviewBDBDBD" d="M78.0329-59.785L87.9329-59.785L88.4329-66.385C88.5329-67.885 88.8329-69.085 89.3329-69.985C89.8329-70.885 90.6329-71.785 91.7329-72.585L112.833-87.685C113.933-88.485 114.533-89.385 114.833-90.385C115.133-91.385 115.033-92.385 114.733-93.285C114.433-94.185 113.833-95.085 112.933-95.685C112.133-96.285 111.133-96.685 110.133-96.685C109.033-96.785 107.933-96.385 106.833-95.485L86.5329-80.885C84.0329-79.085 82.1329-77.085 80.9329-74.885C79.7329-72.685 79.0329-70.085 78.7329-66.885L78.0329-59.785Z"/>
   <path class="multicolor-1:labelColor hierarchical-1:primary SFSymbolsPreview212121" d="M68.1329 26.015L96.6329 26.015C101.133 26.015 104.533 24.815 106.933 22.515C109.333 20.215 110.733 16.515 111.233 11.715L117.733-55.685C117.933-57.985 117.433-59.885 116.233-61.285C115.033-62.685 113.333-63.385 111.033-63.385L53.6329-63.385C51.4329-63.385 49.7329-62.685 48.5329-61.285C47.3329-59.885 46.8329-57.985 47.0329-55.785L53.5329 11.615C54.0329 16.515 55.4329 20.115 57.8329 22.415C60.1329 24.815 63.6329 26.015 68.1329 26.015Z"/>
  </g>
  <g id="Medium-L" transform="matrix(1 0 0 1 1664.81 1556)">
   <path class="multicolor-0:tertiaryLabelColor hierarchical-0:secondary SFSymbolsPreviewBDBDBD" d="M77.7395-59.7L86.6395-59.7L87.0395-66C87.1395-67.6 87.4395-68.8 88.0395-69.8C88.5395-70.8 89.4395-71.7 90.5395-72.5L111.64-87.6C112.64-88.3 113.24-89.1 113.44-90C113.64-90.9 113.64-91.8 113.34-92.6C113.04-93.5 112.44-94.2 111.74-94.8C111.04-95.4 110.14-95.7 109.14-95.7C108.14-95.7 107.14-95.4 106.14-94.6L85.8395-80C83.3395-78.2 81.5395-76.3 80.4395-74.2C79.3395-72.1 78.6395-69.5 78.3395-66.5L77.7395-59.7Z"/>
   <path class="multicolor-1:labelColor hierarchical-1:primary SFSymbolsPreview212121" d="M67.4395 25.1L96.1395 25.1C100.44 25.1 103.64 24 105.84 21.8C108.04 19.6 109.44 16.2 109.84 11.6L116.34-56.3C116.54-58.3 116.14-59.9 115.04-61.1C113.94-62.3 112.44-62.9 110.54-62.9L52.8395-62.9C50.9395-62.9 49.4395-62.3 48.3395-61.1C47.2395-59.9 46.8395-58.3 47.0395-56.3L53.5395 11.6C54.0395 16.2 55.3395 19.6 57.5395 21.8C59.8395 24 63.1395 25.1 67.4395 25.1Z"/>
  </g>
  <g id="Regular-L" transform="matrix(1 0 0 1 1368.89 1556)">
   <path class="multicolor-0:tertiaryLabelColor hierarchical-0:secondary SFSymbolsPreviewBDBDBD" d="M77.341-59.7L84.941-59.7L85.341-65.6C85.441-67.2 85.841-68.6 86.341-69.6C86.941-70.6 87.841-71.6 89.041-72.5L110.041-87.6C110.841-88.2 111.341-88.9 111.541-89.7C111.741-90.5 111.741-91.2 111.441-92C111.141-92.7 110.741-93.4 110.041-93.9C109.441-94.4 108.641-94.6 107.841-94.7C107.041-94.7 106.141-94.4 105.241-93.8L85.141-79C82.741-77.3 80.941-75.4 79.941-73.4C78.841-71.4 78.141-68.9 77.941-66L77.341-59.7Z"/>
   <path class="multicolor-1:labelColor hierarchical-1:primary SFSymbolsPreview212121" d="M66.441 23.9L95.441 23.9C99.341 23.9 102.341 22.9 104.441 20.8C106.541 18.7 107.741 15.6 108.141 11.4L114.741-57.2C114.941-58.8 114.541-60.1 113.741-61C112.941-62 111.641-62.4 110.041-62.4L51.641-62.4C50.041-62.4 48.841-61.9 48.041-60.9C47.241-59.9 46.841-58.7 47.041-57.1L53.641 11.5C54.041 15.7 55.341 18.9 57.341 20.9C59.441 22.8 62.441 23.9 66.441 23.9Z"/>
  </g>
  <g id="Light-L" transform="matrix(1 0 0 1 1073.21 1556)">
   <path class="multicolor-0:tertiaryLabelColor hierarchical-0:secondary SFSymbolsPreviewBDBDBD" d="M77.1087-59.6L83.2087-59.6L83.6087-65.3C83.7087-67 84.1087-68.4 84.7087-69.5C85.3088-70.6 86.3088-71.6 87.7087-72.6L108.809-87.8C109.409-88.3 109.809-88.9 110.009-89.5C110.209-90.1 110.109-90.7 109.909-91.3C109.709-91.9 109.309-92.4 108.809-92.8C108.309-93.2 107.709-93.4 107.009-93.4C106.309-93.4 105.609-93.2 104.909-92.6L84.5088-78C82.2087-76.3 80.5088-74.6 79.5088-72.7C78.5088-70.8 77.9087-68.5 77.6087-65.7L77.1087-59.6Z"/>
   <path class="multicolor-1:labelColor hierarchical-1:primary SFSymbolsPreview212121" d="M65.5088 22.6L94.2087 22.6C97.9087 22.6 100.709 21.6 102.609 19.7C104.609 17.8 105.709 14.9 106.109 11.1L112.709-57.4C112.809-58.8 112.509-59.9 111.809-60.7C111.109-61.5 110.009-61.9 108.709-61.9L51.0088-61.9C49.6087-61.9 48.6087-61.5 47.9087-60.7C47.2087-59.9 46.9087-58.8 47.0088-57.4L53.6087 11.1C54.0088 14.9 55.2087 17.8 57.1087 19.7C59.0088 21.7 61.9087 22.6 65.5088 22.6Z"/>
  </g>
  <g id="Thin-L" transform="matrix(1 0 0 1 777.798 1556)">
   <path class="multicolor-0:tertiaryLabelColor hierarchical-0:secondary SFSymbolsPreviewBDBDBD" d="M76.9146-59.5L80.9146-59.5L81.3146-65.1C81.4146-66.9 81.8146-68.4 82.5146-69.5C83.2146-70.6 84.3146-71.8 85.8146-72.9L106.915-88C107.315-88.3 107.615-88.7 107.715-89.1C107.815-89.5 107.815-89.9 107.615-90.4C107.515-90.8 107.215-91.1 106.815-91.4C106.415-91.7 106.015-91.8 105.515-91.8C105.015-91.8 104.515-91.6 104.015-91.2L83.8146-76.6C81.5146-75 79.9146-73.3 79.0146-71.6C78.1146-69.9 77.5146-67.8 77.3146-65.2L76.9146-59.5Z"/>
   <path class="multicolor-1:labelColor hierarchical-1:primary SFSymbolsPreview212121" d="M64.4146 21L92.7146 21C96.0146 21 98.5146 20.2 100.315 18.5C102.115 16.8 103.215 14.3 103.515 10.9L110.115-57.4C110.215-58.5 110.015-59.3 109.415-59.9C108.815-60.5 108.015-60.8 106.915-60.8L50.1146-60.8C49.0146-60.8 48.2146-60.5 47.7146-59.9C47.1146-59.3 46.9146-58.4 47.0146-57.4L53.6146 10.9C53.9146 14.2 55.0146 16.8 56.8146 18.5C58.6146 20.1 61.1146 21 64.4146 21Z"/>
  </g>
  <g id="Ultralight-L" transform="matrix(1 0 0 1 481.736 1556)">
   <path class="multicolor-0:tertiaryLabelColor hierarchical-0:secondary SFSymbolsPreviewBDBDBD" d="M76.715-59.4L79.715-59.4L80.115-64.9C80.215-66.7 80.615-68.2 81.315-69.4C82.015-70.6 83.215-71.7 84.815-72.9L105.915-88.1C106.215-88.4 106.415-88.6 106.515-89C106.615-89.3 106.615-89.6 106.415-90C106.315-90.3 106.115-90.6 105.815-90.8C105.515-91 105.215-91.1 104.815-91.1C104.415-91.1 104.015-90.9 103.615-90.6L83.515-75.9C81.315-74.3 79.715-72.7 78.915-71.1C78.115-69.5 77.515-67.5 77.315-65L76.715-59.4Z"/>
   <path class="multicolor-1:labelColor hierarchical-1:primary SFSymbolsPreview212121" d="M63.815 20.1L91.915 20.1C95.015 20.1 97.415 19.3 99.115 17.7C100.815 16.1 101.815 13.8 102.215 10.7L108.815-57.6C108.915-58.5 108.715-59.3 108.215-59.8C107.715-60.3 107.015-60.6 106.115-60.6L49.715-60.6C48.815-60.6 48.115-60.3 47.615-59.8C47.115-59.3 46.915-58.6 47.015-57.6L53.615 10.7C53.915 13.8 54.915 16.1 56.715 17.7C58.315 19.3 60.715 20.1 63.815 20.1Z"/>
  </g>
  <g id="Black-M" transform="matrix(1 0 0 1 2855.88 1126)">
   <path class="multicolor-0:tertiaryLabelColor hierarchical-0:secondary SFSymbolsPreviewBDBDBD" d="M72.5575-54.3515L85.0575-54.3515L85.5575-61.1515C85.6575-61.9515 85.7575-62.6515 85.9575-63.1515C86.1575-63.6515 86.5575-64.0515 87.0575-64.4515L103.358-76.0515C105.058-77.2515 105.958-78.6515 106.058-80.2515C106.157-81.8515 105.757-83.3515 104.757-84.6515C103.757-85.9515 102.558-86.8515 100.958-87.2515C99.3575-87.6515 97.6575-87.2515 95.9575-85.9515L80.2575-74.6515C78.0575-73.0515 76.3575-71.2515 75.2575-69.2515C74.1575-67.2515 73.4575-64.8515 73.1575-61.9515L72.5575-54.3515Z"/>
   <path class="multicolor-1:labelColor hierarchical-1:primary SFSymbolsPreview212121" d="M67.0575 16.5485L87.8575 16.5485C92.5575 16.5485 96.1575 15.3485 98.6575 12.9485C101.157 10.5485 102.558 6.74847 103.058 1.74847L107.858-47.8515C108.157-51.2515 107.458-53.9515 105.757-55.9515C104.058-58.0515 101.657-59.0515 98.4575-59.0515L56.4575-59.0515C53.3575-59.0515 50.8575-58.0515 49.1575-55.9515C47.4575-53.8515 46.7575-51.1515 47.0575-47.8515L51.8575 1.74847C52.3575 6.84847 53.8575 10.5485 56.2575 12.9485C58.7575 15.3485 62.3575 16.5485 67.0575 16.5485Z"/>
  </g>
  <g id="Heavy-M" transform="matrix(1 0 0 1 2559.96 1126)">
   <path class="multicolor-0:tertiaryLabelColor hierarchical-0:secondary SFSymbolsPreviewBDBDBD" d="M72.065-54.2904L83.265-54.2904L83.665-60.5904C83.765-61.4904 83.865-62.2904 84.165-62.7904C84.465-63.2904 84.865-63.7904 85.465-64.2904L101.765-75.8904C103.265-76.9904 104.065-78.1904 104.165-79.6904C104.265-81.1904 103.865-82.4904 103.065-83.5904C102.165-84.7904 101.065-85.4904 99.665-85.8904C98.265-86.1904 96.765-85.8904 95.165-84.7904L79.465-73.4904C77.365-71.8904 75.765-70.1904 74.665-68.2904C73.565-66.3904 72.965-64.0904 72.665-61.2904L72.065-54.2904Z"/>
   <path class="multicolor-1:labelColor hierarchical-1:primary SFSymbolsPreview212121" d="M65.965 15.3096L87.265 15.3096C91.665 15.3096 94.965 14.2096 97.265 11.9096C99.565 9.70956 100.865 6.20956 101.365 1.50956L106.265-48.8904C106.565-51.7904 105.965-54.0904 104.465-55.8904C102.965-57.6904 100.865-58.4904 98.165-58.4904L55.165-58.4904C52.465-58.4904 50.365-57.5904 48.865-55.8904C47.365-54.0904 46.765-51.7904 47.065-48.8904L51.965 1.50956C52.465 6.20956 53.765 9.70956 56.065 11.9096C58.265 14.2096 61.665 15.3096 65.965 15.3096Z"/>
  </g>
  <g id="Bold-M" transform="matrix(1 0 0 1 2264.33 1126)">
   <path class="multicolor-0:tertiaryLabelColor hierarchical-0:secondary SFSymbolsPreviewBDBDBD" d="M71.5329-54.389L81.1329-54.389L81.5329-60.089C81.6329-61.089 81.8329-61.989 82.1329-62.589C82.4329-63.189 82.9329-63.789 83.6329-64.289L99.9329-75.989C101.233-76.889 101.933-77.989 102.033-79.289C102.133-80.589 101.833-81.689 101.033-82.689C100.333-83.689 99.3329-84.389 98.0329-84.689C96.8329-84.989 95.4329-84.689 94.1329-83.689L78.5329-72.189C76.4329-70.689 74.9329-69.089 73.9329-67.189C72.9329-65.289 72.3329-63.189 72.0329-60.589L71.5329-54.389Z"/>
   <path class="multicolor-1:labelColor hierarchical-1:primary SFSymbolsPreview212121" d="M64.7329 13.911L86.4329 13.911C90.4329 13.911 93.4329 12.911 95.4329 10.811C97.5329 8.81098 98.7329 5.61098 99.1329 1.31098L104.133-50.089C104.333-52.489 103.833-54.389 102.633-55.789C101.433-57.189 99.6329-57.989 97.4329-57.989L53.7329-57.989C51.5329-57.989 49.8329-57.289 48.5329-55.789C47.3329-54.389 46.8329-52.489 47.0329-50.089L52.0329 1.31098C52.4329 5.61098 53.6329 8.81098 55.7329 10.811C57.7329 12.811 60.7329 13.911 64.7329 13.911Z"/>
  </g>
  <g id="Semibold-M" transform="matrix(1 0 0 1 1968.22 1126)">
   <path class="multicolor-0:tertiaryLabelColor hierarchical-0:secondary SFSymbolsPreviewBDBDBD" d="M71.2335-54.3875L79.8335-54.3875L80.2335-59.6875C80.3335-60.7875 80.5335-61.6875 80.8335-62.3875C81.1335-63.0875 81.7335-63.6875 82.5335-64.2875L98.8335-75.9875C100.033-76.7875 100.633-77.7875 100.733-78.8875C100.833-79.9875 100.533-80.9875 99.8335-81.9875C99.1335-82.8875 98.2335-83.4875 97.1335-83.7875C96.0335-84.0875 94.8335-83.7875 93.6335-82.8875L77.9335-71.3875C75.9335-69.8875 74.4335-68.3875 73.5335-66.5875C72.5335-64.8875 72.0335-62.6875 71.7335-60.1875L71.2335-54.3875Z"/>
   <path class="multicolor-1:labelColor hierarchical-1:primary SFSymbolsPreview212121" d="M64.0335 12.9125L86.0335 12.9125C89.7335 12.9125 92.5335 11.9125 94.4335 10.0125C96.3335 8.1125 97.5335 5.1125 97.9335 1.1125L102.933-50.8875C103.133-52.8875 102.733-54.4875 101.633-55.6875C100.633-56.8875 99.1335-57.4875 97.2335-57.4875L52.7335-57.4875C50.8335-57.4875 49.4335-56.8875 48.3335-55.6875C47.3335-54.4875 46.8335-52.8875 47.0335-50.8875L52.0335 1.1125C52.4335 5.1125 53.5335 8.1125 55.4335 10.0125C57.4335 11.9125 60.2335 12.9125 64.0335 12.9125Z"/>
  </g>
  <g id="Medium-M" transform="matrix(1 0 0 1 1672.01 1126)">
   <path class="multicolor-0:tertiaryLabelColor hierarchical-0:secondary SFSymbolsPreviewBDBDBD" d="M71.0405-54.3279L78.7405-54.3279L79.0405-59.3279C79.1405-60.5279 79.3405-61.4279 79.7405-62.1279C80.1405-62.8279 80.7405-63.5279 81.5405-64.1279L97.8405-75.8279C98.9405-76.6279 99.5405-77.4279 99.5405-78.5279C99.6405-79.5279 99.3405-80.5279 98.7405-81.3279C98.1405-82.1279 97.3405-82.7279 96.2405-82.9279C95.1405-83.1279 94.1405-82.9279 93.0405-82.1279L77.4405-70.6279C75.5405-69.2279 74.0405-67.6279 73.1405-66.0279C72.2405-64.3279 71.6405-62.2279 71.4405-59.7279L71.0405-54.3279Z"/>
   <path class="multicolor-1:labelColor hierarchical-1:primary SFSymbolsPreview212121" d="M63.3405 12.1721L85.6405 12.1721C89.1405 12.1721 91.7405 11.2721 93.5405 9.47214C95.3405 7.67214 96.4405 4.87214 96.8405 1.07214L101.94-51.4279C102.14-53.1279 101.74-54.5279 100.84-55.6279C99.9405-56.6279 98.6405-57.2279 96.9405-57.2279L51.9405-57.2279C50.3405-57.2279 49.0405-56.7279 48.1405-55.6279C47.2405-54.5279 46.8405-53.2279 47.0405-51.5279L52.1405 0.972136C52.5405 4.77214 53.5405 7.57214 55.3405 9.37214C57.1405 11.2721 59.8405 12.1721 63.3405 12.1721Z"/>
  </g>
  <g id="Regular-M" transform="matrix(1 0 0 1 1375.98 1126)">
   <path class="multicolor-0:tertiaryLabelColor hierarchical-0:secondary SFSymbolsPreviewBDBDBD" d="M70.7088-54.3279L77.4088-54.3279L77.7088-58.9279C77.8088-60.1279 78.0087-61.1279 78.5087-61.9279C78.9088-62.7279 79.6088-63.4279 80.5087-64.0279L96.8088-75.7279C97.7088-76.4279 98.2088-77.1279 98.3088-78.0279C98.4088-78.9279 98.1088-79.7279 97.6088-80.4279C97.1088-81.1279 96.3088-81.6279 95.5087-81.8279C94.6088-82.0279 93.7088-81.8279 92.7088-81.0279L76.9088-69.8279C75.0087-68.4279 73.6088-66.9279 72.7088-65.3279C71.8088-63.7279 71.3088-61.7279 71.0087-59.3279L70.7088-54.3279Z"/>
   <path class="multicolor-1:labelColor hierarchical-1:primary SFSymbolsPreview212121" d="M62.6088 11.1721L85.2088 11.1721C88.4088 11.1721 90.9088 10.3721 92.5087 8.67214C94.2088 6.97214 95.2088 4.37214 95.5087 0.872136L100.609-52.3279C100.709-53.7279 100.409-54.8279 99.7088-55.6279C99.0087-56.4279 97.9088-56.8279 96.6088-56.8279L51.0087-56.8279C49.7088-56.8279 48.7088-56.4279 47.9088-55.5279C47.2088-54.7279 46.9088-53.6279 47.0087-52.2279L52.2088 0.872136C52.5087 4.37214 53.5087 6.97214 55.2088 8.67214C56.8088 10.3721 59.3088 11.1721 62.6088 11.1721Z"/>
  </g>
  <g id="Light-M" transform="matrix(1 0 0 1 1080.16 1126)">
   <path class="multicolor-0:tertiaryLabelColor hierarchical-0:secondary SFSymbolsPreviewBDBDBD" d="M70.509-54.225L75.909-54.225L76.209-58.725C76.309-60.025 76.609-61.125 77.009-61.925C77.509-62.725 78.209-63.525 79.209-64.225L95.509-75.925C96.309-76.425 96.709-77.025 96.709-77.825C96.809-78.525 96.609-79.225 96.109-79.725C95.709-80.325 95.109-80.625 94.409-80.825C93.709-81.025 92.909-80.825 92.109-80.225L76.409-68.925C74.609-67.625 73.209-66.225 72.409-64.725C71.609-63.225 71.109-61.325 70.909-59.125L70.509-54.225Z"/>
   <path class="multicolor-1:labelColor hierarchical-1:primary SFSymbolsPreview212121" d="M61.809 10.075L84.209 10.075C87.209 10.075 89.409 9.275 91.009 7.775C92.509 6.175 93.409 3.875 93.709 0.675L98.809-52.425C98.909-53.625 98.609-54.525 98.009-55.225C97.409-55.925 96.509-56.225 95.409-56.225L50.409-56.225C49.309-56.225 48.409-55.825 47.809-55.125C47.209-54.425 46.909-53.525 47.009-52.325L52.109 0.775C52.509 3.875 53.409 6.175 55.009 7.775C56.509 9.275 58.809 10.075 61.809 10.075Z"/>
  </g>
  <g id="Thin-M" transform="matrix(1 0 0 1 784.597 1126)">
   <path class="multicolor-0:tertiaryLabelColor hierarchical-0:secondary SFSymbolsPreviewBDBDBD" d="M70.315-54.0652L73.915-54.0652L74.215-58.3652C74.315-59.7652 74.615-60.8652 75.115-61.7652C75.615-62.6652 76.415-63.4652 77.615-64.2652L93.915-76.0652C94.415-76.3652 94.715-76.8652 94.715-77.3652C94.715-77.8652 94.615-78.2652 94.315-78.6652C94.015-79.0652 93.615-79.2652 93.115-79.3652C92.615-79.4652 92.115-79.3652 91.515-78.8652L75.715-67.6652C73.915-66.3652 72.715-65.0652 72.015-63.7652C71.315-62.3652 70.815-60.7652 70.615-58.6652L70.315-54.0652Z"/>
   <path class="multicolor-1:labelColor hierarchical-1:primary SFSymbolsPreview212121" d="M60.815 8.63485L82.815 8.63485C85.415 8.63485 87.515 7.93485 88.915 6.63485C90.315 5.33485 91.215 3.23485 91.415 0.534847L96.515-52.4652C96.615-53.3652 96.415-54.0652 95.915-54.5652C95.415-55.0652 94.815-55.3652 93.915-55.3652L49.715-55.3652C48.815-55.3652 48.115-55.0652 47.615-54.5652C47.115-54.0652 46.915-53.3652 47.015-52.4652L52.115 0.534847C52.415 3.23485 53.215 5.33485 54.615 6.63485C56.115 7.93485 58.215 8.63485 60.815 8.63485Z"/>
  </g>
  <g id="Ultralight-M" transform="matrix(1 0 0 1 488.511 1126)">
   <path class="multicolor-0:tertiaryLabelColor hierarchical-0:secondary SFSymbolsPreviewBDBDBD" d="M70.19-54.0639L72.89-54.0639L73.19-58.3639C73.29-59.7639 73.59-60.9639 74.19-61.8639C74.69-62.7639 75.59-63.6639 76.79-64.4639L93.09-76.2639C93.49-76.5639 93.69-76.8639 93.69-77.2639C93.69-77.6639 93.59-77.9639 93.39-78.2639C93.19-78.5639 92.89-78.7639 92.49-78.8639C92.09-78.9639 91.69-78.8639 91.19-78.4639L75.49-67.0639C73.79-65.8639 72.59-64.5639 71.89-63.2639C71.19-61.9639 70.79-60.3639 70.59-58.4639L70.19-54.0639Z"/>
   <path class="multicolor-1:labelColor hierarchical-1:primary SFSymbolsPreview212121" d="M60.29 7.83607L82.09 7.83607C84.59 7.83607 86.49 7.23607 87.79 5.93607C89.19 4.63607 89.99 2.83607 90.19 0.336068L95.29-52.5639C95.29-53.3639 95.19-53.9639 94.79-54.3639C94.39-54.7639 93.89-55.0639 93.09-55.0639L49.29-55.0639C48.49-55.0639 47.89-54.8639 47.49-54.3639C47.09-53.9639 46.99-53.3639 46.99-52.5639L52.09 0.336068C52.29 2.83607 53.09 4.73607 54.49 5.93607C55.89 7.13607 57.89 7.83607 60.29 7.83607Z"/>
  </g>
  <g id="Black-S" transform="matrix(1 0 0 1 2862.27 696)">
   <path class="multicolor-0:tertiaryLabelColor hierarchical-0:secondary SFSymbolsPreviewBDBDBD" d="M67.0655-50.189L77.1655-50.189L77.5655-55.689C77.6655-56.789 78.0655-57.689 78.6655-58.089L91.5655-67.189C92.9655-68.189 93.6655-69.289 93.7655-70.589C93.8655-71.889 93.5655-73.089 92.7655-74.189C91.9655-75.289 90.9655-75.989 89.6655-76.289C88.3655-76.589 86.9655-76.289 85.5655-75.289L73.2655-66.389C71.4655-65.089 70.1655-63.689 69.2655-62.089C68.3655-60.489 67.8655-58.589 67.6655-56.289L67.0655-50.189Z"/>
   <path class="multicolor-1:labelColor hierarchical-1:primary SFSymbolsPreview212121" d="M62.9655 5.71098L79.1655 5.71098C82.9655 5.71098 85.8655 4.71098 87.7655 2.81098C89.7655 0.910984 90.9655-2.08902 91.3655-6.18902L95.0655-44.789C95.3655-47.589 94.7655-49.789 93.3655-51.489C91.9655-53.189 89.9655-53.989 87.3655-53.989L54.7655-53.989C52.1655-53.989 50.1655-53.189 48.7655-51.489C47.3655-49.789 46.7655-47.589 47.0655-44.789L50.7655-6.18902C51.1655-2.08902 52.3655 0.910984 54.3655 2.81098C56.2655 4.71098 59.1655 5.71098 62.9655 5.71098Z"/>
  </g>
  <g id="Heavy-S" transform="matrix(1 0 0 1 2566.2 696)">
   <path class="multicolor-0:tertiaryLabelColor hierarchical-0:secondary SFSymbolsPreviewBDBDBD" d="M66.7329-50.189L75.8329-50.189L76.2329-55.189C76.3329-56.489 76.7329-57.389 77.5329-57.989L90.3329-67.189C91.5329-68.089 92.2329-69.089 92.3329-70.289C92.4329-71.489 92.1329-72.589 91.4329-73.489C90.7329-74.489 89.8329-75.089 88.6329-75.389C87.4329-75.689 86.2329-75.389 84.9329-74.389L72.6329-65.489C70.9329-64.289 69.6329-62.889 68.8329-61.389C68.0329-59.889 67.4329-57.989 67.3329-55.789L66.7329-50.189Z"/>
   <path class="multicolor-1:labelColor hierarchical-1:primary SFSymbolsPreview212121" d="M62.1329 4.71098L78.7329 4.71098C82.2329 4.71098 84.9329 3.81098 86.7329 2.01098C88.5329 0.210984 89.6329-2.58902 90.0329-6.38902L93.8329-45.689C94.0329-48.089 93.5329-49.989 92.3329-51.489C91.1329-52.889 89.3329-53.689 87.1329-53.689L53.7329-53.689C51.5329-53.689 49.7329-52.989 48.5329-51.489C47.3329-49.989 46.8329-48.089 47.0329-45.689L50.8329-6.38902C51.2329-2.58902 52.3329 0.210984 54.1329 2.01098C55.9329 3.81098 58.6329 4.71098 62.1329 4.71098Z"/>
  </g>
  <g id="Bold-S" transform="matrix(1 0 0 1 2270.23 696)">
   <path class="multicolor-0:tertiaryLabelColor hierarchical-0:secondary SFSymbolsPreviewBDBDBD" d="M66.24-50.2291L74.24-50.2291L74.54-54.7291C74.64-56.1291 75.14-57.2291 76.14-57.9291L88.94-67.1291C90.04-67.9291 90.64-68.8291 90.64-69.8291C90.74-70.8291 90.44-71.8291 89.84-72.7291C89.24-73.6291 88.44-74.1291 87.34-74.3291C86.34-74.5291 85.24-74.3291 84.04-73.4291L71.74-64.5291C70.14-63.3291 68.94-62.0291 68.14-60.5291C67.34-59.0291 66.84-57.3291 66.64-55.2291L66.24-50.2291Z"/>
   <path class="multicolor-1:labelColor hierarchical-1:primary SFSymbolsPreview212121" d="M61.14 3.67087L78.14 3.67087C81.34 3.67087 83.84 2.87087 85.44 1.17087C87.14-0.52913 88.14-3.02913 88.44-6.52913L92.34-46.6291C92.54-48.6291 92.14-50.2291 91.14-51.3291C90.14-52.5291 88.64-53.1291 86.84-53.1291L52.54-53.1291C50.64-53.1291 49.24-52.5291 48.24-51.3291C47.24-50.1291 46.84-48.5291 47.04-46.6291L50.94-6.52913C51.24-3.02913 52.24-0.42913 53.94 1.17087C55.54 2.87087 57.94 3.67087 61.14 3.67087Z"/>
  </g>
  <g id="Semibold-S" transform="matrix(1 0 0 1 1973.93 696)">
   <path class="multicolor-0:tertiaryLabelColor hierarchical-0:secondary SFSymbolsPreviewBDBDBD" d="M66.1084-50.2279L73.4084-50.2279L73.7084-54.4279C73.8084-56.0279 74.4084-57.1279 75.4084-57.8279L88.2084-67.0279C89.2084-67.7279 89.7084-68.5279 89.8084-69.5279C89.9084-70.5279 89.6084-71.3279 89.1084-72.1279C88.5084-72.9279 87.8084-73.4279 86.8084-73.6279C85.9084-73.8279 84.9084-73.6279 83.8084-72.8279L71.5084-63.9279C69.9084-62.7279 68.7084-61.5279 68.0084-60.1279C67.2084-58.7279 66.7084-57.0279 66.6084-54.9279L66.1084-50.2279Z"/>
   <path class="multicolor-1:labelColor hierarchical-1:primary SFSymbolsPreview212121" d="M60.6084 2.97214L77.9084 2.97214C80.9084 2.97214 83.2084 2.17214 84.8084 0.572136C86.4084-1.02786 87.3084-3.42786 87.6084-6.72786L91.5084-47.4279C91.7084-49.1279 91.3084-50.4279 90.4084-51.5279C89.5084-52.5279 88.3084-53.0279 86.7084-53.0279L51.8084-53.0279C50.2084-53.0279 49.0084-52.5279 48.1084-51.5279C47.2084-50.5279 46.9084-49.1279 47.0084-47.5279L50.9084-6.82786C51.2084-3.52786 52.1084-1.12786 53.7084 0.472136C55.3084 2.17214 57.6084 2.97214 60.6084 2.97214Z"/>
  </g>
  <g id="Medium-S" transform="matrix(1 0 0 1 1677.6 696)">
   <path class="multicolor-0:tertiaryLabelColor hierarchical-0:secondary SFSymbolsPreviewBDBDBD" d="M65.75-50.2265L72.45-50.2265L72.75-54.1265C72.85-55.7265 73.45-57.0265 74.55-57.7265L87.35-66.9265C88.25-67.6265 88.75-68.3265 88.85-69.2265C88.95-70.1265 88.65-70.9265 88.15-71.6265C87.65-72.3265 86.95-72.8265 86.05-73.0265C85.15-73.2265 84.25-73.0265 83.25-72.3265L70.95-63.4265C69.45-62.3265 68.25-61.0265 67.45-59.6265C66.65-58.2265 66.25-56.5265 66.05-54.5265L65.75-50.2265Z"/>
   <path class="multicolor-1:labelColor hierarchical-1:primary SFSymbolsPreview212121" d="M60.05 2.37351L77.55 2.37351C80.45 2.37351 82.55 1.67351 84.05 0.173506C85.55-1.32649 86.45-3.62649 86.75-6.72649L90.75-47.8265C90.95-49.3265 90.55-50.4265 89.85-51.3265C89.05-52.2265 87.95-52.6265 86.55-52.6265L51.15-52.6265C49.75-52.6265 48.65-52.1265 47.95-51.2265C47.15-50.3265 46.85-49.1265 47.05-47.7265L51.05-6.62649C51.35-3.52649 52.25-1.22649 53.65 0.273506C55.05 1.67351 57.15 2.37351 60.05 2.37351Z"/>
  </g>
  <g id="Regular-S" transform="matrix(1 0 0 1 1381.35 696)">
   <path class="multicolor-0:tertiaryLabelColor hierarchical-0:secondary SFSymbolsPreviewBDBDBD" d="M65.6517-50.3265L71.6517-50.3265L71.8517-53.9265C71.9517-55.7265 72.6517-57.0265 73.8517-57.8265L86.6517-67.0265C87.4517-67.6265 87.8517-68.3265 87.9517-69.1265C87.9517-69.9265 87.7517-70.6265 87.3517-71.2265C86.8517-71.8265 86.2517-72.2265 85.4517-72.4265C84.6517-72.6265 83.8517-72.4265 82.9517-71.7265L70.6517-62.8265C69.1517-61.7265 68.0517-60.5265 67.3517-59.2265C66.6517-57.9265 66.1517-56.2265 66.0517-54.3265L65.6517-50.3265Z"/>
   <path class="multicolor-1:labelColor hierarchical-1:primary SFSymbolsPreview212121" d="M59.5517 1.67351L77.3517 1.67351C80.0517 1.67351 82.0517 0.973506 83.3517-0.426494C84.7517-1.82649 85.5517-3.92649 85.8517-6.82649L89.8517-48.5265C89.9517-49.7265 89.7517-50.6265 89.0517-51.3265C88.4517-52.0265 87.5517-52.4265 86.3517-52.4265L50.3517-52.4265C49.2517-52.4265 48.3517-52.0265 47.7517-51.3265C47.1517-50.6265 46.8517-49.6265 47.0517-48.5265L51.0517-6.82649C51.3517-3.92649 52.1517-1.82649 53.4517-0.426494C54.8517 0.973506 56.8517 1.67351 59.5517 1.67351Z"/>
  </g>
  <g id="Light-S" transform="matrix(1 0 0 1 1085.41 696)">
   <path class="multicolor-0:tertiaryLabelColor hierarchical-0:secondary SFSymbolsPreviewBDBDBD" d="M65.315-50.1662L70.115-50.1662L70.315-53.6662C70.415-55.4662 71.215-56.8662 72.515-57.8662L85.415-67.0662C86.015-67.5662 86.415-68.0662 86.415-68.6662C86.415-69.2662 86.315-69.8662 85.915-70.3662C85.515-70.8662 85.015-71.1662 84.415-71.3662C83.815-71.4662 83.115-71.3662 82.415-70.7662L70.115-61.8662C68.615-60.7662 67.615-59.6662 66.915-58.4662C66.215-57.2662 65.815-55.7662 65.715-53.9662L65.315-50.1662Z"/>
   <path class="multicolor-1:labelColor hierarchical-1:primary SFSymbolsPreview212121" d="M58.815 0.733784L76.415 0.733784C78.815 0.733784 80.715 0.133784 82.015-1.16622C83.315-2.46622 84.015-4.36622 84.315-6.96622L88.315-48.5662C88.415-49.5662 88.215-50.3662 87.715-50.9662C87.215-51.5662 86.415-51.8662 85.415-51.8662L49.815-51.8662C48.815-51.8662 48.115-51.5662 47.615-50.9662C47.115-50.3662 46.915-49.5662 47.015-48.5662L51.015-6.96622C51.215-4.36622 52.015-2.46622 53.315-1.16622C54.515 0.0337835 56.315 0.733784 58.815 0.733784Z"/>
  </g>
  <g id="Thin-S" transform="matrix(1 0 0 1 789.747 696)">
   <path class="multicolor-0:tertiaryLabelColor hierarchical-0:secondary SFSymbolsPreviewBDBDBD" d="M65.2155-50L68.4155-50L68.6155-53.4C68.7155-55.3 69.6155-56.8 71.2155-58L84.0155-67.2C84.4155-67.5 84.6155-67.9 84.7155-68.3C84.7155-68.7 84.6155-69.1 84.4155-69.5C84.2155-69.9 83.8155-70.1 83.4155-70.2C82.9155-70.2 82.4155-70 81.9155-69.7L69.6155-60.8C68.2155-59.8 67.2155-58.7 66.6155-57.7C66.0155-56.6 65.6155-55.3 65.5155-53.6L65.2155-50Z"/>
   <path class="multicolor-1:labelColor hierarchical-1:primary SFSymbolsPreview212121" d="M58.0155-0.5L75.3155-0.5C77.4155-0.5 79.1155-1 80.2155-2.1C81.4155-3.2 82.0155-4.9 82.2155-7.1L86.2155-48.6C86.3155-49.4 86.1155-50 85.7155-50.4C85.3155-50.8 84.7155-51.1 84.0155-51.1L49.2155-51.1C48.5155-51.1 47.9155-50.9 47.5155-50.4C47.1155-49.9 46.9155-49.3 47.0155-48.6L51.0155-7.1C51.2155-4.9 51.9155-3.2 53.0155-2.1C54.1155-1 55.9155-0.5 58.0155-0.5Z"/>
  </g>
  <g id="Ultralight-S" transform="matrix(1 0 0 1 493.635 696)">
   <path class="multicolor-0:tertiaryLabelColor hierarchical-0:secondary SFSymbolsPreviewBDBDBD" d="M65.016-49.9734L67.416-49.9734L67.616-53.3734C67.716-55.2734 68.616-56.8734 70.316-58.1734L83.116-67.3734C83.416-67.5734 83.616-67.8734 83.616-68.1734C83.616-68.4734 83.516-68.7734 83.416-69.0734C83.216-69.3734 83.016-69.4734 82.616-69.5734C82.316-69.6734 81.916-69.4734 81.516-69.2734L69.216-60.3734C67.816-59.3734 66.916-58.3734 66.316-57.3734C65.716-56.3734 65.416-55.0734 65.316-53.5734L65.016-49.9734Z"/>
   <path class="multicolor-1:labelColor hierarchical-1:primary SFSymbolsPreview212121" d="M57.416-1.2734L74.516-1.2734C76.516-1.2734 78.016-1.7734 79.116-2.7734C80.216-3.7734 80.816-5.2734 81.016-7.2734L85.016-48.6734C85.116-49.3734 84.916-49.8734 84.616-50.1734C84.316-50.5734 83.816-50.7734 83.116-50.7734L48.816-50.7734C48.216-50.7734 47.716-50.5734 47.416-50.1734C47.116-49.7734 46.916-49.2734 47.016-48.6734L51.016-7.2734C51.216-5.2734 51.816-3.7734 52.916-2.7734C53.916-1.7734 55.516-1.2734 57.416-1.2734Z"/>
  </g>
 </g>
</svg>
