<?xml version="1.0" encoding="UTF-8"?>
<!--Generator: Apple Native CoreSVG 175-->
<!DOCTYPE svg
PUBLIC "-//W3C//DTD SVG 1.1//EN"
       "http://www.w3.org/Graphics/SVG/1.1/DTD/svg11.dtd">
<svg version="1.1" xmlns="http://www.w3.org/2000/svg" xmlns:xlink="http://www.w3.org/1999/xlink" width="3300" height="2200">
 <!--glyph: "", point size: 100.0, font version: "17.1d1e1", template writer version: "65.1"-->
 <style>.hierarchical-0:secondary {fill:#4D4D4D}
.hierarchical-1:tertiary {fill:#8E8E8E}
.hierarchical-2:primary {fill:#212121}

.SFSymbolsPreview212121 {fill:#212121;opacity:1.0}
.SFSymbolsPreview4D4D4D {fill:#4D4D4D;opacity:1.0}
.SFSymbolsPreview8E8E8E {fill:#8E8E8E;opacity:1.0}
</style>
 <g id="Notes">
  <rect height="2200" id="artboard" style="fill:white;opacity:1" width="3300" x="0" y="0"/>
  <line style="fill:none;stroke:black;opacity:1;stroke-width:0.5;" x1="263" x2="3036" y1="292" y2="292"/>
  <text style="stroke:none;fill:black;font-family:sans-serif;font-size:13;font-weight:bold;" transform="matrix(1 0 0 1 263 322)">Weight/Scale Variations</text>
  <text style="stroke:none;fill:black;font-family:sans-serif;font-size:13;text-anchor:middle;" transform="matrix(1 0 0 1 559.711 322)">Ultralight</text>
  <text style="stroke:none;fill:black;font-family:sans-serif;font-size:13;text-anchor:middle;" transform="matrix(1 0 0 1 856.422 322)">Thin</text>
  <text style="stroke:none;fill:black;font-family:sans-serif;font-size:13;text-anchor:middle;" transform="matrix(1 0 0 1 1153.13 322)">Light</text>
  <text style="stroke:none;fill:black;font-family:sans-serif;font-size:13;text-anchor:middle;" transform="matrix(1 0 0 1 1449.84 322)">Regular</text>
  <text style="stroke:none;fill:black;font-family:sans-serif;font-size:13;text-anchor:middle;" transform="matrix(1 0 0 1 1746.56 322)">Medium</text>
  <text style="stroke:none;fill:black;font-family:sans-serif;font-size:13;text-anchor:middle;" transform="matrix(1 0 0 1 2043.27 322)">Semibold</text>
  <text style="stroke:none;fill:black;font-family:sans-serif;font-size:13;text-anchor:middle;" transform="matrix(1 0 0 1 2339.98 322)">Bold</text>
  <text style="stroke:none;fill:black;font-family:sans-serif;font-size:13;text-anchor:middle;" transform="matrix(1 0 0 1 2636.69 322)">Heavy</text>
  <text style="stroke:none;fill:black;font-family:sans-serif;font-size:13;text-anchor:middle;" transform="matrix(1 0 0 1 2933.4 322)">Black</text>
  <line style="fill:none;stroke:black;opacity:1;stroke-width:0.5;" x1="263" x2="3036" y1="1903" y2="1903"/>
  <g transform="matrix(1 0 0 1 263 1933)">
   <path d="M9.24805 0.830078Q10.8691 0.830078 12.2949 0.214844Q13.7207-0.400391 14.8096-1.49414Q15.8984-2.58789 16.5186-4.01367Q17.1387-5.43945 17.1387-7.05078Q17.1387-8.66211 16.5186-10.0879Q15.8984-11.5137 14.8047-12.6074Q13.7109-13.7012 12.2852-14.3164Q10.8594-14.9316 9.23828-14.9316Q7.62695-14.9316 6.20117-14.3164Q4.77539-13.7012 3.69141-12.6074Q2.60742-11.5137 1.9873-10.0879Q1.36719-8.66211 1.36719-7.05078Q1.36719-5.43945 1.9873-4.01367Q2.60742-2.58789 3.69629-1.49414Q4.78516-0.400391 6.21094 0.214844Q7.63672 0.830078 9.24805 0.830078ZM9.24805-0.654297Q7.91992-0.654297 6.7627-1.14746Q5.60547-1.64062 4.73145-2.51953Q3.85742-3.39844 3.36426-4.56055Q2.87109-5.72266 2.87109-7.05078Q2.87109-8.37891 3.35938-9.54102Q3.84766-10.7031 4.72168-11.582Q5.5957-12.4609 6.75293-12.9541Q7.91016-13.4473 9.23828-13.4473Q10.5762-13.4473 11.7334-12.9541Q12.8906-12.4609 13.7695-11.582Q14.6484-10.7031 15.1465-9.54102Q15.6445-8.37891 15.6445-7.05078Q15.6445-5.72266 15.1514-4.56055Q14.6582-3.39844 13.7842-2.51953Q12.9102-1.64062 11.748-1.14746Q10.5859-0.654297 9.24805-0.654297ZM5.6543-7.05078Q5.6543-6.72852 5.85938-6.52832Q6.06445-6.32812 6.40625-6.32812L8.51562-6.32812L8.51562-4.20898Q8.51562-3.88672 8.71094-3.67676Q8.90625-3.4668 9.23828-3.4668Q9.56055-3.4668 9.77051-3.67676Q9.98047-3.88672 9.98047-4.20898L9.98047-6.32812L12.0898-6.32812Q12.4219-6.32812 12.627-6.52832Q12.832-6.72852 12.832-7.05078Q12.832-7.38281 12.627-7.58789Q12.4219-7.79297 12.0898-7.79297L9.98047-7.79297L9.98047-9.90234Q9.98047-10.2344 9.77051-10.4443Q9.56055-10.6543 9.23828-10.6543Q8.90625-10.6543 8.71094-10.4443Q8.51562-10.2344 8.51562-9.90234L8.51562-7.79297L6.40625-7.79297Q6.06445-7.79297 5.85938-7.58789Q5.6543-7.38281 5.6543-7.05078Z"/>
  </g>
  <g transform="matrix(1 0 0 1 281.867 1933)">
   <path d="M11.709 2.91016Q13.75 2.91016 15.5518 2.12891Q17.3535 1.34766 18.7305-0.0292969Q20.1074-1.40625 20.8887-3.20801Q21.6699-5.00977 21.6699-7.05078Q21.6699-9.0918 20.8887-10.8936Q20.1074-12.6953 18.7305-14.0723Q17.3535-15.4492 15.5469-16.2305Q13.7402-17.0117 11.6992-17.0117Q9.6582-17.0117 7.85645-16.2305Q6.05469-15.4492 4.68262-14.0723Q3.31055-12.6953 2.5293-10.8936Q1.74805-9.0918 1.74805-7.05078Q1.74805-5.00977 2.5293-3.20801Q3.31055-1.40625 4.6875-0.0292969Q6.06445 1.34766 7.86621 2.12891Q9.66797 2.91016 11.709 2.91016ZM11.709 1.25Q9.98047 1.25 8.47656 0.605469Q6.97266-0.0390625 5.83496-1.17676Q4.69727-2.31445 4.05762-3.81836Q3.41797-5.32227 3.41797-7.05078Q3.41797-8.7793 4.05762-10.2832Q4.69727-11.7871 5.83008-12.9297Q6.96289-14.0723 8.4668-14.7119Q9.9707-15.3516 11.6992-15.3516Q13.4277-15.3516 14.9316-14.7119Q16.4355-14.0723 17.5781-12.9297Q18.7207-11.7871 19.3652-10.2832Q20.0098-8.7793 20.0098-7.05078Q20.0098-5.32227 19.3701-3.81836Q18.7305-2.31445 17.5928-1.17676Q16.4551-0.0390625 14.9463 0.605469Q13.4375 1.25 11.709 1.25ZM7.17773-7.05078Q7.17773-6.69922 7.41211-6.47461Q7.64648-6.25 8.01758-6.25L10.8887-6.25L10.8887-3.36914Q10.8887-2.99805 11.1133-2.76855Q11.3379-2.53906 11.6895-2.53906Q12.0605-2.53906 12.29-2.76855Q12.5195-2.99805 12.5195-3.36914L12.5195-6.25L15.4004-6.25Q15.7715-6.25 16.001-6.47461Q16.2305-6.69922 16.2305-7.05078Q16.2305-7.42188 16.001-7.65137Q15.7715-7.88086 15.4004-7.88086L12.5195-7.88086L12.5195-10.752Q12.5195-11.1328 12.29-11.3623Q12.0605-11.5918 11.6895-11.5918Q11.3379-11.5918 11.1133-11.3574Q10.8887-11.123 10.8887-10.752L10.8887-7.88086L8.01758-7.88086Q7.63672-7.88086 7.40723-7.65137Q7.17773-7.42188 7.17773-7.05078Z"/>
  </g>
  <g transform="matrix(1 0 0 1 305.646 1933)">
   <path d="M14.9707 5.66406Q17.0605 5.66406 18.96 5.01465Q20.8594 4.36523 22.4512 3.19336Q24.043 2.02148 25.2197 0.429688Q26.3965-1.16211 27.0459-3.06641Q27.6953-4.9707 27.6953-7.05078Q27.6953-9.14062 27.0459-11.04Q26.3965-12.9395 25.2197-14.5312Q24.043-16.123 22.4512-17.2998Q20.8594-18.4766 18.9551-19.126Q17.0508-19.7754 14.9609-19.7754Q12.8711-19.7754 10.9717-19.126Q9.07227-18.4766 7.48535-17.2998Q5.89844-16.123 4.72168-14.5312Q3.54492-12.9395 2.90039-11.04Q2.25586-9.14062 2.25586-7.05078Q2.25586-4.9707 2.90527-3.06641Q3.55469-1.16211 4.72656 0.429688Q5.89844 2.02148 7.49023 3.19336Q9.08203 4.36523 10.9814 5.01465Q12.8809 5.66406 14.9707 5.66406ZM14.9707 3.84766Q13.1641 3.84766 11.5283 3.2959Q9.89258 2.74414 8.53516 1.74805Q7.17773 0.751953 6.17676-0.610352Q5.17578-1.97266 4.62891-3.6084Q4.08203-5.24414 4.08203-7.05078Q4.08203-8.86719 4.62891-10.5029Q5.17578-12.1387 6.17188-13.501Q7.16797-14.8633 8.52539-15.8594Q9.88281-16.8555 11.5186-17.4023Q13.1543-17.9492 14.9609-17.9492Q16.7773-17.9492 18.4131-17.4023Q20.0488-16.8555 21.4111-15.8594Q22.7734-14.8633 23.7695-13.501Q24.7656-12.1387 25.3174-10.5029Q25.8691-8.86719 25.8691-7.05078Q25.8789-5.24414 25.332-3.6084Q24.7852-1.97266 23.7842-0.610352Q22.7832 0.751953 21.4209 1.74805Q20.0586 2.74414 18.4229 3.2959Q16.7871 3.84766 14.9707 3.84766ZM9.19922-7.05078Q9.19922-6.66992 9.45801-6.4209Q9.7168-6.17188 10.1172-6.17188L14.0625-6.17188L14.0625-2.2168Q14.0625-1.81641 14.3115-1.55762Q14.5605-1.29883 14.9512-1.29883Q15.3516-1.29883 15.6104-1.55273Q15.8691-1.80664 15.8691-2.2168L15.8691-6.17188L19.8242-6.17188Q20.2246-6.17188 20.4785-6.4209Q20.7324-6.66992 20.7324-7.05078Q20.7324-7.46094 20.4785-7.71484Q20.2246-7.96875 19.8242-7.96875L15.8691-7.96875L15.8691-11.9141Q15.8691-12.3242 15.6104-12.583Q15.3516-12.8418 14.9512-12.8418Q14.5605-12.8418 14.3115-12.583Q14.0625-12.3242 14.0625-11.9141L14.0625-7.96875L10.1172-7.96875Q9.70703-7.96875 9.45312-7.71484Q9.19922-7.46094 9.19922-7.05078Z"/>
  </g>
  <text style="stroke:none;fill:black;font-family:sans-serif;font-size:13;font-weight:bold;" transform="matrix(1 0 0 1 263 1953)">Design Variations</text>
  <text style="stroke:none;fill:black;font-family:sans-serif;font-size:13;" transform="matrix(1 0 0 1 263 1971)">Symbols are supported in up to nine weights and three scales.</text>
  <text style="stroke:none;fill:black;font-family:sans-serif;font-size:13;" transform="matrix(1 0 0 1 263 1989)">For optimal layout with text and other symbols, vertically align</text>
  <text style="stroke:none;fill:black;font-family:sans-serif;font-size:13;" transform="matrix(1 0 0 1 263 2007)">symbols with the adjacent text.</text>
  <line style="fill:none;stroke:#00AEEF;stroke-width:0.5;opacity:1.0;" x1="776" x2="776" y1="1919" y2="1933"/>
  <g transform="matrix(1 0 0 1 776 1933)">
   <path d="M3.31055 0.15625Q3.70117 0.15625 3.91602-0.00976562Q4.13086-0.175781 4.26758-0.585938L5.52734-4.0332L11.2891-4.0332L12.5488-0.585938Q12.6855-0.175781 12.9004-0.00976562Q13.1152 0.15625 13.4961 0.15625Q13.8867 0.15625 14.1162-0.0585938Q14.3457-0.273438 14.3457-0.644531Q14.3457-0.869141 14.2383-1.17188L9.6582-13.3691Q9.48242-13.8184 9.17969-14.043Q8.87695-14.2676 8.4082-14.2676Q7.5-14.2676 7.17773-13.3789L2.59766-1.16211Q2.49023-0.859375 2.49023-0.634766Q2.49023-0.263672 2.70996-0.0537109Q2.92969 0.15625 3.31055 0.15625ZM6.00586-5.51758L8.37891-12.0898L8.42773-12.0898L10.8008-5.51758Z"/>
  </g>
  <line style="fill:none;stroke:#00AEEF;stroke-width:0.5;opacity:1.0;" x1="793.197" x2="793.197" y1="1919" y2="1933"/>
  <text style="stroke:none;fill:black;font-family:sans-serif;font-size:13;font-weight:bold;" transform="matrix(1 0 0 1 776 1953)">Margins</text>
  <text style="stroke:none;fill:black;font-family:sans-serif;font-size:13;" transform="matrix(1 0 0 1 776 1971)">Leading and trailing margins on the left and right side of each symbol</text>
  <text style="stroke:none;fill:black;font-family:sans-serif;font-size:13;" transform="matrix(1 0 0 1 776 1989)">can be adjusted by modifying the x-location of the margin guidelines.</text>
  <text style="stroke:none;fill:black;font-family:sans-serif;font-size:13;" transform="matrix(1 0 0 1 776 2007)">Modifications are automatically applied proportionally to all</text>
  <text style="stroke:none;fill:black;font-family:sans-serif;font-size:13;" transform="matrix(1 0 0 1 776 2025)">scales and weights.</text>
  <g transform="matrix(1 0 0 1 1289 1933)">
   <path d="M2.8418 1.86523L4.54102 3.57422Q5.18555 4.22852 5.90332 4.17969Q6.62109 4.13086 7.31445 3.35938L18.0078-8.42773L17.041-9.4043L6.42578 2.27539Q6.16211 2.57812 5.89355 2.61719Q5.625 2.65625 5.27344 2.30469L4.10156 1.14258Q3.75 0.791016 3.79395 0.522461Q3.83789 0.253906 4.14062-0.0195312L15.6152-10.8203L14.6387-11.7871L3.04688-0.898438Q2.30469-0.214844 2.25098 0.498047Q2.19727 1.21094 2.8418 1.86523ZM9.25781-16.3281Q8.94531-16.0254 8.90625-15.6348Q8.86719-15.2441 9.04297-14.9512Q9.21875-14.6777 9.55566-14.541Q9.89258-14.4043 10.3809-14.5215Q11.4746-14.7754 12.5977-14.7314Q13.7207-14.6875 14.7949-13.9844L14.209-12.5293Q13.9551-11.9043 14.0674-11.4404Q14.1797-10.9766 14.5801-10.5664L16.875-8.25195Q17.2363-7.88086 17.5781-7.82227Q17.9199-7.76367 18.3398-7.8418L19.4043-8.03711L20.0684-7.36328L20.0293-6.80664Q20-6.43555 20.1221-6.12305Q20.2441-5.81055 20.6055-5.44922L21.3672-4.70703Q21.7285-4.3457 22.1533-4.33105Q22.5781-4.31641 22.9297-4.66797L25.8398-7.58789Q26.1914-7.93945 26.1816-8.35449Q26.1719-8.76953 25.8105-9.13086L25.0391-9.89258Q24.6875-10.2539 24.3799-10.3857Q24.0723-10.5176 23.7109-10.4883L23.1348-10.4395L22.4902-11.0742L22.7344-12.1973Q22.832-12.6172 22.6953-12.9834Q22.5586-13.3496 22.1191-13.7891L19.9219-15.9766Q18.6719-17.2168 17.2607-17.8369Q15.8496-18.457 14.4189-18.4814Q12.9883-18.5059 11.665-17.959Q10.3418-17.4121 9.25781-16.3281ZM10.752-15.957Q11.6602-16.6211 12.7002-16.9043Q13.7402-17.1875 14.8047-17.085Q15.8691-16.9824 16.8701-16.5137Q17.8711-16.0449 18.7012-15.2051L21.1328-12.793Q21.3086-12.6172 21.3525-12.4512Q21.3965-12.2852 21.3379-12.0312L21.0156-10.5469L22.5195-9.0625L23.5059-9.12109Q23.6914-9.13086 23.7891-9.09668Q23.8867-9.0625 24.0332-8.91602L24.6094-8.33984L22.168-5.89844L21.5918-6.47461Q21.4453-6.62109 21.4062-6.71875Q21.3672-6.81641 21.377-7.01172L21.4453-7.98828L19.9512-9.47266L18.4277-9.21875Q18.1836-9.16992 18.042-9.2041Q17.9004-9.23828 17.7148-9.41406L15.7129-11.416Q15.5176-11.5918 15.4932-11.7529Q15.4688-11.9141 15.5859-12.1875L16.4648-14.2773Q15.293-15.3711 13.8281-15.791Q12.3633-16.2109 10.8398-15.7617Q10.7227-15.7324 10.6885-15.8057Q10.6543-15.8789 10.752-15.957Z"/>
  </g>
  <text style="stroke:none;fill:black;font-family:sans-serif;font-size:13;font-weight:bold;" transform="matrix(1 0 0 1 1289 1953)">Exporting</text>
  <text style="stroke:none;fill:black;font-family:sans-serif;font-size:13;" transform="matrix(1 0 0 1 1289 1971)">Symbols should be outlined when exporting to ensure the</text>
  <text style="stroke:none;fill:black;font-family:sans-serif;font-size:13;" transform="matrix(1 0 0 1 1289 1989)">design is preserved when submitting to Xcode.</text>
  <text id="template-version" style="stroke:none;fill:black;font-family:sans-serif;font-size:13;text-anchor:end;" transform="matrix(1 0 0 1 3036 1933)">Template v.3.0</text>
  <text style="stroke:none;fill:black;font-family:sans-serif;font-size:13;text-anchor:end;" transform="matrix(1 0 0 1 3036 1951)">Requires Xcode 13 or greater</text>
  <text id="descriptive-name" style="stroke:none;fill:black;font-family:sans-serif;font-size:13;text-anchor:end;" transform="matrix(1 0 0 1 3036 1969)">Generated from custom.lines.measurement.horizontal</text>
  <text style="stroke:none;fill:black;font-family:sans-serif;font-size:13;text-anchor:end;" transform="matrix(1 0 0 1 3036 1987)">Typeset at 100 points</text>
  <text style="stroke:none;fill:black;font-family:sans-serif;font-size:13;" transform="matrix(1 0 0 1 263 726)">Small</text>
  <text style="stroke:none;fill:black;font-family:sans-serif;font-size:13;" transform="matrix(1 0 0 1 263 1156)">Medium</text>
  <text style="stroke:none;fill:black;font-family:sans-serif;font-size:13;" transform="matrix(1 0 0 1 263 1586)">Large</text>
 </g>
 <g id="Guides">
  <g id="H-reference" style="fill:#27AAE1;stroke:none;" transform="matrix(1 0 0 1 339 696)">
   <path d="M0.993347 0L3.6377 0L29.3282-67.1326L30.0301-67.1326L30.0301-70.459L28.1227-70.459ZM11.6882-24.4797L46.9818-24.4797L46.2311-26.7288L12.4382-26.7288ZM55.1193 0L57.7637 0L30.6381-70.459L29.4327-70.459L29.4327-67.1326Z"/>
  </g>
  <line id="Baseline-S" style="fill:none;stroke:#27AAE1;opacity:1;stroke-width:0.5;" x1="263" x2="3036" y1="696" y2="696"/>
  <line id="Capline-S" style="fill:none;stroke:#27AAE1;opacity:1;stroke-width:0.5;" x1="263" x2="3036" y1="625.541" y2="625.541"/>
  <g id="H-reference" style="fill:#27AAE1;stroke:none;" transform="matrix(1 0 0 1 339 1126)">
   <path d="M0.993347 0L3.6377 0L29.3282-67.1326L30.0301-67.1326L30.0301-70.459L28.1227-70.459ZM11.6882-24.4797L46.9818-24.4797L46.2311-26.7288L12.4382-26.7288ZM55.1193 0L57.7637 0L30.6381-70.459L29.4327-70.459L29.4327-67.1326Z"/>
  </g>
  <line id="Baseline-M" style="fill:none;stroke:#27AAE1;opacity:1;stroke-width:0.5;" x1="263" x2="3036" y1="1126" y2="1126"/>
  <line id="Capline-M" style="fill:none;stroke:#27AAE1;opacity:1;stroke-width:0.5;" x1="263" x2="3036" y1="1055.54" y2="1055.54"/>
  <g id="H-reference" style="fill:#27AAE1;stroke:none;" transform="matrix(1 0 0 1 339 1556)">
   <path d="M0.993347 0L3.6377 0L29.3282-67.1326L30.0301-67.1326L30.0301-70.459L28.1227-70.459ZM11.6882-24.4797L46.9818-24.4797L46.2311-26.7288L12.4382-26.7288ZM55.1193 0L57.7637 0L30.6381-70.459L29.4327-70.459L29.4327-67.1326Z"/>
  </g>
  <line id="Baseline-L" style="fill:none;stroke:#27AAE1;opacity:1;stroke-width:0.5;" x1="263" x2="3036" y1="1556" y2="1556"/>
  <line id="Capline-L" style="fill:none;stroke:#27AAE1;opacity:1;stroke-width:0.5;" x1="263" x2="3036" y1="1485.54" y2="1485.54"/>
  <line id="left-margin-Regular-M" style="fill:none;stroke:#00AEEF;stroke-width:0.5;opacity:1.0;" x1="1381.39" x2="1381.39" y1="1030.78" y2="1150.12"/>
  <line id="right-margin-Regular-M" style="fill:none;stroke:#00AEEF;stroke-width:0.5;opacity:1.0;" x1="1518.3" x2="1518.3" y1="1030.78" y2="1150.12"/>
 </g>
 <g id="Symbols">
  <g id="Black-L" transform="matrix(1 0 0 1 2836.19 1556)">
   <path class="hierarchical-0:secondary SFSymbolsPreview4D4D4D" d="M170.41 2.53906Q181.983 2.53906 181.983-8.98438L181.983-61.4746Q181.983-72.998 170.41-72.998Q158.789-72.998 158.789-61.4746L158.789-8.98438Q158.789 2.53906 170.41 2.53906ZM24.0234 2.53906Q35.6445 2.53906 35.6445-8.98438L35.6445-61.4746Q35.6445-72.998 24.0234-72.998Q12.4512-72.998 12.4512-61.4746L12.4512-8.98438Q12.4512 2.53906 24.0234 2.53906Z"/>
   <path class="hierarchical-1:tertiary SFSymbolsPreview8E8E8E" d="M133.789-14.1113Q145.313-14.1113 145.313-25.6836L145.313-44.7754Q145.313-56.3477 133.789-56.3477Q122.217-56.3477 122.217-44.7754L122.217-25.6836Q122.217-14.1113 133.789-14.1113ZM60.6445-14.1113Q72.1679-14.1113 72.1679-25.6836L72.1679-44.7754Q72.1679-56.3477 60.6445-56.3477Q49.0722-56.3477 49.0722-44.7754L49.0722-25.6836Q49.0722-14.1113 60.6445-14.1113Z"/>
   <path class="hierarchical-2:primary SFSymbolsPreview212121" d="M97.2167 28.8086Q108.789 28.8086 108.789 17.1875L108.789-87.6465Q108.789-99.2676 97.2167-99.2676Q85.6445-99.2676 85.6445-87.6465L85.6445 17.1875Q85.6445 28.8086 97.2167 28.8086Z"/>
  </g>
  <g id="Heavy-L" transform="matrix(1 0 0 1 2542.87 1556)">
   <path class="hierarchical-0:secondary SFSymbolsPreview4D4D4D" d="M164.959 0.868225Q175.183 0.868225 175.183-9.31854L175.183-61.1404Q175.183-71.3272 164.959-71.3272Q154.698-71.3272 154.698-61.1404L154.698-9.31854Q154.698 0.868225 164.959 0.868225ZM22.6753 0.868225Q32.9475 0.868225 32.9475-9.31854L32.9475-61.1404Q32.9475-71.3272 22.6753-71.3272Q12.4512-71.3272 12.4512-61.1404L12.4512-9.31854Q12.4512 0.868225 22.6753 0.868225Z"/>
   <path class="hierarchical-1:tertiary SFSymbolsPreview8E8E8E" d="M129.364-15.5746Q139.55-15.5746 139.55-25.7988L139.55-44.6602Q139.55-54.8843 129.364-54.8843Q119.152-54.8843 119.152-44.6602L119.152-25.7988Q119.152-15.5746 129.364-15.5746ZM58.2817-15.5746Q68.4456-15.5746 68.4456-25.7988L68.4456-44.6602Q68.4456-54.8843 58.2817-54.8843Q48.0469-54.8843 48.0469-44.6602L48.0469-25.7988Q48.0469-15.5746 58.2817-15.5746Z"/>
   <path class="hierarchical-2:primary SFSymbolsPreview212121" d="M93.8171 26.815Q104.042 26.815 104.042 16.5421L104.042-87.001Q104.042-97.274 93.8171-97.274Q83.593-97.274 83.593-87.001L83.593 16.5421Q83.593 26.815 93.8171 26.815Z"/>
  </g>
  <g id="Bold-L" transform="matrix(1 0 0 1 2249.97 1556)">
   <path class="hierarchical-0:secondary SFSymbolsPreview4D4D4D" d="M158.863-1.00098Q167.578-1.00098 167.578-9.69238L167.578-60.7666Q167.578-69.458 158.863-69.458Q150.122-69.458 150.122-60.7666L150.122-9.69238Q150.122-1.00098 158.863-1.00098ZM21.167-1.00098Q29.9316-1.00098 29.9316-9.69238L29.9316-60.7666Q29.9316-69.458 21.167-69.458Q12.4512-69.458 12.4512-60.7666L12.4512-9.69238Q12.4512-1.00098 21.167-1.00098Z"/>
   <path class="hierarchical-1:tertiary SFSymbolsPreview8E8E8E" d="M124.414-17.2119Q133.106-17.2119 133.106-25.9277L133.106-44.5312Q133.106-53.2471 124.414-53.2471Q115.723-53.2471 115.723-44.5312L115.723-25.9277Q115.723-17.2119 124.414-17.2119ZM55.6396-17.2119Q64.2822-17.2119 64.2822-25.9277L64.2822-44.5312Q64.2822-53.2471 55.6396-53.2471Q46.8994-53.2471 46.8994-44.5312L46.8994-25.9277Q46.8994-17.2119 55.6396-17.2119Z"/>
   <path class="hierarchical-2:primary SFSymbolsPreview212121" d="M90.0146 24.585Q98.7307 24.585 98.7307 15.8203L98.7307-86.2793Q98.7307-95.0439 90.0146-95.0439Q81.2988-95.0439 81.2988-86.2793L81.2988 15.8203Q81.2988 24.585 90.0146 24.585Z"/>
  </g>
  <g id="Semibold-L" transform="matrix(1 0 0 1 1955.88 1556)">
   <path class="hierarchical-0:secondary SFSymbolsPreview4D4D4D" d="M154.659-2.28958Q162.335-2.28958 162.335-9.95026L162.335-60.5087Q162.335-68.1694 154.659-68.1694Q146.968-68.1694 146.968-60.5087L146.968-9.95026Q146.968-2.28958 154.659-2.28958ZM20.1271-2.28958Q27.8518-2.28958 27.8518-9.95026L27.8518-60.5087Q27.8518-68.1694 20.1271-68.1694Q12.4512-68.1694 12.4512-60.5087L12.4512-9.95026Q12.4512-2.28958 20.1271-2.28958Z"/>
   <path class="hierarchical-1:tertiary SFSymbolsPreview8E8E8E" d="M121.002-18.3403Q128.662-18.3403 128.662-26.0162L128.662-44.4427Q128.662-52.1187 121.002-52.1187Q113.359-52.1187 113.359-44.4427L113.359-26.0162Q113.359-18.3403 121.002-18.3403ZM53.8177-18.3403Q61.412-18.3403 61.412-26.0162L61.412-44.4427Q61.412-52.1187 53.8177-52.1187Q46.1082-52.1187 46.1082-44.4427L46.1082-26.0162Q46.1082-18.3403 53.8177-18.3403Z"/>
   <path class="hierarchical-2:primary SFSymbolsPreview212121" d="M87.3932 23.0476Q95.0691 23.0476 95.0691 15.3229L95.0691-85.7819Q95.0691-93.5066 87.3932-93.5066Q79.7172-93.5066 79.7172-85.7819L79.7172 15.3229Q79.7172 23.0476 87.3932 23.0476Z"/>
  </g>
  <g id="Medium-L" transform="matrix(1 0 0 1 1661.15 1556)">
   <path class="hierarchical-0:secondary SFSymbolsPreview4D4D4D" d="M151.472-3.26691Q158.36-3.26691 158.36-10.1456L158.36-60.3134Q158.36-67.1921 151.472-67.1921Q144.575-67.1921 144.575-60.3134L144.575-10.1456Q144.575-3.26691 151.472-3.26691ZM19.339-3.26691Q26.2756-3.26691 26.2756-10.1456L26.2756-60.3134Q26.2756-67.1921 19.339-67.1921Q12.4512-67.1921 12.4512-60.3134L12.4512-10.1456Q12.4512-3.26691 19.339-3.26691Z"/>
   <path class="hierarchical-1:tertiary SFSymbolsPreview8E8E8E" d="M118.415-19.1963Q125.293-19.1963 125.293-26.0841L125.293-44.3748Q125.293-51.2627 118.415-51.2627Q111.566-51.2627 111.566-44.3748L111.566-26.0841Q111.566-19.1963 118.415-19.1963ZM52.4368-19.1963Q59.2354-19.1963 59.2354-26.0841L59.2354-44.3748Q59.2354-51.2627 52.4368-51.2627Q45.5086-51.2627 45.5086-44.3748L45.5086-26.0841Q45.5086-19.1963 52.4368-19.1963Z"/>
   <path class="hierarchical-2:primary SFSymbolsPreview212121" d="M85.4049 21.8819Q92.2928 21.8819 92.2928 14.9452L92.2928-85.4042Q92.2928-92.3409 85.4049-92.3409Q78.5171-92.3409 78.5171-85.4042L78.5171 14.9452Q78.5171 21.8819 85.4049 21.8819Z"/>
  </g>
  <g id="Regular-L" transform="matrix(1 0 0 1 1367.03 1556)">
   <path class="hierarchical-0:secondary SFSymbolsPreview4D4D4D" d="M147.315-4.54102Q153.174-4.54102 153.174-10.4004L153.174-60.0586Q153.174-65.918 147.315-65.918Q141.455-65.918 141.455-60.0586L141.455-10.4004Q141.455-4.54102 147.315-4.54102ZM18.3105-4.54102Q24.2187-4.54102 24.2187-10.4004L24.2187-60.0586Q24.2187-65.918 18.3105-65.918Q12.4512-65.918 12.4512-60.0586L12.4512-10.4004Q12.4512-4.54102 18.3105-4.54102Z"/>
   <path class="hierarchical-1:tertiary SFSymbolsPreview8E8E8E" d="M115.039-20.3125Q120.899-20.3125 120.899-26.1719L120.899-44.2871Q120.899-50.1465 115.039-50.1465Q109.229-50.1465 109.229-44.2871L109.229-26.1719Q109.229-20.3125 115.039-20.3125ZM50.6347-20.3125Q56.3965-20.3125 56.3965-26.1719L56.3965-44.2871Q56.3965-50.1465 50.6347-50.1465Q44.7265-50.1465 44.7265-44.2871L44.7265-26.1719Q44.7265-20.3125 50.6347-20.3125Z"/>
   <path class="hierarchical-2:primary SFSymbolsPreview212121" d="M82.8125 20.3613Q88.6719 20.3613 88.6719 14.4531L88.6719-84.9121Q88.6719-90.8203 82.8125-90.8203Q76.9531-90.8203 76.9531-84.9121L76.9531 14.4531Q76.9531 20.3613 82.8125 20.3613Z"/>
  </g>
  <g id="Light-L" transform="matrix(1 0 0 1 1072.91 1556)">
   <path class="hierarchical-0:secondary SFSymbolsPreview4D4D4D" d="M142.955-5.63049Q147.998-5.63049 147.998-10.6728L147.998-59.7862Q147.998-64.8285 142.955-64.8285Q137.899-64.8285 137.899-59.7862L137.899-10.6728Q137.899-5.63049 142.955-5.63049ZM17.5079-5.63049Q22.5838-5.63049 22.5838-10.6728L22.5838-59.7862Q22.5838-64.8285 17.5079-64.8285Q12.4512-64.8285 12.4512-59.7862L12.4512-10.6728Q12.4512-5.63049 17.5079-5.63049Z"/>
   <path class="hierarchical-1:tertiary SFSymbolsPreview8E8E8E" d="M111.558-21.2509Q116.615-21.2509 116.615-26.2627L116.615-44.1963Q116.615-49.2081 111.558-49.2081Q106.565-49.2081 106.565-44.1963L106.565-26.2627Q106.565-21.2509 111.558-21.2509ZM48.9242-21.2509Q53.8841-21.2509 53.8841-26.2627L53.8841-44.1963Q53.8841-49.2081 48.9242-49.2081Q43.8484-49.2081 43.8484-44.1963L43.8484-26.2627Q43.8484-21.2509 48.9242-21.2509Z"/>
   <path class="hierarchical-2:primary SFSymbolsPreview212121" d="M80.2238 18.9842Q85.2814 18.9842 85.2814 13.9084L85.2814-84.3674Q85.2814-89.4432 80.2238-89.4432Q75.1823-89.4432 75.1823-84.3674L75.1823 13.9084Q75.1823 18.9842 80.2238 18.9842Z"/>
  </g>
  <g id="Thin-L" transform="matrix(1 0 0 1 779.623 1556)">
   <path class="hierarchical-0:secondary SFSymbolsPreview4D4D4D" d="M137.191-7.07245Q141.151-7.07245 141.151-11.0329L141.151-59.4261Q141.151-63.3865 137.191-63.3865Q133.194-63.3865 133.194-59.4261L133.194-11.0329Q133.194-7.07245 137.191-7.07245ZM16.4474-7.07245Q20.4223-7.07245 20.4223-11.0329L20.4223-59.4261Q20.4223-63.3865 16.4474-63.3865Q12.4512-63.3865 12.4512-59.4261L12.4512-11.0329Q12.4512-7.07245 16.4474-7.07245Z"/>
   <path class="hierarchical-1:tertiary SFSymbolsPreview8E8E8E" d="M106.954-22.4922Q110.95-22.4922 110.95-26.3824L110.95-44.0765Q110.95-47.9668 106.954-47.9668Q103.041-47.9668 103.041-44.0765L103.041-26.3824Q103.041-22.4922 106.954-22.4922ZM46.6621-22.4922Q50.5607-22.4922 50.5607-26.3824L50.5607-44.0765Q50.5607-47.9668 46.6621-47.9668Q42.6872-47.9668 42.6872-44.0765L42.6872-26.3824Q42.6872-22.4922 46.6621-22.4922Z"/>
   <path class="hierarchical-2:primary SFSymbolsPreview212121" d="M76.8013 17.1623Q80.7976 17.1623 80.7976 13.1874L80.7976-83.6464Q80.7976-87.6213 76.8013-87.6213Q72.8401-87.6213 72.8401-83.6464L72.8401 13.1874Q72.8401 17.1623 76.8013 17.1623Z"/>
  </g>
  <g id="Ultralight-L" transform="matrix(1 0 0 1 484.666 1556)">
   <path class="hierarchical-0:secondary SFSymbolsPreview4D4D4D" d="M134.236-7.81021Q137.644-7.81021 137.644-11.2175L137.644-59.2415Q137.644-62.6488 134.236-62.6488Q130.784-62.6488 130.784-59.2415L130.784-11.2175Q130.784-7.81021 134.236-7.81021ZM15.9035-7.81021Q19.3146-7.81021 19.3146-11.2175L19.3146-59.2415Q19.3146-62.6488 15.9035-62.6488Q12.4512-62.6488 12.4512-59.2415L12.4512-11.2175Q12.4512-7.81021 15.9035-7.81021Z"/>
   <path class="hierarchical-1:tertiary SFSymbolsPreview8E8E8E" d="M104.595-23.1277Q108.048-23.1277 108.048-26.4442L108.048-44.0147Q108.048-47.3312 104.595-47.3312Q101.237-47.3312 101.237-44.0147L101.237-26.4442Q101.237-23.1277 104.595-23.1277ZM45.5032-23.1277Q48.8586-23.1277 48.8586-26.4442L48.8586-44.0147Q48.8586-47.3312 45.5032-47.3312Q42.0929-47.3312 42.0929-44.0147L42.0929-26.4442Q42.0929-23.1277 45.5032-23.1277Z"/>
   <path class="hierarchical-2:primary SFSymbolsPreview212121" d="M75.0473 16.2292Q78.5003 16.2292 78.5003 12.8181L78.5003-83.2771Q78.5003-86.6882 75.0473-86.6882Q71.64-86.6882 71.64-83.2771L71.64 12.8181Q71.64 16.2292 75.0473 16.2292Z"/>
  </g>
  <g id="Black-M" transform="matrix(1 0 0 1 2853.23 1126)">
   <path class="hierarchical-0:secondary SFSymbolsPreview4D4D4D" d="M138.037-4.88281Q147.9-4.88281 147.9-14.6973L147.9-55.7617Q147.9-65.5762 138.037-65.5762Q128.174-65.5762 128.174-55.7617L128.174-14.6973Q128.174-4.88281 138.037-4.88281ZM22.2656-4.88281Q32.1777-4.88281 32.1777-14.6973L32.1777-55.7617Q32.1777-65.5762 22.2656-65.5762Q12.4512-65.5762 12.4512-55.7617L12.4512-14.6973Q12.4512-4.88281 22.2656-4.88281Z"/>
   <path class="hierarchical-1:tertiary SFSymbolsPreview8E8E8E" d="M109.082-17.9199Q118.896-17.9199 118.896-27.7344L118.896-42.7246Q118.896-52.5391 109.082-52.5391Q99.2676-52.5391 99.2676-42.7246L99.2676-27.7344Q99.2676-17.9199 109.082-17.9199ZM51.2695-17.9199Q61.084-17.9199 61.084-27.7344L61.084-42.7246Q61.084-52.5391 51.2695-52.5391Q41.4062-52.5391 41.4062-42.7246L41.4062-27.7344Q41.4062-17.9199 51.2695-17.9199Z"/>
   <path class="hierarchical-2:primary SFSymbolsPreview212121" d="M80.1758 15.6738Q89.9902 15.6738 89.9902 5.76172L89.9902-76.2207Q89.9902-86.1328 80.1758-86.1328Q70.3125-86.1328 70.3125-76.2207L70.3125 5.76172Q70.3125 15.6738 80.1758 15.6738Z"/>
  </g>
  <g id="Heavy-M" transform="matrix(1 0 0 1 2559.28 1126)">
   <path class="hierarchical-0:secondary SFSymbolsPreview4D4D4D" d="M133.646-6.28891Q142.368-6.28891 142.368-14.962L142.368-55.497Q142.368-64.1701 133.646-64.1701Q124.935-64.1701 124.935-55.497L124.935-14.962Q124.935-6.28891 133.646-6.28891ZM21.1365-6.28891Q29.8843-6.28891 29.8843-14.962L29.8843-55.497Q29.8843-64.1701 21.1365-64.1701Q12.4512-64.1701 12.4512-55.497L12.4512-14.962Q12.4512-6.28891 21.1365-6.28891Z"/>
   <path class="hierarchical-1:tertiary SFSymbolsPreview8E8E8E" d="M105.509-19.1528Q114.183-19.1528 114.183-27.8381L114.183-42.6208Q114.183-51.3062 105.509-51.3062Q96.8361-51.3062 96.8361-42.6208L96.8361-27.8381Q96.8361-19.1528 105.509-19.1528ZM49.3103-19.1528Q57.9842-19.1528 57.9842-27.8381L57.9842-42.6208Q57.9842-51.3062 49.3103-51.3062Q40.5998-51.3062 40.5998-42.6208L40.5998-27.8381Q40.5998-19.1528 49.3103-19.1528Z"/>
   <path class="hierarchical-2:primary SFSymbolsPreview212121" d="M77.4101 14.003Q86.0947 14.003 86.0947 5.25436L86.0947-75.7133Q86.0947-84.462 77.4101-84.462Q68.6874-84.462 68.6874-75.7133L68.6874 5.25436Q68.6874 14.003 77.4101 14.003Z"/>
  </g>
  <g id="Bold-M" transform="matrix(1 0 0 1 2265.66 1126)">
   <path class="hierarchical-0:secondary SFSymbolsPreview4D4D4D" d="M128.735-7.86133Q136.182-7.86133 136.182-15.2588L136.182-55.2002Q136.182-62.5977 128.735-62.5977Q121.313-62.5977 121.313-55.2002L121.313-15.2588Q121.313-7.86133 128.735-7.86133ZM19.873-7.86133Q27.3193-7.86133 27.3193-15.2588L27.3193-55.2002Q27.3193-62.5977 19.873-62.5977Q12.4512-62.5977 12.4512-55.2002L12.4512-15.2588Q12.4512-7.86133 19.873-7.86133Z"/>
   <path class="hierarchical-1:tertiary SFSymbolsPreview8E8E8E" d="M101.514-20.5322Q108.911-20.5322 108.911-27.9541L108.911-42.5049Q108.911-49.9268 101.514-49.9268Q94.1162-49.9268 94.1162-42.5049L94.1162-27.9541Q94.1162-20.5322 101.514-20.5322ZM47.1191-20.5322Q54.5166-20.5322 54.5166-27.9541L54.5166-42.5049Q54.5166-49.9268 47.1191-49.9268Q39.6973-49.9268 39.6973-42.5049L39.6973-27.9541Q39.6973-20.5322 47.1191-20.5322Z"/>
   <path class="hierarchical-2:primary SFSymbolsPreview212121" d="M74.3164 12.1338Q81.7383 12.1338 81.7383 4.6875L81.7383-75.1465Q81.7383-82.5928 74.3164-82.5928Q66.8701-82.5928 66.8701-75.1465L66.8701 4.6875Q66.8701 12.1338 74.3164 12.1338Z"/>
  </g>
  <g id="Semibold-M" transform="matrix(1 0 0 1 1971.09 1126)">
   <path class="hierarchical-0:secondary SFSymbolsPreview4D4D4D" d="M125.349-8.94547Q131.916-8.94547 131.916-15.4633L131.916-54.9957Q131.916-61.5135 125.349-61.5135Q118.816-61.5135 118.816-54.9957L118.816-15.4633Q118.816-8.94547 125.349-8.94547ZM19.0018-8.94547Q25.5508-8.94547 25.5508-15.4633L25.5508-54.9957Q25.5508-61.5135 19.0018-61.5135Q12.4512-61.5135 12.4512-54.9957L12.4512-15.4633Q12.4512-8.94547 19.0018-8.94547Z"/>
   <path class="hierarchical-1:tertiary SFSymbolsPreview8E8E8E" d="M98.7587-21.4828Q105.276-21.4828 105.276-28.0342L105.276-42.4248Q105.276-48.9761 98.7587-48.9761Q92.2409-48.9761 92.2409-42.4248L92.2409-28.0342Q92.2409-21.4828 98.7587-21.4828ZM45.6085-21.4828Q52.1263-21.4828 52.1263-28.0342L52.1263-42.4248Q52.1263-48.9761 45.6085-48.9761Q39.0755-48.9761 39.0755-42.4248L39.0755-28.0342Q39.0755-21.4828 45.6085-21.4828Z"/>
   <path class="hierarchical-2:primary SFSymbolsPreview212121" d="M72.1832 10.8452Q78.7346 10.8452 78.7346 4.29611L78.7346-74.7551Q78.7346-81.3042 72.1832-81.3042Q65.6174-81.3042 65.6174-74.7551L65.6174 4.29611Q65.6174 10.8452 72.1832 10.8452Z"/>
  </g>
  <g id="Medium-M" transform="matrix(1 0 0 1 1675.99 1126)">
   <path class="hierarchical-0:secondary SFSymbolsPreview4D4D4D" d="M122.782-9.76791Q128.681-9.76791 128.681-15.6181L128.681-54.8409Q128.681-60.6911 122.782-60.6911Q116.923-60.6911 116.923-54.8409L116.923-15.6181Q116.923-9.76791 122.782-9.76791ZM18.3418-9.76791Q24.2096-9.76791 24.2096-15.6181L24.2096-54.8409Q24.2096-60.6911 18.3418-60.6911Q12.4512-60.6911 12.4512-54.8409L12.4512-15.6181Q12.4512-9.76791 18.3418-9.76791Z"/>
   <path class="hierarchical-1:tertiary SFSymbolsPreview8E8E8E" d="M96.6698-22.2038Q102.52-22.2038 102.52-28.0945L102.52-42.3645Q102.52-48.2552 96.6698-48.2552Q90.8195-48.2552 90.8195-42.3645L90.8195-28.0945Q90.8195-22.2038 96.6698-22.2038ZM44.4626-22.2038Q50.3136-22.2038 50.3136-28.0945L50.3136-42.3645Q50.3136-48.2552 44.4626-48.2552Q38.6032-48.2552 38.6032-42.3645L38.6032-28.0945Q38.6032-22.2038 44.4626-22.2038Z"/>
   <path class="hierarchical-2:primary SFSymbolsPreview212121" d="M70.5666 9.86786Q76.4572 9.86786 76.4572 4.00009L76.4572-74.4591Q76.4572-80.3268 70.5666-80.3268Q64.6667-80.3268 64.6667-74.4591L64.6667 4.00009Q64.6667 9.86786 70.5666 9.86786Z"/>
  </g>
  <g id="Regular-M" transform="matrix(1 0 0 1 1381.39 1126)">
   <path class="hierarchical-0:secondary SFSymbolsPreview4D4D4D" d="M119.434-10.8398Q124.463-10.8398 124.463-15.8203L124.463-54.6387Q124.463-59.6191 119.434-59.6191Q114.453-59.6191 114.453-54.6387L114.453-15.8203Q114.453-10.8398 119.434-10.8398ZM17.4805-10.8398Q22.4609-10.8398 22.4609-15.8203L22.4609-54.6387Q22.4609-59.6191 17.4805-59.6191Q12.4512-59.6191 12.4512-54.6387L12.4512-15.8203Q12.4512-10.8398 17.4805-10.8398Z"/>
   <path class="hierarchical-1:tertiary SFSymbolsPreview8E8E8E" d="M93.9453-23.1445Q98.9258-23.1445 98.9258-28.1738L98.9258-42.2852Q98.9258-47.3145 93.9453-47.3145Q88.9648-47.3145 88.9648-42.2852L88.9648-28.1738Q88.9648-23.1445 93.9453-23.1445ZM42.9688-23.1445Q47.9492-23.1445 47.9492-28.1738L47.9492-42.2852Q47.9492-47.3145 42.9688-47.3145Q37.9883-47.3145 37.9883-42.2852L37.9883-28.1738Q37.9883-23.1445 42.9688-23.1445Z"/>
   <path class="hierarchical-2:primary SFSymbolsPreview212121" d="M68.457 8.59375Q73.4863 8.59375 73.4863 3.61328L73.4863-74.0723Q73.4863-79.0527 68.457-79.0527Q63.4277-79.0527 63.4277-74.0723L63.4277 3.61328Q63.4277 8.59375 68.457 8.59375Z"/>
  </g>
  <g id="Light-M" transform="matrix(1 0 0 1 1087 1126)">
   <path class="hierarchical-0:secondary SFSymbolsPreview4D4D4D" d="M115.528-11.8088Q119.816-11.8088 119.816-16.0774L119.816-54.3816Q119.816-58.6502 115.528-58.6502Q111.259-58.6502 111.259-54.3816L111.259-16.0774Q111.259-11.8088 115.528-11.8088ZM16.7542-11.8088Q21.0075-11.8088 21.0075-16.0774L21.0075-54.3816Q21.0075-58.6502 16.7542-58.6502Q12.4512-58.6502 12.4512-54.3816L12.4512-16.0774Q12.4512-11.8088 16.7542-11.8088Z"/>
   <path class="hierarchical-1:tertiary SFSymbolsPreview8E8E8E" d="M90.8272-23.9769Q95.0813-23.9769 95.0813-28.2494L95.0813-42.2096Q95.0813-46.4821 90.8272-46.4821Q86.573-46.4821 86.573-42.2096L86.573-28.2494Q86.573-23.9769 90.8272-23.9769ZM41.4551-23.9769Q45.694-23.9769 45.694-28.2494L45.694-42.2096Q45.694-46.4821 41.4551-46.4821Q37.1857-46.4821 37.1857-42.2096L37.1857-28.2494Q37.1857-23.9769 41.4551-23.9769Z"/>
   <path class="hierarchical-2:primary SFSymbolsPreview212121" d="M66.1415 7.36771Q70.4285 7.36771 70.4285 3.11356L70.4285-73.5725Q70.4285-77.8267 66.1415-77.8267Q61.8385-77.8267 61.8385-73.5725L61.8385 3.11356Q61.8385 7.36771 66.1415 7.36771Z"/>
  </g>
  <g id="Thin-M" transform="matrix(1 0 0 1 793.364 1126)">
   <path class="hierarchical-0:secondary SFSymbolsPreview4D4D4D" d="M110.364-13.0898Q113.67-13.0898 113.67-16.4177L113.67-54.0413Q113.67-57.3692 110.364-57.3692Q107.036-57.3692 107.036-54.0413L107.036-16.4177Q107.036-13.0898 110.364-13.0898ZM15.7928-13.0898Q19.0865-13.0898 19.0865-16.4177L19.0865-54.0413Q19.0865-57.3692 15.7928-57.3692Q12.4512-57.3692 12.4512-54.0413L12.4512-16.4177Q12.4512-13.0898 15.7928-13.0898Z"/>
   <path class="hierarchical-1:tertiary SFSymbolsPreview8E8E8E" d="M86.7035-25.0778Q89.9963-25.0778 89.9963-28.3493L89.9963-42.1097Q89.9963-45.3812 86.7035-45.3812Q83.4106-45.3812 83.4106-42.1097L83.4106-28.3493Q83.4106-25.0778 86.7035-25.0778ZM39.4531-25.0778Q42.7109-25.0778 42.7109-28.3493L42.7109-42.1097Q42.7109-45.3812 39.4531-45.3812Q36.1252-45.3812 36.1252-42.1097L36.1252-28.3493Q36.1252-25.0778 39.4531-25.0778Z"/>
   <path class="hierarchical-2:primary SFSymbolsPreview212121" d="M63.0783 5.74646Q66.3849 5.74646 66.3849 2.45285L66.3849-72.9118Q66.3849-76.2054 63.0783-76.2054Q59.7366-76.2054 59.7366-72.9118L59.7366 2.45285Q59.7366 5.74646 63.0783 5.74646Z"/>
  </g>
  <g id="Ultralight-M" transform="matrix(1 0 0 1 498.227 1126)">
   <path class="hierarchical-0:secondary SFSymbolsPreview4D4D4D" d="M107.718-13.7459Q110.522-13.7459 110.522-16.5924L110.522-53.8666Q110.522-56.7131 107.718-56.7131Q104.871-56.7131 104.871-53.8666L104.871-16.5924Q104.871-13.7459 107.718-13.7459ZM15.3008-13.7459Q18.1015-13.7459 18.1015-16.5924L18.1015-53.8666Q18.1015-56.7131 15.3008-56.7131Q12.4512-56.7131 12.4512-53.8666L12.4512-16.5924Q12.4512-13.7459 15.3008-13.7459Z"/>
   <path class="hierarchical-1:tertiary SFSymbolsPreview8E8E8E" d="M84.5909-25.6424Q87.3917-25.6424 87.3917-28.4012L87.3917-42.0578Q87.3917-44.8166 84.5909-44.8166Q81.7902-44.8166 81.7902-42.0578L81.7902-28.4012Q81.7902-25.6424 84.5909-25.6424ZM38.4277-25.6424Q41.1835-25.6424 41.1835-28.4012L41.1835-42.0578Q41.1835-44.8166 38.4277-44.8166Q35.5812-44.8166 35.5812-42.0578L35.5812-28.4012Q35.5812-25.6424 38.4277-25.6424Z"/>
   <path class="hierarchical-2:primary SFSymbolsPreview212121" d="M61.5097 4.91562Q64.3135 4.91562 64.3135 2.11487L64.3135-72.5739Q64.3135-75.3746 61.5097-75.3746Q58.6594-75.3746 58.6594-72.5739L58.6594 2.11487Q58.6594 4.91562 61.5097 4.91562Z"/>
  </g>
  <g id="Black-S" transform="matrix(1 0 0 1 2867.19 696)">
   <path class="hierarchical-0:secondary SFSymbolsPreview4D4D4D" d="M111.963-11.084Q119.971-11.084 119.971-19.0918L119.971-51.3672Q119.971-59.375 111.963-59.375Q103.907-59.375 103.907-51.3672L103.907-19.0918Q103.907-11.084 111.963-11.084ZM20.459-11.084Q28.5157-11.084 28.5157-19.0918L28.5157-51.3672Q28.5157-59.375 20.459-59.375Q12.4512-59.375 12.4512-51.3672L12.4512-19.0918Q12.4512-11.084 20.459-11.084Z"/>
   <path class="hierarchical-1:tertiary SFSymbolsPreview8E8E8E" d="M89.0626-21.3379Q97.0704-21.3379 97.0704-29.3457L97.0704-41.1133Q97.0704-49.1211 89.0626-49.1211Q81.0547-49.1211 81.0547-41.1133L81.0547-29.3457Q81.0547-21.3379 89.0626-21.3379ZM43.3594-21.3379Q51.3672-21.3379 51.3672-29.3457L51.3672-41.1133Q51.3672-49.1211 43.3594-49.1211Q35.3516-49.1211 35.3516-41.1133L35.3516-29.3457Q35.3516-21.3379 43.3594-21.3379Z"/>
   <path class="hierarchical-2:primary SFSymbolsPreview212121" d="M66.211 5.07812Q74.2188 5.07812 74.2188-2.97852L74.2188-67.4805Q74.2188-75.5371 66.211-75.5371Q58.2032-75.5371 58.2032-67.4805L58.2032-2.97852Q58.2032 5.07812 66.211 5.07812Z"/>
  </g>
  <g id="Heavy-S" transform="matrix(1 0 0 1 2572.55 696)">
   <path class="hierarchical-0:secondary SFSymbolsPreview4D4D4D" d="M108.713-12.1559Q115.834-12.1559 115.834-19.2879L115.834-51.1711Q115.834-58.3031 108.713-58.3031Q101.543-58.3031 101.543-51.1711L101.543-19.2879Q101.543-12.1559 108.713-12.1559ZM19.5832-12.1559Q26.7411-12.1559 26.7411-19.2879L26.7411-51.1711Q26.7411-58.3031 19.5832-58.3031Q12.4512-58.3031 12.4512-51.1711L12.4512-19.2879Q12.4512-12.1559 19.5832-12.1559Z"/>
   <path class="hierarchical-1:tertiary SFSymbolsPreview8E8E8E" d="M86.4007-22.2946Q93.5326-22.2946 93.5326-29.4151L93.5326-41.0439Q93.5326-48.1644 86.4007-48.1644Q79.2801-48.1644 79.2801-41.0439L79.2801-29.4151Q79.2801-22.2946 86.4007-22.2946ZM41.8847-22.2946Q49.0044-22.2946 49.0044-29.4151L49.0044-41.0439Q49.0044-48.1644 41.8847-48.1644Q34.7527-48.1644 34.7527-41.0439L34.7527-29.4151Q34.7527-22.2946 41.8847-22.2946Z"/>
   <path class="hierarchical-2:primary SFSymbolsPreview212121" d="M64.148 3.81012Q71.2685 3.81012 71.2685-3.35846L71.2685-67.1005Q71.2685-74.2691 64.148-74.2691Q57.016-74.2691 57.016-67.1005L57.016-3.35846Q57.016 3.81012 64.148 3.81012Z"/>
  </g>
  <g id="Bold-S" transform="matrix(1 0 0 1 2278.15 696)">
   <path class="hierarchical-0:secondary SFSymbolsPreview4D4D4D" d="M105.079-13.3545Q111.207-13.3545 111.207-19.5068L111.207-50.9521Q111.207-57.1045 105.079-57.1045Q98.9014-57.1045 98.9014-50.9521L98.9014-19.5068Q98.9014-13.3545 105.079-13.3545ZM18.6036-13.3545Q24.7559-13.3545 24.7559-19.5068L24.7559-50.9521Q24.7559-57.1045 18.6036-57.1045Q12.4512-57.1045 12.4512-50.9521L12.4512-19.5068Q12.4512-13.3545 18.6036-13.3545Z"/>
   <path class="hierarchical-1:tertiary SFSymbolsPreview8E8E8E" d="M83.4229-23.3643Q89.5752-23.3643 89.5752-29.4922L89.5752-40.9668Q89.5752-47.0947 83.4229-47.0947Q77.295-47.0947 77.295-40.9668L77.295-29.4922Q77.295-23.3643 83.4229-23.3643ZM40.2344-23.3643Q46.3624-23.3643 46.3624-29.4922L46.3624-40.9668Q46.3624-47.0947 40.2344-47.0947Q34.0821-47.0947 34.0821-40.9668L34.0821-29.4922Q34.0821-23.3643 40.2344-23.3643Z"/>
   <path class="hierarchical-2:primary SFSymbolsPreview212121" d="M61.8409 2.39258Q67.9688 2.39258 67.9688-3.78418L67.9688-66.6748Q67.9688-72.8516 61.8409-72.8516Q55.6885-72.8516 55.6885-66.6748L55.6885-3.78418Q55.6885 2.39258 61.8409 2.39258Z"/>
  </g>
  <g id="Semibold-S" transform="matrix(1 0 0 1 1983.04 696)">
   <path class="hierarchical-0:secondary SFSymbolsPreview4D4D4D" d="M102.572-14.1808Q108.016-14.1808 108.016-19.6579L108.016-50.8011Q108.016-56.2782 102.572-56.2782Q97.0795-56.2782 97.0795-50.8011L97.0795-19.6579Q97.0795-14.1808 102.572-14.1808ZM17.9284-14.1808Q23.3872-14.1808 23.3872-19.6579L23.3872-50.8011Q23.3872-56.2782 17.9284-56.2782Q12.4512-56.2782 12.4512-50.8011L12.4512-19.6579Q12.4512-14.1808 17.9284-14.1808Z"/>
   <path class="hierarchical-1:tertiary SFSymbolsPreview8E8E8E" d="M81.3698-24.102Q86.847-24.102 86.847-29.5456L86.847-40.9134Q86.847-46.357 81.3698-46.357Q75.9263-46.357 75.9263-40.9134L75.9263-29.5456Q75.9263-24.102 81.3698-24.102ZM39.0969-24.102Q44.5405-24.102 44.5405-29.5456L44.5405-40.9134Q44.5405-46.357 39.0969-46.357Q33.6197-46.357 33.6197-40.9134L33.6197-29.5456Q33.6197-24.102 39.0969-24.102Z"/>
   <path class="hierarchical-2:primary SFSymbolsPreview212121" d="M60.2501 1.41525Q65.6937 1.41525 65.6937-4.07715L65.6937-66.3818Q65.6937-71.8742 60.2501-71.8742Q54.773-71.8742 54.773-66.3818L54.773-4.07715Q54.773 1.41525 60.2501 1.41525Z"/>
  </g>
  <g id="Medium-S" transform="matrix(1 0 0 1 1687.53 696)">
   <path class="hierarchical-0:secondary SFSymbolsPreview4D4D4D" d="M100.672-14.8079Q105.597-14.8079 105.597-19.7723L105.597-50.6866Q105.597-55.6511 100.672-55.6511Q95.6986-55.6511 95.6986-50.6866L95.6986-19.7723Q95.6986-14.8079 100.672-14.8079ZM17.4157-14.8079Q22.3496-14.8079 22.3496-19.7723L22.3496-50.6866Q22.3496-55.6511 17.4157-55.6511Q12.4512-55.6511 12.4512-50.6866L12.4512-19.7723Q12.4512-14.8079 17.4157-14.8079Z"/>
   <path class="hierarchical-1:tertiary SFSymbolsPreview8E8E8E" d="M79.8134-24.6613Q84.7786-24.6613 84.7786-29.586L84.7786-40.873Q84.7786-45.7977 79.8134-45.7977Q74.8887-45.7977 74.8887-40.873L74.8887-29.586Q74.8887-24.6613 79.8134-24.6613ZM38.2348-24.6613Q43.1595-24.6613 43.1595-29.586L43.1595-40.873Q43.1595-45.7977 38.2348-45.7977Q33.2696-45.7977 33.2696-40.873L33.2696-29.586Q33.2696-24.6613 38.2348-24.6613Z"/>
   <path class="hierarchical-2:primary SFSymbolsPreview212121" d="M59.0439 0.673676Q63.9687 0.673676 63.9687-4.29993L63.9687-66.1591Q63.9687-71.1327 59.0439-71.1327Q54.0795-71.1327 54.0795-66.1591L54.0795-4.29993Q54.0795 0.673676 59.0439 0.673676Z"/>
  </g>
  <g id="Regular-S" transform="matrix(1 0 0 1 1392.4 696)">
   <path class="hierarchical-0:secondary SFSymbolsPreview4D4D4D" d="M98.1934-15.625Q102.441-15.625 102.441-19.9219L102.441-50.5371Q102.441-54.834 98.1934-54.834Q93.8965-54.834 93.8965-50.5371L93.8965-19.9219Q93.8965-15.625 98.1934-15.625ZM16.7481-15.625Q20.9961-15.625 20.9961-19.9219L20.9961-50.5371Q20.9961-54.834 16.7481-54.834Q12.4512-54.834 12.4512-50.5371L12.4512-19.9219Q12.4512-15.625 16.7481-15.625Z"/>
   <path class="hierarchical-1:tertiary SFSymbolsPreview8E8E8E" d="M77.7833-25.3906Q82.0801-25.3906 82.0801-29.6387L82.0801-40.8203Q82.0801-45.0684 77.7833-45.0684Q73.5352-45.0684 73.5352-40.8203L73.5352-29.6387Q73.5352-25.3906 77.7833-25.3906ZM37.1094-25.3906Q41.3575-25.3906 41.3575-29.6387L41.3575-40.8203Q41.3575-45.0684 37.1094-45.0684Q32.8126-45.0684 32.8126-40.8203L32.8126-29.6387Q32.8126-25.3906 37.1094-25.3906Z"/>
   <path class="hierarchical-2:primary SFSymbolsPreview212121" d="M57.4708-0.292969Q61.7188-0.292969 61.7188-4.58984L61.7188-65.8691Q61.7188-70.166 57.4708-70.166Q53.1739-70.166 53.1739-65.8691L53.1739-4.58984Q53.1739-0.292969 57.4708-0.292969Z"/>
  </g>
  <g id="Light-S" transform="matrix(1 0 0 1 1097.74 696)">
   <path class="hierarchical-0:secondary SFSymbolsPreview4D4D4D" d="M94.7274-16.4879Q98.3391-16.4879 98.3391-20.134L98.3391-50.325Q98.3391-53.9711 94.7274-53.9711Q91.0813-53.9711 91.0813-50.325L91.0813-20.134Q91.0813-16.4879 94.7274-16.4879ZM16.0973-16.4879Q19.7098-16.4879 19.7098-20.134L19.7098-50.325Q19.7098-53.9711 16.0973-53.9711Q12.4512-53.9711 12.4512-50.325L12.4512-20.134Q12.4512-16.4879 16.0973-16.4879Z"/>
   <path class="hierarchical-1:tertiary SFSymbolsPreview8E8E8E" d="M75.0283-26.1169Q78.6744-26.1169 78.6744-29.7142L78.6744-40.7448Q78.6744-44.342 75.0283-44.342Q71.431-44.342 71.431-40.7448L71.431-29.7142Q71.431-26.1169 75.0283-26.1169ZM35.7621-26.1169Q39.3593-26.1169 39.3593-29.7142L39.3593-40.7448Q39.3593-44.342 35.7621-44.342Q32.116-44.342 32.116-40.7448L32.116-29.7142Q32.116-26.1169 35.7621-26.1169Z"/>
   <path class="hierarchical-2:primary SFSymbolsPreview212121" d="M55.4123-1.38245Q59.0249-1.38245 59.0249-5.02853L59.0249-65.4305Q59.0249-69.0765 55.4123-69.0765Q51.7663-69.0765 51.7663-65.4305L51.7663-5.02853Q51.7663-1.38245 55.4123-1.38245Z"/>
  </g>
  <g id="Thin-S" transform="matrix(1 0 0 1 803.741 696)">
   <path class="hierarchical-0:secondary SFSymbolsPreview4D4D4D" d="M90.1429-17.6285Q92.9146-17.6285 92.9146-20.414L92.9146-50.045Q92.9146-52.8305 90.1429-52.8305Q87.3574-52.8305 87.3574-50.045L87.3574-20.414Q87.3574-17.6285 90.1429-17.6285ZM15.2367-17.6285Q18.0077-17.6285 18.0077-20.414L18.0077-50.045Q18.0077-52.8305 15.2367-52.8305Q12.4512-52.8305 12.4512-50.045L12.4512-20.414Q12.4512-17.6285 15.2367-17.6285Z"/>
   <path class="hierarchical-1:tertiary SFSymbolsPreview8E8E8E" d="M71.3852-27.0782Q74.17-27.0782 74.17-29.8141L74.17-40.6448Q74.17-43.3807 71.3852-43.3807Q68.6486-43.3807 68.6486-40.6448L68.6486-29.8141Q68.6486-27.0782 71.3852-27.0782ZM33.9806-27.0782Q36.7173-27.0782 36.7173-29.8141L36.7173-40.6448Q36.7173-43.3807 33.9806-43.3807Q31.1951-43.3807 31.1951-40.6448L31.1951-29.8141Q31.1951-27.0782 33.9806-27.0782Z"/>
   <path class="hierarchical-2:primary SFSymbolsPreview212121" d="M52.6894-2.8244Q55.4612-2.8244 55.4612-5.60913L55.4612-64.8499Q55.4612-67.6346 52.6894-67.6346Q49.9047-67.6346 49.9047-64.8499L49.9047-5.60913Q49.9047-2.8244 52.6894-2.8244Z"/>
  </g>
  <g id="Ultralight-S" transform="matrix(1 0 0 1 508.42 696)">
   <path class="hierarchical-0:secondary SFSymbolsPreview4D4D4D" d="M87.7945-18.2137Q90.1352-18.2137 90.1352-20.5574L90.1352-49.9016Q90.1352-52.2453 87.7945-52.2453Q85.45-52.2453 85.45-49.9016L85.45-20.5574Q85.45-18.2137 87.7945-18.2137ZM14.7957-18.2137Q17.1364-18.2137 17.1364-20.5574L17.1364-49.9016Q17.1364-52.2453 14.7957-52.2453Q12.4512-52.2453 12.4512-49.9016L12.4512-20.5574Q12.4512-18.2137 14.7957-18.2137Z"/>
   <path class="hierarchical-1:tertiary SFSymbolsPreview8E8E8E" d="M69.5183-27.5703Q71.8628-27.5703 71.8628-29.866L71.8628-40.593Q71.8628-42.8886 69.5183-42.8886Q67.2234-42.8886 67.2234-40.593L67.2234-29.866Q67.2234-27.5703 69.5183-27.5703ZM33.0681-27.5703Q35.3631-27.5703 35.3631-29.866L35.3631-40.593Q35.3631-42.8886 33.0681-42.8886Q30.7236-42.8886 30.7236-40.593L30.7236-29.866Q30.7236-27.5703 33.0681-27.5703Z"/>
   <path class="hierarchical-2:primary SFSymbolsPreview212121" d="M51.2948-3.56216Q53.6362-3.56216 53.6362-5.90668L53.6362-64.5523Q53.6362-66.8968 51.2948-66.8968Q48.951-66.8968 48.951-64.5523L48.951-5.90668Q48.951-3.56216 51.2948-3.56216Z"/>
  </g>
 </g>
</svg>
