<?xml version="1.0" encoding="UTF-8"?>
<!--Generator: Apple Native CoreSVG 175-->
<!DOCTYPE svg
PUBLIC "-//W3C//DTD SVG 1.1//EN"
       "http://www.w3.org/Graphics/SVG/1.1/DTD/svg11.dtd">
<svg version="1.1" xmlns="http://www.w3.org/2000/svg" xmlns:xlink="http://www.w3.org/1999/xlink" width="3300" height="2200">
 <!--glyph: "", point size: 100.0, font version: "17.0d12e1", template writer version: "65.1"-->
 <style>.multicolor-0:tertiaryLabelColor {fill:#BDBDBD;opacity:1.0}
.multicolor-1:labelColor {fill:#212121;opacity:1.0;-sfsymbols-clear-behind:true}
.multicolor-2:systemBlueColor {fill:#007AFF;opacity:1.0;-sfsymbols-clear-behind:true}

.hierarchical-0:tertiary {fill:#8E8E8E}
.hierarchical-1:primary {fill:#212121;-sfsymbols-clear-behind:true}
.hierarchical-2:secondary {fill:#4D4D4D;-sfsymbols-clear-behind:true}

.SFSymbolsPreview007AFF {fill:#007AFF;opacity:1.0}
.SFSymbolsPreview212121 {fill:#212121;opacity:1.0}
.SFSymbolsPreviewBDBDBD {fill:#BDBDBD;opacity:1.0}
</style>
 <g id="Notes">
  <rect height="2200" id="artboard" style="fill:white;opacity:1" width="3300" x="0" y="0"/>
  <line style="fill:none;stroke:black;opacity:1;stroke-width:0.5;" x1="263" x2="3036" y1="292" y2="292"/>
  <text style="stroke:none;fill:black;font-family:sans-serif;font-size:13;font-weight:bold;" transform="matrix(1 0 0 1 263 322)">Weight/Scale Variations</text>
  <text style="stroke:none;fill:black;font-family:sans-serif;font-size:13;text-anchor:middle;" transform="matrix(1 0 0 1 559.711 322)">Ultralight</text>
  <text style="stroke:none;fill:black;font-family:sans-serif;font-size:13;text-anchor:middle;" transform="matrix(1 0 0 1 856.422 322)">Thin</text>
  <text style="stroke:none;fill:black;font-family:sans-serif;font-size:13;text-anchor:middle;" transform="matrix(1 0 0 1 1153.13 322)">Light</text>
  <text style="stroke:none;fill:black;font-family:sans-serif;font-size:13;text-anchor:middle;" transform="matrix(1 0 0 1 1449.84 322)">Regular</text>
  <text style="stroke:none;fill:black;font-family:sans-serif;font-size:13;text-anchor:middle;" transform="matrix(1 0 0 1 1746.56 322)">Medium</text>
  <text style="stroke:none;fill:black;font-family:sans-serif;font-size:13;text-anchor:middle;" transform="matrix(1 0 0 1 2043.27 322)">Semibold</text>
  <text style="stroke:none;fill:black;font-family:sans-serif;font-size:13;text-anchor:middle;" transform="matrix(1 0 0 1 2339.98 322)">Bold</text>
  <text style="stroke:none;fill:black;font-family:sans-serif;font-size:13;text-anchor:middle;" transform="matrix(1 0 0 1 2636.69 322)">Heavy</text>
  <text style="stroke:none;fill:black;font-family:sans-serif;font-size:13;text-anchor:middle;" transform="matrix(1 0 0 1 2933.4 322)">Black</text>
  <line style="fill:none;stroke:black;opacity:1;stroke-width:0.5;" x1="263" x2="3036" y1="1903" y2="1903"/>
  <g transform="matrix(1 0 0 1 263 1933)">
   <path d="M9.24805 0.830078Q10.8691 0.830078 12.2949 0.214844Q13.7207-0.400391 14.8096-1.49414Q15.8984-2.58789 16.5186-4.01367Q17.1387-5.43945 17.1387-7.05078Q17.1387-8.66211 16.5186-10.0879Q15.8984-11.5137 14.8047-12.6074Q13.7109-13.7012 12.2852-14.3164Q10.8594-14.9316 9.23828-14.9316Q7.62695-14.9316 6.20117-14.3164Q4.77539-13.7012 3.69141-12.6074Q2.60742-11.5137 1.9873-10.0879Q1.36719-8.66211 1.36719-7.05078Q1.36719-5.43945 1.9873-4.01367Q2.60742-2.58789 3.69629-1.49414Q4.78516-0.400391 6.21094 0.214844Q7.63672 0.830078 9.24805 0.830078ZM9.24805-0.654297Q7.91992-0.654297 6.7627-1.14746Q5.60547-1.64062 4.73145-2.51953Q3.85742-3.39844 3.36426-4.56055Q2.87109-5.72266 2.87109-7.05078Q2.87109-8.37891 3.35938-9.54102Q3.84766-10.7031 4.72168-11.582Q5.5957-12.4609 6.75293-12.9541Q7.91016-13.4473 9.23828-13.4473Q10.5762-13.4473 11.7334-12.9541Q12.8906-12.4609 13.7695-11.582Q14.6484-10.7031 15.1465-9.54102Q15.6445-8.37891 15.6445-7.05078Q15.6445-5.72266 15.1514-4.56055Q14.6582-3.39844 13.7842-2.51953Q12.9102-1.64062 11.748-1.14746Q10.5859-0.654297 9.24805-0.654297ZM5.6543-7.05078Q5.6543-6.72852 5.85938-6.52832Q6.06445-6.32812 6.40625-6.32812L8.51562-6.32812L8.51562-4.20898Q8.51562-3.88672 8.71094-3.67676Q8.90625-3.4668 9.23828-3.4668Q9.56055-3.4668 9.77051-3.67676Q9.98047-3.88672 9.98047-4.20898L9.98047-6.32812L12.0898-6.32812Q12.4219-6.32812 12.627-6.52832Q12.832-6.72852 12.832-7.05078Q12.832-7.38281 12.627-7.58789Q12.4219-7.79297 12.0898-7.79297L9.98047-7.79297L9.98047-9.90234Q9.98047-10.2344 9.77051-10.4443Q9.56055-10.6543 9.23828-10.6543Q8.90625-10.6543 8.71094-10.4443Q8.51562-10.2344 8.51562-9.90234L8.51562-7.79297L6.40625-7.79297Q6.06445-7.79297 5.85938-7.58789Q5.6543-7.38281 5.6543-7.05078Z"/>
  </g>
  <g transform="matrix(1 0 0 1 281.867 1933)">
   <path d="M11.709 2.91016Q13.75 2.91016 15.5518 2.12891Q17.3535 1.34766 18.7305-0.0292969Q20.1074-1.40625 20.8887-3.20801Q21.6699-5.00977 21.6699-7.05078Q21.6699-9.0918 20.8887-10.8936Q20.1074-12.6953 18.7305-14.0723Q17.3535-15.4492 15.5469-16.2305Q13.7402-17.0117 11.6992-17.0117Q9.6582-17.0117 7.85645-16.2305Q6.05469-15.4492 4.68262-14.0723Q3.31055-12.6953 2.5293-10.8936Q1.74805-9.0918 1.74805-7.05078Q1.74805-5.00977 2.5293-3.20801Q3.31055-1.40625 4.6875-0.0292969Q6.06445 1.34766 7.86621 2.12891Q9.66797 2.91016 11.709 2.91016ZM11.709 1.25Q9.98047 1.25 8.47656 0.605469Q6.97266-0.0390625 5.83496-1.17676Q4.69727-2.31445 4.05762-3.81836Q3.41797-5.32227 3.41797-7.05078Q3.41797-8.7793 4.05762-10.2832Q4.69727-11.7871 5.83008-12.9297Q6.96289-14.0723 8.4668-14.7119Q9.9707-15.3516 11.6992-15.3516Q13.4277-15.3516 14.9316-14.7119Q16.4355-14.0723 17.5781-12.9297Q18.7207-11.7871 19.3652-10.2832Q20.0098-8.7793 20.0098-7.05078Q20.0098-5.32227 19.3701-3.81836Q18.7305-2.31445 17.5928-1.17676Q16.4551-0.0390625 14.9463 0.605469Q13.4375 1.25 11.709 1.25ZM7.17773-7.05078Q7.17773-6.69922 7.41211-6.47461Q7.64648-6.25 8.01758-6.25L10.8887-6.25L10.8887-3.36914Q10.8887-2.99805 11.1133-2.76855Q11.3379-2.53906 11.6895-2.53906Q12.0605-2.53906 12.29-2.76855Q12.5195-2.99805 12.5195-3.36914L12.5195-6.25L15.4004-6.25Q15.7715-6.25 16.001-6.47461Q16.2305-6.69922 16.2305-7.05078Q16.2305-7.42188 16.001-7.65137Q15.7715-7.88086 15.4004-7.88086L12.5195-7.88086L12.5195-10.752Q12.5195-11.1328 12.29-11.3623Q12.0605-11.5918 11.6895-11.5918Q11.3379-11.5918 11.1133-11.3574Q10.8887-11.123 10.8887-10.752L10.8887-7.88086L8.01758-7.88086Q7.63672-7.88086 7.40723-7.65137Q7.17773-7.42188 7.17773-7.05078Z"/>
  </g>
  <g transform="matrix(1 0 0 1 305.646 1933)">
   <path d="M14.9707 5.66406Q17.0605 5.66406 18.96 5.01465Q20.8594 4.36523 22.4512 3.19336Q24.043 2.02148 25.2197 0.429688Q26.3965-1.16211 27.0459-3.06641Q27.6953-4.9707 27.6953-7.05078Q27.6953-9.14062 27.0459-11.04Q26.3965-12.9395 25.2197-14.5312Q24.043-16.123 22.4512-17.2998Q20.8594-18.4766 18.9551-19.126Q17.0508-19.7754 14.9609-19.7754Q12.8711-19.7754 10.9717-19.126Q9.07227-18.4766 7.48535-17.2998Q5.89844-16.123 4.72168-14.5312Q3.54492-12.9395 2.90039-11.04Q2.25586-9.14062 2.25586-7.05078Q2.25586-4.9707 2.90527-3.06641Q3.55469-1.16211 4.72656 0.429688Q5.89844 2.02148 7.49023 3.19336Q9.08203 4.36523 10.9814 5.01465Q12.8809 5.66406 14.9707 5.66406ZM14.9707 3.84766Q13.1641 3.84766 11.5283 3.2959Q9.89258 2.74414 8.53516 1.74805Q7.17773 0.751953 6.17676-0.610352Q5.17578-1.97266 4.62891-3.6084Q4.08203-5.24414 4.08203-7.05078Q4.08203-8.86719 4.62891-10.5029Q5.17578-12.1387 6.17188-13.501Q7.16797-14.8633 8.52539-15.8594Q9.88281-16.8555 11.5186-17.4023Q13.1543-17.9492 14.9609-17.9492Q16.7773-17.9492 18.4131-17.4023Q20.0488-16.8555 21.4111-15.8594Q22.7734-14.8633 23.7695-13.501Q24.7656-12.1387 25.3174-10.5029Q25.8691-8.86719 25.8691-7.05078Q25.8789-5.24414 25.332-3.6084Q24.7852-1.97266 23.7842-0.610352Q22.7832 0.751953 21.4209 1.74805Q20.0586 2.74414 18.4229 3.2959Q16.7871 3.84766 14.9707 3.84766ZM9.19922-7.05078Q9.19922-6.66992 9.45801-6.4209Q9.7168-6.17188 10.1172-6.17188L14.0625-6.17188L14.0625-2.2168Q14.0625-1.81641 14.3115-1.55762Q14.5605-1.29883 14.9512-1.29883Q15.3516-1.29883 15.6104-1.55273Q15.8691-1.80664 15.8691-2.2168L15.8691-6.17188L19.8242-6.17188Q20.2246-6.17188 20.4785-6.4209Q20.7324-6.66992 20.7324-7.05078Q20.7324-7.46094 20.4785-7.71484Q20.2246-7.96875 19.8242-7.96875L15.8691-7.96875L15.8691-11.9141Q15.8691-12.3242 15.6104-12.583Q15.3516-12.8418 14.9512-12.8418Q14.5605-12.8418 14.3115-12.583Q14.0625-12.3242 14.0625-11.9141L14.0625-7.96875L10.1172-7.96875Q9.70703-7.96875 9.45312-7.71484Q9.19922-7.46094 9.19922-7.05078Z"/>
  </g>
  <text style="stroke:none;fill:black;font-family:sans-serif;font-size:13;font-weight:bold;" transform="matrix(1 0 0 1 263 1953)">Design Variations</text>
  <text style="stroke:none;fill:black;font-family:sans-serif;font-size:13;" transform="matrix(1 0 0 1 263 1971)">Symbols are supported in up to nine weights and three scales.</text>
  <text style="stroke:none;fill:black;font-family:sans-serif;font-size:13;" transform="matrix(1 0 0 1 263 1989)">For optimal layout with text and other symbols, vertically align</text>
  <text style="stroke:none;fill:black;font-family:sans-serif;font-size:13;" transform="matrix(1 0 0 1 263 2007)">symbols with the adjacent text.</text>
  <line style="fill:none;stroke:#00AEEF;stroke-width:0.5;opacity:1.0;" x1="776" x2="776" y1="1919" y2="1933"/>
  <g transform="matrix(1 0 0 1 776 1933)">
   <path d="M3.31055 0.15625Q3.70117 0.15625 3.91602-0.00976562Q4.13086-0.175781 4.26758-0.585938L5.52734-4.0332L11.2891-4.0332L12.5488-0.585938Q12.6855-0.175781 12.9004-0.00976562Q13.1152 0.15625 13.4961 0.15625Q13.8867 0.15625 14.1162-0.0585938Q14.3457-0.273438 14.3457-0.644531Q14.3457-0.869141 14.2383-1.17188L9.6582-13.3691Q9.48242-13.8184 9.17969-14.043Q8.87695-14.2676 8.4082-14.2676Q7.5-14.2676 7.17773-13.3789L2.59766-1.16211Q2.49023-0.859375 2.49023-0.634766Q2.49023-0.263672 2.70996-0.0537109Q2.92969 0.15625 3.31055 0.15625ZM6.00586-5.51758L8.37891-12.0898L8.42773-12.0898L10.8008-5.51758Z"/>
  </g>
  <line style="fill:none;stroke:#00AEEF;stroke-width:0.5;opacity:1.0;" x1="793.197" x2="793.197" y1="1919" y2="1933"/>
  <text style="stroke:none;fill:black;font-family:sans-serif;font-size:13;font-weight:bold;" transform="matrix(1 0 0 1 776 1953)">Margins</text>
  <text style="stroke:none;fill:black;font-family:sans-serif;font-size:13;" transform="matrix(1 0 0 1 776 1971)">Leading and trailing margins on the left and right side of each symbol</text>
  <text style="stroke:none;fill:black;font-family:sans-serif;font-size:13;" transform="matrix(1 0 0 1 776 1989)">can be adjusted by modifying the x-location of the margin guidelines.</text>
  <text style="stroke:none;fill:black;font-family:sans-serif;font-size:13;" transform="matrix(1 0 0 1 776 2007)">Modifications are automatically applied proportionally to all</text>
  <text style="stroke:none;fill:black;font-family:sans-serif;font-size:13;" transform="matrix(1 0 0 1 776 2025)">scales and weights.</text>
  <g transform="matrix(1 0 0 1 1289 1933)">
   <path d="M2.8418 1.86523L4.54102 3.57422Q5.18555 4.22852 5.90332 4.17969Q6.62109 4.13086 7.31445 3.35938L18.0078-8.42773L17.041-9.4043L6.42578 2.27539Q6.16211 2.57812 5.89355 2.61719Q5.625 2.65625 5.27344 2.30469L4.10156 1.14258Q3.75 0.791016 3.79395 0.522461Q3.83789 0.253906 4.14062-0.0195312L15.6152-10.8203L14.6387-11.7871L3.04688-0.898438Q2.30469-0.214844 2.25098 0.498047Q2.19727 1.21094 2.8418 1.86523ZM9.25781-16.3281Q8.94531-16.0254 8.90625-15.6348Q8.86719-15.2441 9.04297-14.9512Q9.21875-14.6777 9.55566-14.541Q9.89258-14.4043 10.3809-14.5215Q11.4746-14.7754 12.5977-14.7314Q13.7207-14.6875 14.7949-13.9844L14.209-12.5293Q13.9551-11.9043 14.0674-11.4404Q14.1797-10.9766 14.5801-10.5664L16.875-8.25195Q17.2363-7.88086 17.5781-7.82227Q17.9199-7.76367 18.3398-7.8418L19.4043-8.03711L20.0684-7.36328L20.0293-6.80664Q20-6.43555 20.1221-6.12305Q20.2441-5.81055 20.6055-5.44922L21.3672-4.70703Q21.7285-4.3457 22.1533-4.33105Q22.5781-4.31641 22.9297-4.66797L25.8398-7.58789Q26.1914-7.93945 26.1816-8.35449Q26.1719-8.76953 25.8105-9.13086L25.0391-9.89258Q24.6875-10.2539 24.3799-10.3857Q24.0723-10.5176 23.7109-10.4883L23.1348-10.4395L22.4902-11.0742L22.7344-12.1973Q22.832-12.6172 22.6953-12.9834Q22.5586-13.3496 22.1191-13.7891L19.9219-15.9766Q18.6719-17.2168 17.2607-17.8369Q15.8496-18.457 14.4189-18.4814Q12.9883-18.5059 11.665-17.959Q10.3418-17.4121 9.25781-16.3281ZM10.752-15.957Q11.6602-16.6211 12.7002-16.9043Q13.7402-17.1875 14.8047-17.085Q15.8691-16.9824 16.8701-16.5137Q17.8711-16.0449 18.7012-15.2051L21.1328-12.793Q21.3086-12.6172 21.3525-12.4512Q21.3965-12.2852 21.3379-12.0312L21.0156-10.5469L22.5195-9.0625L23.5059-9.12109Q23.6914-9.13086 23.7891-9.09668Q23.8867-9.0625 24.0332-8.91602L24.6094-8.33984L22.168-5.89844L21.5918-6.47461Q21.4453-6.62109 21.4062-6.71875Q21.3672-6.81641 21.377-7.01172L21.4453-7.98828L19.9512-9.47266L18.4277-9.21875Q18.1836-9.16992 18.042-9.2041Q17.9004-9.23828 17.7148-9.41406L15.7129-11.416Q15.5176-11.5918 15.4932-11.7529Q15.4688-11.9141 15.5859-12.1875L16.4648-14.2773Q15.293-15.3711 13.8281-15.791Q12.3633-16.2109 10.8398-15.7617Q10.7227-15.7324 10.6885-15.8057Q10.6543-15.8789 10.752-15.957Z"/>
  </g>
  <text style="stroke:none;fill:black;font-family:sans-serif;font-size:13;font-weight:bold;" transform="matrix(1 0 0 1 1289 1953)">Exporting</text>
  <text style="stroke:none;fill:black;font-family:sans-serif;font-size:13;" transform="matrix(1 0 0 1 1289 1971)">Symbols should be outlined when exporting to ensure the</text>
  <text style="stroke:none;fill:black;font-family:sans-serif;font-size:13;" transform="matrix(1 0 0 1 1289 1989)">design is preserved when submitting to Xcode.</text>
  <text id="template-version" style="stroke:none;fill:black;font-family:sans-serif;font-size:13;text-anchor:end;" transform="matrix(1 0 0 1 3036 1933)">Template v.3.0</text>
  <text style="stroke:none;fill:black;font-family:sans-serif;font-size:13;text-anchor:end;" transform="matrix(1 0 0 1 3036 1951)">Requires Xcode 13 or greater</text>
  <text id="descriptive-name" style="stroke:none;fill:black;font-family:sans-serif;font-size:13;text-anchor:end;" transform="matrix(1 0 0 1 3036 1969)">Generated from custom.drink.fill.inside</text>
  <text style="stroke:none;fill:black;font-family:sans-serif;font-size:13;text-anchor:end;" transform="matrix(1 0 0 1 3036 1987)">Typeset at 100 points</text>
  <text style="stroke:none;fill:black;font-family:sans-serif;font-size:13;" transform="matrix(1 0 0 1 263 726)">Small</text>
  <text style="stroke:none;fill:black;font-family:sans-serif;font-size:13;" transform="matrix(1 0 0 1 263 1156)">Medium</text>
  <text style="stroke:none;fill:black;font-family:sans-serif;font-size:13;" transform="matrix(1 0 0 1 263 1586)">Large</text>
 </g>
 <g id="Guides">
  <g id="H-reference" style="fill:#27AAE1;stroke:none;" transform="matrix(1 0 0 1 339 696)">
   <path d="M0.993347 0L3.6377 0L29.3282-67.1326L30.0301-67.1326L30.0301-70.459L28.1227-70.459ZM11.6882-24.4797L46.9818-24.4797L46.2311-26.7288L12.4382-26.7288ZM55.1193 0L57.7637 0L30.6381-70.459L29.4327-70.459L29.4327-67.1326Z"/>
  </g>
  <line id="Baseline-S" style="fill:none;stroke:#27AAE1;opacity:1;stroke-width:0.5;" x1="263" x2="3036" y1="696" y2="696"/>
  <line id="Capline-S" style="fill:none;stroke:#27AAE1;opacity:1;stroke-width:0.5;" x1="263" x2="3036" y1="625.541" y2="625.541"/>
  <g id="H-reference" style="fill:#27AAE1;stroke:none;" transform="matrix(1 0 0 1 339 1126)">
   <path d="M0.993347 0L3.6377 0L29.3282-67.1326L30.0301-67.1326L30.0301-70.459L28.1227-70.459ZM11.6882-24.4797L46.9818-24.4797L46.2311-26.7288L12.4382-26.7288ZM55.1193 0L57.7637 0L30.6381-70.459L29.4327-70.459L29.4327-67.1326Z"/>
  </g>
  <line id="Baseline-M" style="fill:none;stroke:#27AAE1;opacity:1;stroke-width:0.5;" x1="263" x2="3036" y1="1126" y2="1126"/>
  <line id="Capline-M" style="fill:none;stroke:#27AAE1;opacity:1;stroke-width:0.5;" x1="263" x2="3036" y1="1055.54" y2="1055.54"/>
  <g id="H-reference" style="fill:#27AAE1;stroke:none;" transform="matrix(1 0 0 1 339 1556)">
   <path d="M0.993347 0L3.6377 0L29.3282-67.1326L30.0301-67.1326L30.0301-70.459L28.1227-70.459ZM11.6882-24.4797L46.9818-24.4797L46.2311-26.7288L12.4382-26.7288ZM55.1193 0L57.7637 0L30.6381-70.459L29.4327-70.459L29.4327-67.1326Z"/>
  </g>
  <line id="Baseline-L" style="fill:none;stroke:#27AAE1;opacity:1;stroke-width:0.5;" x1="263" x2="3036" y1="1556" y2="1556"/>
  <line id="Capline-L" style="fill:none;stroke:#27AAE1;opacity:1;stroke-width:0.5;" x1="263" x2="3036" y1="1485.54" y2="1485.54"/>
  <line id="left-margin-Regular-M" style="fill:none;stroke:#00AEEF;stroke-width:0.5;opacity:1.0;" x1="1376.22" x2="1376.22" y1="1030.78" y2="1150.12"/>
  <line id="right-margin-Regular-M" style="fill:none;stroke:#00AEEF;stroke-width:0.5;opacity:1.0;" x1="1523.47" x2="1523.47" y1="1030.78" y2="1150.12"/>
 </g>
 <g id="Symbols">
  <g id="Black-L" transform="matrix(1 0 0 1 2848.22 1556)">
   <path class="multicolor-0:tertiaryLabelColor hierarchical-0:tertiary SFSymbolsPreviewBDBDBD" d="M79.3888-60.7334L94.0888-60.7334L94.6888-68.9334C94.8888-71.1334 95.5888-72.6334 96.9888-73.6334L118.089-88.7334C120.089-90.1334 121.189-91.8334 121.289-93.7334C121.389-95.6334 120.889-97.4334 119.789-98.9334C118.689-100.534 117.189-101.534 115.289-101.934C113.389-102.334 111.389-101.834 109.389-100.434L89.0888-85.8334C86.2888-83.8334 84.1888-81.5334 82.8888-79.0334C81.4888-76.5334 80.6888-73.5334 80.3888-69.9334L79.3888-60.7334Z"/>
   <path class="multicolor-1:labelColor hierarchical-1:primary SFSymbolsPreview212121" d="M71.5888 29.4666L98.9888 29.4666C104.689 29.4666 108.989 27.9666 111.989 25.0666C114.989 22.1666 116.789 17.5666 117.389 11.4666L123.589-53.4334C123.989-57.2334 123.189-60.3334 121.189-62.6334C119.189-64.9334 116.489-66.1334 112.789-66.1334L57.6888-66.1334C54.0888-66.1334 51.3888-64.9334 49.3888-62.6334C47.3888-60.3334 46.5888-57.2334 46.9888-53.4334L53.1888 11.4666C53.7888 17.6666 55.5888 22.1666 58.4888 25.0666C61.5888 27.9666 65.8888 29.4666 71.5888 29.4666Z"/>
   <path class="multicolor-2:systemBlueColor hierarchical-2:secondary SFSymbolsPreview007AFF" d="M72.6888 12.1666C71.3888 12.1666 70.5888 11.3666 70.3888 9.86663L64.7888-48.9334L105.889-48.9334L100.289 9.86663C100.089 11.3666 99.3888 12.1666 97.9888 12.1666L72.6888 12.1666Z"/>
  </g>
  <g id="Heavy-L" transform="matrix(1 0 0 1 2552.44 1556)">
   <path class="multicolor-0:tertiaryLabelColor hierarchical-0:tertiary SFSymbolsPreviewBDBDBD" d="M78.9563-60.1313L92.1563-60.1313L92.6563-67.7313C92.8563-70.1313 93.6563-71.8313 95.2563-72.9313L116.357-88.0313C118.156-89.3313 119.056-90.8313 119.256-92.5313C119.357-94.2313 118.957-95.8313 117.957-97.2313C116.957-98.6313 115.556-99.5313 113.857-99.9313C112.156-100.332 110.357-99.8313 108.457-98.5313L88.1563-83.9313C85.4563-81.9313 83.4563-79.8313 82.1563-77.4313C80.8563-75.0313 80.0563-72.1313 79.7563-68.7313L78.9563-60.1313Z"/>
   <path class="multicolor-1:labelColor hierarchical-1:primary SFSymbolsPreview212121" d="M70.5563 28.5687L98.3563 28.5687C103.656 28.5687 107.756 27.1687 110.457 24.4687C113.256 21.7687 114.857 17.4687 115.457 11.7687L121.756-54.0313C122.056-57.3313 121.357-60.0313 119.656-62.0313C117.957-64.0313 115.556-65.0313 112.357-65.0313L56.3563-65.0313C53.2563-65.0313 50.8563-64.0313 49.0563-62.0313C47.3563-60.0313 46.6563-57.3313 46.9563-54.0313L53.2563 11.7687C53.7563 17.4687 55.4563 21.7687 58.2563 24.4687C61.1563 27.1687 65.2563 28.5687 70.5563 28.5687Z"/>
   <path class="multicolor-2:systemBlueColor hierarchical-2:secondary SFSymbolsPreview007AFF" d="M71.4563 13.1687C69.7563 13.1687 68.8563 12.2687 68.6563 10.4687L62.9563-49.7313L106.056-49.7313L100.256 10.4687C100.056 12.2687 99.1563 13.1687 97.4563 13.1687L71.4563 13.1687Z"/>
  </g>
  <g id="Bold-L" transform="matrix(1 0 0 1 2256.97 1556)">
   <path class="multicolor-0:tertiaryLabelColor hierarchical-0:tertiary SFSymbolsPreviewBDBDBD" d="M78.2643-60.0072L89.4643-60.0072L89.9643-67.0072C90.1643-69.6072 91.1643-71.5072 92.9643-72.8072L114.064-87.9072C115.564-89.0072 116.364-90.3072 116.464-91.7072C116.564-93.2072 116.164-94.5072 115.364-95.7072C114.464-96.9072 113.364-97.7072 111.864-98.0072C110.364-98.3072 108.864-97.9072 107.264-96.8072L86.9643-82.2072C84.3643-80.3072 82.4643-78.2072 81.2643-76.0072C80.0643-73.8072 79.2643-71.0072 78.9643-67.7072L78.2643-60.0072Z"/>
   <path class="multicolor-1:labelColor hierarchical-1:primary SFSymbolsPreview212121" d="M68.9643 26.8928L97.1643 26.8928C102.064 26.8928 105.664 25.5928 108.264 23.0928C110.764 20.5928 112.264 16.6928 112.864 11.4928L119.264-55.2072C119.564-57.9072 118.964-60.1072 117.564-61.8072C116.164-63.5072 114.164-64.3072 111.564-64.3072L54.6643-64.3072C52.0643-64.3072 50.0643-63.5072 48.6643-61.8072C47.2643-60.1072 46.6643-57.9072 46.9643-55.2072L53.3643 11.5928C53.8643 16.7928 55.3643 20.6928 57.8643 23.1928C60.4643 25.6928 64.1643 26.8928 68.9643 26.8928Z"/>
   <path class="multicolor-2:systemBlueColor hierarchical-2:secondary SFSymbolsPreview007AFF" d="M69.6643 13.8928C67.5643 13.8928 66.3643 12.7928 66.1643 10.5928L60.2643-51.2072L105.864-51.2072L100.064 10.5928C99.7643 12.7928 98.6643 13.8928 96.5643 13.8928L69.6643 13.8928Z"/>
  </g>
  <g id="Semibold-L" transform="matrix(1 0 0 1 1961.16 1556)">
   <path class="multicolor-0:tertiaryLabelColor hierarchical-0:tertiary SFSymbolsPreviewBDBDBD" d="M77.7738-60.1052L87.6738-60.1052L88.1738-66.7052C88.3738-69.4052 89.4738-71.5052 91.4738-72.9052L112.574-88.0052C113.874-89.0052 114.674-90.1052 114.674-91.4052C114.774-92.7052 114.374-93.9052 113.674-94.9052C112.874-96.0052 111.874-96.6052 110.574-96.9052C109.274-97.2052 107.874-96.8052 106.474-95.8052L86.1738-81.2052C83.6738-79.4052 81.7738-77.4052 80.5738-75.2052C79.3738-73.0052 78.6738-70.4052 78.3738-67.2052L77.7738-60.1052Z"/>
   <path class="multicolor-1:labelColor hierarchical-1:primary SFSymbolsPreview212121" d="M67.9738 25.6948L96.4738 25.6948C100.974 25.6948 104.474 24.4948 106.774 22.1948C109.174 19.8948 110.574 16.1948 110.974 11.3948L117.474-56.0052C117.674-58.3052 117.274-60.2052 115.974-61.6052C114.774-63.0052 113.074-63.7052 110.774-63.7052L53.4738-63.7052C51.2738-63.7052 49.5738-63.0052 48.3738-61.6052C47.1738-60.2052 46.6738-58.3052 46.9738-56.0052L53.4738 11.3948C53.9738 16.2948 55.3738 19.8948 57.6738 22.1948C59.9738 24.4948 63.3738 25.6948 67.9738 25.6948Z"/>
   <path class="multicolor-2:systemBlueColor hierarchical-2:secondary SFSymbolsPreview007AFF" d="M68.4738 14.2948C66.0738 14.2948 64.7738 12.9948 64.4738 10.4948L58.4738-52.5052L105.774-52.5052L99.7738 10.4948C99.4738 12.9948 98.1738 14.2948 95.8738 14.2948L68.4738 14.2948Z"/>
  </g>
  <g id="Medium-L" transform="matrix(1 0 0 1 1665.02 1556)">
   <path class="multicolor-0:tertiaryLabelColor hierarchical-0:tertiary SFSymbolsPreviewBDBDBD" d="M77.6323-60.003L86.5323-60.003L86.9323-66.203C87.1323-69.103 88.3323-71.203 90.4323-72.703L111.532-87.803C112.732-88.703 113.332-89.703 113.432-90.903C113.532-92.103 113.232-93.103 112.532-94.103C111.832-95.103 110.932-95.703 109.732-95.903C108.532-96.203 107.332-95.803 106.032-94.903L85.8323-80.403C83.3323-78.603 81.5323-76.703 80.4323-74.603C79.3323-72.503 78.5323-69.903 78.3323-66.903L77.6323-60.003Z"/>
   <path class="multicolor-1:labelColor hierarchical-1:primary SFSymbolsPreview212121" d="M67.3323 24.697L96.0323 24.697C100.332 24.697 103.632 23.597 105.832 21.397C108.032 19.197 109.432 15.797 109.832 11.197L116.332-56.703C116.532-58.703 116.132-60.303 115.032-61.503C113.932-62.703 112.432-63.303 110.532-63.303L52.7323-63.303C50.8323-63.303 49.3323-62.703 48.2323-61.503C47.2323-60.303 46.7323-58.703 46.9323-56.703L53.4323 11.197C53.8323 15.797 55.2323 19.197 57.4323 21.397C59.8323 23.597 63.0323 24.697 67.3323 24.697Z"/>
   <path class="multicolor-2:systemBlueColor hierarchical-2:secondary SFSymbolsPreview007AFF" d="M67.8323 14.697C65.2323 14.697 63.7323 13.297 63.5323 10.597L57.5323-53.303L106.132-53.303L100.132 10.597C99.8323 13.297 98.4323 14.697 95.8323 14.697L67.8323 14.697Z"/>
  </g>
  <g id="Regular-L" transform="matrix(1 0 0 1 1369.21 1556)">
   <path class="multicolor-0:tertiaryLabelColor hierarchical-0:tertiary SFSymbolsPreviewBDBDBD" d="M77.1398-59.98L84.7398-59.98L85.1398-65.78C85.3398-68.78 86.6398-71.08 88.8398-72.78L109.94-87.88C110.94-88.58 111.54-89.48 111.54-90.48C111.64-91.48 111.34-92.38 110.74-93.18C110.14-93.98 109.34-94.48 108.34-94.78C107.34-94.98 106.24-94.68 105.14-93.88L84.9398-79.28C82.5398-77.58 80.8398-75.68 79.7398-73.68C78.6398-71.68 77.9398-69.18 77.7398-66.28L77.1398-59.98Z"/>
   <path class="multicolor-1:labelColor hierarchical-1:primary SFSymbolsPreview212121" d="M66.2398 23.62L95.1398 23.62C99.1398 23.62 102.14 22.62 104.24 20.52C106.34 18.42 107.54 15.32 107.94 11.02L114.54-57.48C114.74-59.08 114.34-60.38 113.54-61.38C112.64-62.38 111.44-62.88 109.94-62.88L51.5398-62.88C49.9398-62.88 48.7398-62.38 47.9398-61.38C47.1398-60.38 46.7398-59.08 46.9398-57.48L53.5398 11.02C53.9398 15.22 55.1398 18.42 57.2398 20.52C59.2398 22.62 62.2398 23.62 66.2398 23.62Z"/>
   <path class="multicolor-2:systemBlueColor hierarchical-2:secondary SFSymbolsPreview007AFF" d="M66.5398 15.22C63.6398 15.22 62.0398 13.72 61.7398 10.72L55.6398-54.28L105.94-54.28L99.8398 10.72C99.5398 13.72 97.9398 15.22 95.0398 15.22L66.5398 15.22Z"/>
  </g>
  <g id="Light-L" transform="matrix(1 0 0 1 1073.46 1556)">
   <path class="multicolor-0:tertiaryLabelColor hierarchical-0:tertiary SFSymbolsPreviewBDBDBD" d="M77.0075-59.8784L83.1075-59.8784L83.5075-65.5784C83.7076-68.6784 85.1075-71.0784 87.5075-72.8784L108.608-88.0784C109.408-88.6784 109.808-89.3784 109.908-90.1784C110.008-90.9784 109.708-91.6784 109.308-92.3784C108.808-93.0784 108.208-93.4784 107.408-93.6784C106.608-93.8784 105.708-93.5784 104.708-92.8784L84.4076-78.1784C82.1075-76.4784 80.4076-74.6784 79.4076-72.8784C78.4076-70.9784 77.8075-68.6784 77.5075-65.8784L77.0075-59.8784Z"/>
   <path class="multicolor-1:labelColor hierarchical-1:primary SFSymbolsPreview212121" d="M65.4076 22.3216L94.0075 22.3216C97.7076 22.3216 100.508 21.3216 102.508 19.4216C104.508 17.5216 105.608 14.6216 106.008 10.7216L112.608-57.6784C112.808-59.0784 112.508-60.1784 111.808-60.9784C111.108-61.7784 110.008-62.1784 108.708-62.1784L50.9076-62.1784C49.6075-62.1784 48.5075-61.7784 47.8075-60.9784C47.1075-60.1784 46.8075-59.0784 46.9076-57.6784L53.5075 10.7216C53.9076 14.6216 55.0075 17.5216 57.0075 19.4216C58.9076 21.4216 61.7076 22.3216 65.4076 22.3216Z"/>
   <path class="multicolor-2:systemBlueColor hierarchical-2:secondary SFSymbolsPreview007AFF" d="M65.6075 15.8216C62.1075 15.8216 60.1075 14.0216 59.8075 10.4216L53.6075-55.6784L105.908-55.6784L99.7076 10.4216C99.3075 14.0216 97.4076 15.8216 93.9076 15.8216L65.6075 15.8216Z"/>
  </g>
  <g id="Thin-L" transform="matrix(1 0 0 1 778.012 1556)">
   <path class="multicolor-0:tertiaryLabelColor hierarchical-0:tertiary SFSymbolsPreviewBDBDBD" d="M76.8134-59.55L80.9134-59.55L81.3134-65.15C81.5134-68.35 83.0134-70.95 85.7134-72.95L106.814-88.15C107.314-88.55 107.614-89.05 107.614-89.55C107.614-90.05 107.514-90.55 107.214-91.05C106.914-91.55 106.414-91.85 105.914-91.95C105.314-92.05 104.714-91.85 104.014-91.35L83.7134-76.65C81.4134-75.05 79.8134-73.35 78.9134-71.65C78.0134-69.95 77.4134-67.85 77.2134-65.25L76.8134-59.55Z"/>
   <path class="multicolor-1:labelColor hierarchical-1:primary SFSymbolsPreview212121" d="M64.3134 20.85L92.6134 20.85C95.9134 20.85 98.4134 20.05 100.314 18.35C102.114 16.65 103.214 14.15 103.514 10.75L110.114-57.45C110.214-58.55 110.014-59.45 109.514-60.05C109.014-60.65 108.114-60.95 107.014-60.95L50.0134-60.95C48.9134-60.95 48.1134-60.65 47.6134-60.05C47.0134-59.45 46.8134-58.55 46.9134-57.45L53.5134 10.75C53.8134 14.15 54.9134 16.65 56.7134 18.35C58.5134 19.95 61.0134 20.85 64.3134 20.85Z"/>
   <path class="multicolor-2:systemBlueColor hierarchical-2:secondary SFSymbolsPreview007AFF" d="M64.4134 16.95C60.1134 16.95 57.7134 14.75 57.3134 10.45L51.0134-57.05L106.114-57.05L99.8134 10.45C99.4134 14.85 97.0134 16.95 92.8134 16.95L64.4134 16.95Z"/>
  </g>
  <g id="Ultralight-L" transform="matrix(1 0 0 1 481.951 1556)">
   <path class="multicolor-0:tertiaryLabelColor hierarchical-0:tertiary SFSymbolsPreviewBDBDBD" d="M76.6138-59.249L79.7138-59.249L80.1138-64.749C80.3138-67.949 81.9138-70.649 84.8138-72.749L105.914-87.949C106.314-88.249 106.514-88.549 106.514-88.949C106.514-89.349 106.414-89.749 106.214-90.149C106.014-90.549 105.614-90.749 105.214-90.849C104.814-90.949 104.314-90.749 103.714-90.349L83.4138-75.749C81.2138-74.149 79.6138-72.549 78.7138-70.949C77.8138-69.349 77.3138-67.349 77.1138-64.949L76.6138-59.249Z"/>
   <path class="multicolor-1:labelColor hierarchical-1:primary SFSymbolsPreview212121" d="M63.8138 20.151L91.9138 20.151C95.0138 20.151 97.4138 19.351 99.2138 17.751C100.914 16.151 101.914 13.851 102.214 10.751L108.814-57.449C108.914-58.449 108.714-59.149 108.314-59.649C107.814-60.149 107.114-60.449 106.214-60.449L49.6138-60.449C48.7138-60.449 48.0138-60.149 47.5138-59.649C47.0138-59.149 46.8138-58.349 46.9138-57.449L53.5138 10.751C53.8138 13.851 54.8138 16.251 56.5138 17.751C58.3138 19.351 60.7138 20.151 63.8138 20.151Z"/>
   <path class="multicolor-2:systemBlueColor hierarchical-2:secondary SFSymbolsPreview007AFF" d="M63.7138 17.551C58.9138 17.551 56.3138 15.151 55.9138 10.451L49.5138-57.749L106.014-57.749L99.6138 10.451C99.2138 15.151 96.6138 17.551 91.9138 17.551L63.7138 17.551Z"/>
  </g>
  <g id="Black-M" transform="matrix(1 0 0 1 2856.15 1126)">
   <path class="multicolor-0:tertiaryLabelColor hierarchical-0:tertiary SFSymbolsPreviewBDBDBD" d="M72.3563-54.5288L84.8563-54.5288L85.3563-61.3288C85.4563-62.8288 85.9563-63.9288 86.8563-64.6288L103.157-76.3288C104.857-77.5288 105.757-78.9288 105.857-80.6288C105.956-82.2288 105.556-83.7288 104.556-85.0288C103.556-86.3288 102.257-87.2288 100.657-87.6288C99.0563-88.0288 97.3563-87.5288 95.6563-86.3288L80.0563-74.9288C77.8563-73.3288 76.1563-71.5288 75.0563-69.5288C73.9563-67.5288 73.2563-65.1288 73.0563-62.2288L72.3563-54.5288Z"/>
   <path class="multicolor-1:labelColor hierarchical-1:primary SFSymbolsPreview212121" d="M66.8563 16.2712L87.7563 16.2712C92.4563 16.2712 96.0563 15.0712 98.5563 12.6712C101.056 10.2712 102.456 6.47122 102.956 1.47122L107.757-48.1288C108.056-51.5288 107.357-54.2288 105.657-56.2288C103.956-58.2288 101.556-59.3288 98.3563-59.3288L56.3563-59.3288C53.2563-59.3288 50.7563-58.3288 49.0563-56.2288C47.3563-54.2288 46.6563-51.5288 46.9563-48.1288L51.6563 1.47122C52.1563 6.57122 53.6563 10.2712 56.0563 12.6712C58.5563 15.0712 62.1563 16.2712 66.8563 16.2712Z"/>
   <path class="multicolor-2:systemBlueColor hierarchical-2:secondary SFSymbolsPreview007AFF" d="M67.7563 1.57122C66.9563 1.57122 66.4563 1.07122 66.2563 0.0712277L61.9563-44.4288L92.3563-44.4288L88.2563 0.0712277C88.1563 1.07122 87.6563 1.57122 86.7563 1.57122L67.7563 1.57122Z"/>
  </g>
  <g id="Heavy-M" transform="matrix(1 0 0 1 2560.33 1126)">
   <path class="multicolor-0:tertiaryLabelColor hierarchical-0:tertiary SFSymbolsPreviewBDBDBD" d="M71.8638-54.6264L83.0638-54.6264L83.4638-60.9264C83.5638-62.6264 84.1638-63.8264 85.2638-64.6264L101.564-76.3264C103.064-77.4264 103.864-78.6264 103.964-80.1264C104.064-81.6264 103.664-82.9264 102.864-84.1264C101.964-85.3264 100.864-86.0264 99.4638-86.4264C98.0638-86.8264 96.5638-86.3264 94.9638-85.2264L79.2638-73.8264C77.1638-72.2264 75.5638-70.5264 74.4638-68.6264C73.3638-66.7264 72.7638-64.4264 72.5638-61.6264L71.8638-54.6264Z"/>
   <path class="multicolor-1:labelColor hierarchical-1:primary SFSymbolsPreview212121" d="M65.7638 14.9736L87.0638 14.9736C91.4638 14.9736 94.7638 13.8736 97.0638 11.5736C99.3638 9.37364 100.664 5.87364 101.164 1.17364L105.964-49.2264C106.264-52.1264 105.664-54.4264 104.164-56.2264C102.664-58.0264 100.564-58.8264 97.8638-58.8264L55.0638-58.8264C52.3638-58.8264 50.2638-57.9264 48.7638-56.2264C47.2638-54.4264 46.6638-52.1264 46.9638-49.2264L51.7638 1.17364C52.1638 5.87364 53.5638 9.37364 55.8638 11.5736C58.1638 13.8736 61.4638 14.9736 65.7638 14.9736Z"/>
   <path class="multicolor-2:systemBlueColor hierarchical-2:secondary SFSymbolsPreview007AFF" d="M66.5638 1.87364C65.4638 1.87364 64.8638 1.27364 64.6638-0.0263537L60.2638-45.8264L92.4638-45.8264L88.1638 0.0736463C87.9638 1.27364 87.3638 1.97364 86.2638 1.97364L66.5638 1.97364Z"/>
  </g>
  <g id="Bold-M" transform="matrix(1 0 0 1 2264.6 1126)">
   <path class="multicolor-0:tertiaryLabelColor hierarchical-0:tertiary SFSymbolsPreviewBDBDBD" d="M71.4317-54.503L81.0317-54.503L81.4317-60.203C81.5317-62.103 82.3317-63.503 83.5317-64.403L99.8317-76.103C101.132-77.003 101.832-78.103 101.932-79.403C102.032-80.703 101.732-81.803 100.932-82.803C100.232-83.803 99.2317-84.503 97.9317-84.803C96.7317-85.103 95.3317-84.703 94.0317-83.803L78.3317-72.403C76.3317-70.903 74.7317-69.303 73.7317-67.403C72.7317-65.603 72.1317-63.403 71.9317-60.803L71.4317-54.503Z"/>
   <path class="multicolor-1:labelColor hierarchical-1:primary SFSymbolsPreview212121" d="M64.6317 13.697L86.3317 13.697C90.3317 13.697 93.3317 12.697 95.4317 10.597C97.5317 8.49698 98.7317 5.39698 99.1317 1.09698L104.032-50.303C104.232-52.703 103.732-54.603 102.532-56.003C101.332-57.403 99.5317-58.203 97.3317-58.203L53.6317-58.203C51.4317-58.203 49.6317-57.503 48.4317-56.003C47.2317-54.603 46.7317-52.703 46.9317-50.303L51.8317 1.09698C52.2317 5.39698 53.4317 8.59698 55.5317 10.597C57.6317 12.597 60.6317 13.697 64.6317 13.697Z"/>
   <path class="multicolor-2:systemBlueColor hierarchical-2:secondary SFSymbolsPreview007AFF" d="M65.2317 2.49698C63.8317 2.49698 63.0317 1.79698 62.9317 0.296986L58.4317-46.803L92.5317-46.803L88.0317 0.196986C87.8317 1.69698 87.1317 2.39698 85.7317 2.39698L65.2317 2.39698Z"/>
  </g>
  <g id="Semibold-M" transform="matrix(1 0 0 1 1968.54 1126)">
   <path class="multicolor-0:tertiaryLabelColor hierarchical-0:tertiary SFSymbolsPreviewBDBDBD" d="M71.0323-54.6008L79.6323-54.6008L80.0323-59.9008C80.2323-61.9008 80.9323-63.5008 82.3323-64.5008L98.6323-76.2008C99.8323-77.0008 100.432-78.0008 100.532-79.1008C100.632-80.2008 100.332-81.2008 99.6323-82.2008C98.9323-83.1008 98.0323-83.7008 96.9323-84.0008C95.8323-84.3008 94.6323-83.9008 93.4323-83.1008L77.7323-71.6008C75.7323-70.1008 74.2323-68.6008 73.3323-66.8008C72.3323-65.1008 71.8323-62.9008 71.5323-60.4008L71.0323-54.6008Z"/>
   <path class="multicolor-1:labelColor hierarchical-1:primary SFSymbolsPreview212121" d="M63.8323 12.6992L85.8323 12.6992C89.5323 12.6992 92.3323 11.6992 94.2323 9.7992C96.1323 7.8992 97.3323 4.8992 97.7323 0.899205L102.732-51.1008C102.932-53.1008 102.532-54.7008 101.432-55.9008C100.432-57.1008 98.9323-57.7008 96.9323-57.7008L52.6323-57.7008C50.7323-57.7008 49.2323-57.1008 48.2323-55.9008C47.2323-54.7008 46.7323-53.1008 46.9323-51.1008L51.9323 0.899205C52.3323 4.8992 53.4323 7.8992 55.3323 9.7992C57.2323 11.6992 60.0323 12.6992 63.8323 12.6992Z"/>
   <path class="multicolor-2:systemBlueColor hierarchical-2:secondary SFSymbolsPreview007AFF" d="M64.3323 2.7992C62.7323 2.7992 61.8323 1.9992 61.7323 0.29921L57.1323-47.8008L92.5323-47.8008L87.9323 0.19921C87.7323 1.8992 86.8323 2.6992 85.3323 2.6992L64.3323 2.6992Z"/>
  </g>
  <g id="Medium-M" transform="matrix(1 0 0 1 1672.32 1126)">
   <path class="multicolor-0:tertiaryLabelColor hierarchical-0:tertiary SFSymbolsPreviewBDBDBD" d="M70.7393-54.48L78.5393-54.48L78.8393-59.48C79.0393-61.58 79.8393-63.28 81.3393-64.28L97.6393-75.98C98.7393-76.78 99.2393-77.68 99.3393-78.68C99.4393-79.68 99.1393-80.58 98.5393-81.48C97.9393-82.28 97.1393-82.88 96.1393-83.08C95.1393-83.28 94.0393-82.98 92.9393-82.18L77.2393-70.88C75.3393-69.48 73.8393-67.88 72.9393-66.18C72.0393-64.48 71.4393-62.38 71.2393-59.98L70.7393-54.48Z"/>
   <path class="multicolor-1:labelColor hierarchical-1:primary SFSymbolsPreview212121" d="M63.1393 12.02L85.4393 12.02C88.9393 12.02 91.6393 11.12 93.4393 9.32C95.2393 7.52 96.3393 4.72 96.7393 0.92L101.739-51.58C101.939-53.28 101.539-54.68 100.639-55.78C99.7393-56.78 98.4393-57.38 96.7393-57.38L51.8393-57.38C50.1393-57.38 48.9393-56.88 48.0393-55.78C47.1393-54.68 46.7393-53.38 46.9393-51.58L51.9393 0.92C52.2393 4.72 53.3393 7.52 55.1393 9.32C57.0393 11.12 59.6393 12.02 63.1393 12.02Z"/>
   <path class="multicolor-2:systemBlueColor hierarchical-2:secondary SFSymbolsPreview007AFF" d="M63.5393 3.12C61.8393 3.12 60.8393 2.22 60.6393 0.42L56.0393-48.38L92.5393-48.38L87.9393 0.42C87.7393 2.22 86.7393 3.12 85.1393 3.12L63.5393 3.12Z"/>
  </g>
  <g id="Regular-M" transform="matrix(1 0 0 1 1376.22 1126)">
   <path class="multicolor-0:tertiaryLabelColor hierarchical-0:tertiary SFSymbolsPreviewBDBDBD" d="M70.5076-54.4784L77.3076-54.4784L77.6076-59.0784C77.8076-61.3784 78.7076-63.0784 80.3076-64.2784L96.6076-75.9784C97.5076-76.6784 98.0076-77.3784 98.1076-78.2784C98.2076-79.1784 97.9075-79.9784 97.4075-80.6784C96.9075-81.3784 96.2076-81.8784 95.3076-82.0784C94.4075-82.2784 93.5076-81.9784 92.5076-81.2784L76.7076-69.9784C74.8076-68.5784 73.4075-67.0784 72.5076-65.4784C71.6076-63.8784 71.1076-61.8784 70.9075-59.4784L70.5076-54.4784Z"/>
   <path class="multicolor-1:labelColor hierarchical-1:primary SFSymbolsPreview212121" d="M62.4075 11.0216L85.0076 11.0216C88.2076 11.0216 90.7076 10.2216 92.4075 8.52166C94.1076 6.82166 95.1076 4.22166 95.4075 0.72165L100.508-52.3784C100.708-53.7784 100.408-54.8784 99.6076-55.6784C98.9075-56.4784 97.8076-56.8784 96.5076-56.8784L50.9075-56.8784C49.6076-56.8784 48.5076-56.4784 47.8076-55.5784C47.1076-54.6784 46.8076-53.6784 46.9075-52.2784L52.1076 0.72165C52.4075 4.22166 53.4075 6.82166 55.1076 8.52166C56.7076 10.2216 59.2076 11.0216 62.4075 11.0216Z"/>
   <path class="multicolor-2:systemBlueColor hierarchical-2:secondary SFSymbolsPreview007AFF" d="M62.7076 3.42166C60.8076 3.42166 59.7076 2.42166 59.5076 0.42165L54.8076-49.2784L92.6076-49.2784L87.9075 0.42165C87.7076 2.42166 86.6076 3.42166 84.7076 3.42166L62.7076 3.42166Z"/>
  </g>
  <g id="Light-M" transform="matrix(1 0 0 1 1080.46 1126)">
   <path class="multicolor-0:tertiaryLabelColor hierarchical-0:tertiary SFSymbolsPreviewBDBDBD" d="M70.2505-54.3748L75.6505-54.3748L75.9505-58.8748C76.1505-61.2748 77.1505-63.0748 78.9505-64.3748L95.2505-76.0748C95.9505-76.5748 96.3505-77.1748 96.4505-77.9748C96.4505-78.6748 96.3505-79.3748 95.8505-79.8748C95.4505-80.4748 94.8505-80.8748 94.1505-80.9748C93.4505-81.1748 92.6505-80.8748 91.8505-80.3748L76.2505-69.0748C74.4505-67.7748 73.0505-66.2748 72.2505-64.7748C71.4505-63.2748 70.9505-61.3748 70.7505-59.1748L70.2505-54.3748Z"/>
   <path class="multicolor-1:labelColor hierarchical-1:primary SFSymbolsPreview212121" d="M61.6505 9.92525L83.9505 9.92525C86.9505 9.92525 89.2505 9.1253 90.7505 7.6253C92.3505 6.1253 93.2505 3.7253 93.5505 0.525292L98.6505-52.4748C98.7505-53.6748 98.5505-54.5748 97.9505-55.2748C97.3505-55.9748 96.4505-56.3748 95.2505-56.3748L50.2505-56.3748C49.1505-56.3748 48.2505-55.9748 47.6505-55.2748C47.0505-54.5748 46.7505-53.6748 46.9505-52.4748L52.0505 0.525292C52.3505 3.7253 53.2505 6.0253 54.8505 7.6253C56.3505 9.1253 58.6505 9.92525 61.6505 9.92525Z"/>
   <path class="multicolor-2:systemBlueColor hierarchical-2:secondary SFSymbolsPreview007AFF" d="M61.8505 4.0253C59.3505 4.0253 58.0505 2.7253 57.7505 0.225292L52.9505-50.4748L92.5505-50.4748L87.8505 0.225292C87.5505 2.7253 86.2505 4.0253 83.8505 4.0253L61.8505 4.0253Z"/>
  </g>
  <g id="Thin-M" transform="matrix(1 0 0 1 784.912 1126)">
   <path class="multicolor-0:tertiaryLabelColor hierarchical-0:tertiary SFSymbolsPreviewBDBDBD" d="M70.0138-54.149L73.6138-54.149L73.9138-58.549C74.1138-60.949 75.2138-62.949 77.3138-64.449L93.6138-76.249C94.1138-76.549 94.3138-77.049 94.3138-77.449C94.3138-77.949 94.2138-78.349 93.9138-78.749C93.6138-79.149 93.2138-79.449 92.7138-79.549C92.2138-79.649 91.7138-79.449 91.1138-79.049L75.5138-67.649C73.7138-66.349 72.5138-65.049 71.7138-63.749C71.0138-62.449 70.5138-60.749 70.3138-58.649L70.0138-54.149Z"/>
   <path class="multicolor-1:labelColor hierarchical-1:primary SFSymbolsPreview212121" d="M60.6138 8.55096L82.6138 8.55096C85.2138 8.55096 87.3138 7.85096 88.7138 6.55096C90.1138 5.15096 91.0138 3.15096 91.2138 0.450966L96.3138-52.449C96.4138-53.349 96.2138-54.149 95.8138-54.649C95.3138-55.149 94.7138-55.449 93.7138-55.449L49.5138-55.449C48.6138-55.449 47.9138-55.149 47.5138-54.649C47.0138-54.149 46.8138-53.349 46.9138-52.449L52.0138 0.450966C52.3138 3.15096 53.1138 5.25096 54.5138 6.55096C55.9138 7.85096 58.0138 8.55096 60.6138 8.55096Z"/>
   <path class="multicolor-2:systemBlueColor hierarchical-2:secondary SFSymbolsPreview007AFF" d="M60.7138 4.95096C57.5138 4.95096 55.8138 3.35096 55.5138 0.150966L50.6138-51.849L92.7138-51.849L87.8138 0.150966C87.5138 3.35096 85.8138 4.95096 82.6138 4.95096L60.7138 4.95096Z"/>
  </g>
  <g id="Ultralight-M" transform="matrix(1 0 0 1 488.8 1126)">
   <path class="multicolor-0:tertiaryLabelColor hierarchical-0:tertiary SFSymbolsPreviewBDBDBD" d="M70.0143-54.048L72.7143-54.048L73.0143-58.348C73.2143-60.848 74.3143-62.848 76.5143-64.548L92.8143-76.348C93.1143-76.648 93.3143-76.948 93.3143-77.248C93.3143-77.648 93.2143-77.948 93.0143-78.248C92.8143-78.548 92.5143-78.748 92.1143-78.848C91.7143-78.948 91.3143-78.748 90.8143-78.448L75.3143-67.048C73.6143-65.848 72.3143-64.548 71.7143-63.248C71.0143-61.948 70.6143-60.348 70.4143-58.448L70.0143-54.048Z"/>
   <path class="multicolor-1:labelColor hierarchical-1:primary SFSymbolsPreview212121" d="M60.1143 7.75202L81.9143 7.75202C84.4143 7.75202 86.3143 7.15202 87.6143 5.85202C89.0143 4.65202 89.8143 2.75202 90.0143 0.252026L95.1143-52.548C95.2143-53.348 95.0143-53.948 94.7143-54.448C94.3143-54.848 93.7143-55.148 92.9143-55.148L49.1143-55.148C48.3143-55.148 47.8143-54.948 47.4143-54.448C47.0143-54.048 46.8143-53.348 46.9143-52.548L52.0143 0.252026C52.3143 2.75202 53.1143 4.65202 54.4143 5.85202C55.8143 7.15202 57.7143 7.75202 60.1143 7.75202Z"/>
   <path class="multicolor-2:systemBlueColor hierarchical-2:secondary SFSymbolsPreview007AFF" d="M60.1143 5.35202C56.5143 5.35202 54.6143 3.55202 54.3143 0.052026L49.4143-52.548L92.7143-52.548L87.8143 0.052026C87.5143 3.65202 85.5143 5.35202 82.0143 5.35202L60.1143 5.35202Z"/>
  </g>
  <g id="Black-S" transform="matrix(1 0 0 1 2862.54 696)">
   <path class="multicolor-0:tertiaryLabelColor hierarchical-0:tertiary SFSymbolsPreviewBDBDBD" d="M66.9643-50.278L77.0643-50.278L77.4643-55.778C77.5643-56.878 77.9643-57.778 78.5643-58.178L91.4643-67.378C92.8643-68.378 93.5643-69.478 93.6643-70.778C93.7643-72.078 93.4643-73.278 92.6643-74.378C91.8643-75.478 90.8643-76.178 89.5643-76.478C88.2643-76.778 86.8643-76.478 85.4643-75.478L73.1643-66.578C71.3643-65.278 70.0643-63.878 69.1643-62.278C68.2643-60.678 67.7643-58.778 67.5643-56.478L66.9643-50.278Z"/>
   <path class="multicolor-1:labelColor hierarchical-1:primary SFSymbolsPreview212121" d="M62.8643 5.52196L79.0643 5.52196C82.8643 5.52196 85.7643 4.52196 87.6643 2.62196C89.6643 0.721968 90.8643-2.27804 91.2643-6.37804L94.9643-44.978C95.2643-47.778 94.6643-49.978 93.2643-51.678C91.8643-53.378 89.8643-54.178 87.2643-54.178L54.6643-54.178C52.0643-54.178 50.0643-53.378 48.6643-51.678C47.2643-49.978 46.6643-47.778 46.9643-44.978L50.6643-6.37804C51.0643-2.27804 52.2643 0.721968 54.2643 2.62196C56.1643 4.52196 59.0643 5.52196 62.8643 5.52196Z"/>
   <path class="multicolor-2:systemBlueColor hierarchical-2:secondary SFSymbolsPreview007AFF" d="M63.6643-6.37804C63.0643-6.37804 62.6643-6.77804 62.5643-7.47804L59.2643-42.078L82.6643-42.078L79.3643-7.57804C79.2643-6.77804 78.8643-6.37804 78.2643-6.37804L63.6643-6.37804Z"/>
  </g>
  <g id="Heavy-S" transform="matrix(1 0 0 1 2566.46 696)">
   <path class="multicolor-0:tertiaryLabelColor hierarchical-0:tertiary SFSymbolsPreviewBDBDBD" d="M66.6317-50.378L75.7317-50.378L76.1317-55.378C76.2317-56.678 76.6317-57.578 77.4317-58.178L90.2317-67.378C91.4317-68.278 92.1317-69.278 92.2317-70.478C92.3317-71.678 92.0317-72.778 91.3317-73.678C90.6317-74.578 89.7317-75.278 88.5317-75.578C87.3317-75.878 86.1317-75.578 84.8317-74.578L72.5317-65.678C70.8317-64.478 69.5317-63.078 68.7317-61.578C67.9317-60.078 67.3317-58.178 67.2317-55.978L66.6317-50.378Z"/>
   <path class="multicolor-1:labelColor hierarchical-1:primary SFSymbolsPreview212121" d="M62.0317 4.52196L78.6317 4.52196C82.1317 4.52196 84.8317 3.62196 86.6317 1.82196C88.4317 0.0219684 89.5317-2.77804 89.9317-6.57804L93.7317-45.878C93.9317-48.278 93.4317-50.178 92.2317-51.678C91.0317-53.078 89.2317-53.878 87.0317-53.878L53.6317-53.878C51.4317-53.878 49.6317-53.178 48.4317-51.678C47.2317-50.178 46.7317-48.278 46.9317-45.878L50.7317-6.57804C51.1317-2.77804 52.2317 0.0219684 54.0317 1.82196C55.8317 3.62196 58.5317 4.52196 62.0317 4.52196Z"/>
   <path class="multicolor-2:systemBlueColor hierarchical-2:secondary SFSymbolsPreview007AFF" d="M62.6317-6.17804C61.8317-6.17804 61.4317-6.57804 61.3317-7.47804L57.9317-42.978L82.6317-42.978L79.2317-7.47804C79.1317-6.57804 78.7317-6.17804 77.9317-6.17804L62.6317-6.17804Z"/>
  </g>
  <g id="Bold-S" transform="matrix(1 0 0 1 2270.49 696)">
   <path class="multicolor-0:tertiaryLabelColor hierarchical-0:tertiary SFSymbolsPreviewBDBDBD" d="M66.2388-50.3582L74.2388-50.3582L74.5388-54.8582C74.6388-56.2582 75.1388-57.3582 76.1388-58.0582L88.9388-67.2582C90.0388-68.0582 90.6388-68.9582 90.6388-69.9582C90.7388-70.9582 90.4388-71.9582 89.8388-72.8582C89.2388-73.7582 88.4388-74.2582 87.3388-74.4582C86.3388-74.6582 85.2388-74.4582 84.0388-73.5582L71.7388-64.6582C70.1388-63.4582 68.9388-62.1582 68.1388-60.6582C67.3388-59.1582 66.8388-57.4582 66.6388-55.3582L66.2388-50.3582Z"/>
   <path class="multicolor-1:labelColor hierarchical-1:primary SFSymbolsPreview212121" d="M61.0388 3.54174L78.0388 3.54174C81.2388 3.54174 83.7388 2.74174 85.3388 1.04174C87.0388-0.65826 88.0388-3.15826 88.3388-6.65826L92.2388-46.7582C92.4388-48.7582 92.0388-50.3582 91.0388-51.4582C90.0388-52.6582 88.5388-53.2582 86.7388-53.2582L52.4388-53.2582C50.5388-53.2582 49.1388-52.6582 48.1388-51.4582C47.1388-50.2582 46.7388-48.6582 46.9388-46.7582L50.8388-6.65826C51.1388-3.15826 52.1388-0.55826 53.8388 1.04174C55.4388 2.74174 57.8388 3.54174 61.0388 3.54174Z"/>
   <path class="multicolor-2:systemBlueColor hierarchical-2:secondary SFSymbolsPreview007AFF" d="M61.6388-5.85826C60.7388-5.85826 60.2388-6.35826 60.0388-7.35826L56.5388-43.8582L82.6388-43.8582L79.1388-7.35826C79.0388-6.35826 78.4388-5.85826 77.5388-5.85826L61.6388-5.85826Z"/>
  </g>
  <g id="Semibold-S" transform="matrix(1 0 0 1 1974.2 696)">
   <path class="multicolor-0:tertiaryLabelColor hierarchical-0:tertiary SFSymbolsPreviewBDBDBD" d="M66.0072-50.3558L73.3072-50.3558L73.6072-54.5558C73.7072-56.1558 74.3072-57.2558 75.3072-57.9558L88.1072-67.1558C89.1072-67.8558 89.6072-68.6558 89.7072-69.6558C89.8072-70.6558 89.5072-71.4558 89.0072-72.2558C88.4072-73.0558 87.7072-73.5558 86.7072-73.7558C85.8072-73.9558 84.8072-73.7558 83.7072-72.9558L71.4072-64.0558C69.8072-62.8558 68.6072-61.6558 67.9072-60.2558C67.1072-58.8558 66.6072-57.1558 66.5072-55.0558L66.0072-50.3558Z"/>
   <path class="multicolor-1:labelColor hierarchical-1:primary SFSymbolsPreview212121" d="M60.5072 2.84428L77.8072 2.84428C80.8072 2.84428 83.1072 2.04428 84.7072 0.444272C86.3072-1.15572 87.2072-3.55572 87.5072-6.85572L91.4072-47.5558C91.6072-49.2558 91.2072-50.5558 90.3072-51.6558C89.4072-52.6558 88.2072-53.1558 86.6072-53.1558L51.7072-53.1558C50.1072-53.1558 48.9072-52.6558 48.0072-51.6558C47.1072-50.6558 46.8072-49.2558 46.9072-47.6558L50.8072-6.95572C51.1072-3.65572 52.0072-1.25572 53.6072 0.344272C55.2072 2.04428 57.5072 2.84428 60.5072 2.84428Z"/>
   <path class="multicolor-2:systemBlueColor hierarchical-2:secondary SFSymbolsPreview007AFF" d="M61.0072-5.65572C60.0072-5.65572 59.4072-6.25572 59.3072-7.35572L55.7072-44.6558L82.7072-44.6558L79.2072-7.35572C79.1072-6.25572 78.5072-5.65572 77.5072-5.65572L61.0072-5.65572Z"/>
  </g>
  <g id="Medium-S" transform="matrix(1 0 0 1 1677.86 696)">
   <path class="multicolor-0:tertiaryLabelColor hierarchical-0:tertiary SFSymbolsPreviewBDBDBD" d="M65.6488-50.353L72.3488-50.353L72.6488-54.253C72.7488-55.853 73.3488-57.153 74.4488-57.853L87.2488-67.053C88.1488-67.753 88.6488-68.453 88.7488-69.353C88.8488-70.253 88.5488-71.053 88.0488-71.753C87.5488-72.453 86.8488-72.953 85.9488-73.153C85.0488-73.353 84.1488-73.153 83.1488-72.453L70.8488-63.553C69.3488-62.453 68.1488-61.153 67.3488-59.753C66.5488-58.353 66.1488-56.653 65.9488-54.653L65.6488-50.353Z"/>
   <path class="multicolor-1:labelColor hierarchical-1:primary SFSymbolsPreview212121" d="M59.9488 2.24702L77.4488 2.24702C80.3488 2.24702 82.4488 1.54702 83.9488 0.0470125C85.4488-1.45298 86.3488-3.75298 86.6488-6.85298L90.6488-47.953C90.8488-49.453 90.4488-50.553 89.7488-51.453C88.9488-52.353 87.8488-52.753 86.4488-52.753L51.0488-52.753C49.6488-52.753 48.5488-52.253 47.8488-51.353C47.0488-50.453 46.7488-49.253 46.9488-47.853L50.9488-6.75298C51.2488-3.65298 52.1488-1.35298 53.5488 0.147012C54.9488 1.54702 57.0488 2.24702 59.9488 2.24702Z"/>
   <path class="multicolor-2:systemBlueColor hierarchical-2:secondary SFSymbolsPreview007AFF" d="M60.3488-5.45298C59.2488-5.45298 58.5488-6.05298 58.4488-7.25298L54.8488-45.053L82.6488-45.053L79.0488-7.25298C78.8488-6.05298 78.2488-5.45298 77.1488-5.45298L60.3488-5.45298Z"/>
  </g>
  <g id="Regular-S" transform="matrix(1 0 0 1 1381.62 696)">
   <path class="multicolor-0:tertiaryLabelColor hierarchical-0:tertiary SFSymbolsPreviewBDBDBD" d="M65.5505-50.453L71.5505-50.453L71.7505-54.053C71.8505-55.853 72.5505-57.153 73.7505-57.953L86.5505-67.153C87.3505-67.753 87.7505-68.453 87.8505-69.253C87.8505-70.053 87.6505-70.753 87.2505-71.353C86.7505-71.953 86.1505-72.353 85.3505-72.553C84.5505-72.753 83.7505-72.553 82.8505-71.853L70.5505-62.953C69.0505-61.853 67.9505-60.653 67.2505-59.353C66.5505-58.053 66.0505-56.353 65.9505-54.453L65.5505-50.453Z"/>
   <path class="multicolor-1:labelColor hierarchical-1:primary SFSymbolsPreview212121" d="M59.4505 1.54702L77.2505 1.54702C79.9505 1.54702 81.9505 0.847012 83.2505-0.552988C84.6505-1.95298 85.4505-4.05298 85.7505-6.95298L89.7505-48.653C89.8505-49.853 89.6505-50.753 88.9505-51.453C88.3505-52.153 87.4505-52.553 86.2505-52.553L50.2505-52.553C49.1505-52.553 48.2505-52.153 47.6505-51.453C47.0505-50.753 46.7505-49.753 46.9505-48.653L50.9505-6.95298C51.2505-4.05298 52.0505-1.95298 53.3505-0.552988C54.7505 0.847012 56.7505 1.54702 59.4505 1.54702Z"/>
   <path class="multicolor-2:systemBlueColor hierarchical-2:secondary SFSymbolsPreview007AFF" d="M59.7505-5.35298C58.5505-5.35298 57.8505-6.05298 57.6505-7.35298L53.9505-45.853L82.7505-45.853L79.0505-7.25298C78.8505-5.95298 78.2505-5.25298 76.9505-5.25298L59.7505-5.25298Z"/>
  </g>
  <g id="Light-S" transform="matrix(1 0 0 1 1085.67 696)">
   <path class="multicolor-0:tertiaryLabelColor hierarchical-0:tertiary SFSymbolsPreviewBDBDBD" d="M65.2138-50.35L70.0138-50.35L70.2138-53.85C70.3138-55.65 71.1138-57.05 72.4138-58.05L85.3138-67.25C85.9138-67.75 86.3138-68.25 86.3138-68.85C86.3138-69.45 86.2138-70.05 85.8138-70.55C85.4138-71.05 84.9138-71.35 84.3138-71.55C83.7138-71.75 83.0138-71.55 82.3138-70.95L70.0138-62.05C68.5138-60.95 67.5138-59.85 66.8138-58.65C66.1138-57.45 65.7138-55.95 65.6138-54.15L65.2138-50.35Z"/>
   <path class="multicolor-1:labelColor hierarchical-1:primary SFSymbolsPreview212121" d="M58.7138 0.55L76.3138 0.55C78.7138 0.55 80.6138-0.05 81.9138-1.35C83.2138-2.65 83.9138-4.55 84.2138-7.15L88.2138-48.75C88.3138-49.75 88.1138-50.55 87.6138-51.15C87.1138-51.75 86.3138-52.05 85.3138-52.05L49.7138-52.05C48.7138-52.05 48.0138-51.75 47.5138-51.15C47.0138-50.55 46.8138-49.75 46.9138-48.75L50.9138-7.15C51.1138-4.55 51.9138-2.65 53.2138-1.35C54.4138-0.15 56.2138 0.55 58.7138 0.55Z"/>
   <path class="multicolor-2:systemBlueColor hierarchical-2:secondary SFSymbolsPreview007AFF" d="M58.9138-4.75C57.2138-4.75 56.2138-5.65 56.1138-7.35L52.4138-46.75L82.7138-46.75L78.9138-7.45C78.7138-5.65 77.8138-4.85 76.1138-4.85L58.9138-4.85Z"/>
  </g>
  <g id="Thin-S" transform="matrix(1 0 0 1 790.012 696)">
   <path class="multicolor-0:tertiaryLabelColor hierarchical-0:tertiary SFSymbolsPreviewBDBDBD" d="M65.1143-50L68.3143-50L68.5143-53.4C68.6143-55.3 69.5143-56.8 71.1143-58L83.9143-67.2C84.3143-67.5 84.5143-67.9 84.6143-68.3C84.6143-68.7 84.5143-69.1 84.3143-69.5C84.1143-69.9 83.7143-70.1 83.3143-70.2C82.8143-70.2 82.3143-70 81.8143-69.7L69.5143-60.8C68.1143-59.8 67.1143-58.7 66.5143-57.7C65.9143-56.6 65.5143-55.3 65.4143-53.6L65.1143-50Z"/>
   <path class="multicolor-1:labelColor hierarchical-1:primary SFSymbolsPreview212121" d="M57.9143-0.5L75.2143-0.5C77.3143-0.5 79.0143-1 80.1143-2.1C81.3143-3.2 81.9143-4.9 82.1143-7.1L86.1143-48.6C86.2143-49.4 86.0143-50 85.6143-50.4C85.2143-50.8 84.6143-51.1 83.9143-51.1L49.1143-51.1C48.4143-51.1 47.8143-50.9 47.4143-50.4C47.0143-49.9 46.8143-49.3 46.9143-48.6L50.9143-7.1C51.1143-4.9 51.8143-3.2 52.9143-2.1C54.1143-1.1 55.8143-0.5 57.9143-0.5Z"/>
   <path class="multicolor-2:systemBlueColor hierarchical-2:secondary SFSymbolsPreview007AFF" d="M58.0143-3.8C55.6143-3.8 54.3143-5 54.1143-7.4L50.3143-47.9L82.8143-47.9L79.0143-7.4C78.8143-5 77.5143-3.8 75.2143-3.8L58.0143-3.8Z"/>
  </g>
  <g id="Ultralight-S" transform="matrix(1 0 0 1 493.9 696)">
   <path class="multicolor-0:tertiaryLabelColor hierarchical-0:tertiary SFSymbolsPreviewBDBDBD" d="M64.9148-50.0468L67.3148-50.0468L67.5148-53.4468C67.6148-55.3468 68.5148-56.9468 70.2148-58.2468L83.0148-67.4468C83.3148-67.6468 83.5148-67.9468 83.5148-68.2468C83.5148-68.5468 83.4148-68.8468 83.3148-69.1468C83.1148-69.4468 82.9148-69.5468 82.5148-69.6468C82.2148-69.7468 81.8148-69.5468 81.4148-69.3468L69.1148-60.4468C67.7148-59.4468 66.8148-58.4468 66.2148-57.4468C65.6148-56.4468 65.3148-55.1468 65.2148-53.6468L64.9148-50.0468Z"/>
   <path class="multicolor-1:labelColor hierarchical-1:primary SFSymbolsPreview212121" d="M57.3148-1.3468L74.4148-1.3468C76.4148-1.3468 77.9148-1.8468 79.0148-2.8468C80.1148-3.8468 80.7148-5.3468 80.9148-7.3468L84.9148-48.7468C85.0148-49.4468 84.8148-49.9468 84.5148-50.2468C84.2148-50.6468 83.7148-50.8468 83.0148-50.8468L48.7148-50.8468C48.1148-50.8468 47.6148-50.6468 47.3148-50.2468C47.0148-49.8468 46.8148-49.3468 46.9148-48.7468L50.9148-7.3468C51.1148-5.3468 51.7148-3.8468 52.8148-2.8468C53.8148-1.8468 55.4148-1.3468 57.3148-1.3468Z"/>
   <path class="multicolor-2:systemBlueColor hierarchical-2:secondary SFSymbolsPreview007AFF" d="M57.4148-3.5468C54.7148-3.5468 53.2148-4.8468 53.0148-7.5468L49.2148-48.6468L82.8148-48.6468L78.9148-7.6468C78.6148-4.9468 77.2148-3.6468 74.5148-3.6468L57.4148-3.6468Z"/>
  </g>
 </g>
</svg>
